SplineFontDB: 3.2
FontName: InconsolataLGC-Bold
FullName: Inconsolata LGC Bold
FamilyName: Inconsolata LGC
Weight: Bold
Copyright: Original Roman version created by Raph Levien using his own tools and FontForge. Copyright 2006 Raph Levien. Hellenisation of the Roman font, by Dimosthenis Kaponis, using FontForge. Hellenic glyphs Copyright 2010-2012 Dimosthenis Kaponis. Released under the SIL Open Font License, http://scripts.sil.org/OFL.\n\nCyrillic glyphs added by MihailJP, using FontForge. Cyrillic glyphs Copyright 2012 MihailJP. Released under the SIL Open Font License, http://scripts.sil.org/OFL.\n\nEmboldened by MihailJP.\n\nSome glyphs modified by Greg Omelaenko, using FontForge.
UComments: "2005-8-26: Created."
Version: 1.6.1
ItalicAngle: 0
UnderlinePosition: -101
UnderlineWidth: 50
Ascent: 840
Descent: 184
InvalidEm: 0
sfntRevision: 0x00010189
LayerCount: 2
Layer: 0 0 "Back" 1
Layer: 1 0 "Fore" 0
XUID: [1021 77 1780377399 11264577]
FSType: 8
OS2Version: 0
OS2_WeightWidthSlopeOnly: 0
OS2_UseTypoMetrics: 0
CreationTime: 1161020814
ModificationTime: 1714893984
PfmFamily: 17
TTFWeight: 700
TTFWidth: 5
LineGap: 205
VLineGap: 0
Panose: 2 11 8 9 3 0 3 0 0 0
OS2TypoAscent: 840
OS2TypoAOffset: 0
OS2TypoDescent: -184
OS2TypoDOffset: 0
OS2TypoLinegap: 0
OS2WinAscent: 1098
OS2WinAOffset: 0
OS2WinDescent: 210
OS2WinDOffset: 0
HheadAscent: 1098
HheadAOffset: 0
HheadDescent: -210
HheadDOffset: 0
OS2Vendor: 'PfEd'
Lookup: 1 0 0 "Polish kreska forms" { "Polish kreska forms-1" ("pl") } ['locl' ('latn' <'PLK ' > ) ]
Lookup: 1 0 0 "Romanian comma accent" { "Romanian comma accent-1"  } ['locl' ('latn' <'MOL ' 'ROM ' > ) ]
Lookup: 1 0 0 "Macedonian-Serbian Italic" { "Macedonian-Serbian Italic subtable" ("mkd") } ['locl' ('cyrl' <'BOS ' 'MKD ' 'SRB ' > ) ]
Lookup: 1 0 0 "Bulgarian variant forms" { "Bulgarian variant forms-1" ("bg") } ['locl' ('cyrl' <'BGR ' > ) ]

StartChar: a
Encoding: 97 97 0
Width: 613
Flags: W
TeX: 99 0
LayerCount: 2
Fore
SplineSet
98 464 m 1
 128 494 188 554 311 554 c 0
 399 554 474 523 513 461 c 0
 540 417 542 375 542 333 c 0
 542 0 l 1
 430 0 l 1
 430 44 l 1
 373 5 312 -13 251 -13 c 0
 130 -13 53 63 53 149 c 0
 53 214 97 278 187 310 c 0
 255 334 334 335 409 335 c 0
 415 335 421 335 427 335 c 0
 429 335 l 1
 429 338 l 0
 429 364 429 392 414 414 c 0
 401 433 375 454 315 454 c 0
 223 454 181 409 159 385 c 1
 98 464 l 1
432 239 m 1
 428 239 l 0
 408 239 386 239 364 239 c 0
 324 239 282 238 253 232 c 0
 191 219 170 183 170 154 c 0
 170 119 203 83 268 83 c 0
 332 83 381 119 399 136 c 0
 432 168 432 195 432 220 c 0
 432 239 l 1
EndSplineSet
Substitution2: "Pinyin variant forms-1" ascript
EndChar

StartChar: c
Encoding: 99 99 1
Width: 613
Flags: W
TeX: 101 0
LayerCount: 2
Fore
SplineSet
571 436 m 1
 494 346 l 1
 480 355 477 377 470 387 c 0
 464 395 425 450 344 450 c 0
 253 450 180 386 180 279 c 0
 180 168 255 95 351 95 c 0
 427 95 469 140 495 169 c 1
 564 88 l 1
 543 65 473 -13 344 -13 c 0
 182 -13 61 109 61 271 c 0
 61 433 181 553 349 553 c 0
 389 553 507 543 571 436 c 1
EndSplineSet
EndChar

StartChar: m
Encoding: 109 109 2
Width: 613
Flags: W
TeX: 112 0
LayerCount: 2
Fore
SplineSet
40 0 m 1
 40 542 l 1
 150 542 l 1
 149 516 l 1
 175 540 209 555 244 555 c 0
 288 555 325 532 344 497 c 1
 372 534 415 555 462 555 c 0
 495 555 535 543 559 508 c 1
 583 475 584 435 584 398 c 0
 584 392 584 385 584 379 c 0
 584 -1 l 1
 472 -1 l 1
 472 372 l 0
 472 382 472 392 472 402 c 0
 472 418 471 434 466 445 c 1
 458 460 448 465 437 465 c 0
 415 465 397 453 387 437 c 1
 369 407 367 401 367 374 c 0
 367 0 l 1
 256 0 l 1
 256 368 l 0
 256 376 256 384 256 392 c 0
 256 406 256 419 252 431 c 1
 245 453 229 459 216 459 c 0
 202 459 182 450 164 419 c 1
 150 395 148 376 148 353 c 0
 148 0 l 1
 40 0 l 1
EndSplineSet
EndChar

StartChar: s
Encoding: 115 115 3
Width: 613
Flags: W
TeX: 118 0
LayerCount: 2
Fore
SplineSet
543 456 m 1
 480 362 l 1
 466 366 455 376 455 386 c 0
 455 386 455 388 452 392 c 0
 433 417 384 460 314 460 c 0
 255 460 215 433 215 405 c 0
 215 394 220 374 260 356 c 0
 307 335 395 323 460 289 c 0
 529 253 548 200 548 161 c 0
 548 74 461 -12 307 -12 c 0
 263 -12 168 -12 58 86 c 1
 121 194 l 1
 131 189 138 185 142 181 c 0
 151 171 140 168 147 160 c 0
 163 142 219 90 305 90 c 0
 381 90 429 122 429 156 c 0
 429 169 424 190 384 208 c 0
 346 225 286 238 239 254 c 0
 212 263 97 298 97 399 c 0
 97 486 190 555 321 555 c 0
 355 555 455 555 543 456 c 1
EndSplineSet
EndChar

StartChar: I
Encoding: 73 73 4
Width: 613
Flags: W
TeX: 75 0
LayerCount: 2
Fore
SplineSet
99 739 m 1
 497 739 l 1
 497 639 l 1
 350 639 l 1
 350 98 l 1
 504 98 l 1
 504 -1 l 1
 91 -1 l 1
 91 99 l 1
 237 99 l 1
 237 639 l 1
 99 639 l 1
 99 739 l 1
EndSplineSet
EndChar

StartChar: o
Encoding: 111 111 5
Width: 613
Flags: W
TeX: 114 0
LayerCount: 2
Fore
SplineSet
572 269 m 0
 572 92 450 -14 312 -14 c 0
 166 -14 43 103 43 267 c 0
 43 433 167 554 315 554 c 0
 447 554 572 453 572 269 c 0
309 451 m 0
 236 451 164 391 164 274 c 0
 164 156 237 90 313 90 c 0
 382 90 455 145 455 265 c 0
 455 397 377 451 309 451 c 0
EndSplineSet
EndChar

StartChar: n
Encoding: 110 110 6
Width: 613
Flags: W
TeX: 113 0
LayerCount: 2
Fore
SplineSet
76 0 m 1
 76 542 l 1
 194 542 l 1
 194 476 l 1
 236 522 294 555 358 555 c 0
 426 555 488 519 517 456 c 0
 538 411 538 366 538 326 c 0
 538 0 l 1
 423 0 l 1
 423 320 l 0
 423 356 422 395 397 423 c 0
 381 441 358 450 335 450 c 0
 286 450 236 409 217 385 c 0
 197 360 194 340 194 307 c 0
 194 0 l 1
 76 0 l 1
EndSplineSet
EndChar

StartChar: l
Encoding: 108 108 7
Width: 613
Flags: W
TeX: 111 0
LayerCount: 2
Fore
SplineSet
95 788 m 1
 366 788 l 1
 366 99 l 1
 525 99 l 1
 525 0 l 1
 88 0 l 1
 88 99 l 1
 249 99 l 1
 249 689 l 1
 95 689 l 1
 95 788 l 1
EndSplineSet
EndChar

StartChar: t
Encoding: 116 116 8
Width: 613
Flags: W
TeX: 119 0
LayerCount: 2
Fore
SplineSet
219 685 m 1
 335 704 l 1
 343 689 343 688 343 681 c 0
 343 665 336 657 335 653 c 0
 331 630 325 571 323 543 c 1
 499 543 l 1
 499 441 l 1
 319 441 l 1
 313 380 310 321 310 261 c 0
 310 191 313 173 313 166 c 1
 322 114 356 99 389 99 c 0
 434 99 467 122 518 157 c 1
 556 60 l 1
 521 33 452 -10 365 -10 c 0
 306 -10 257 12 228 50 c 0
 193 97 194 151 194 196 c 0
 194 277 198 361 204 441 c 1
 78 441 l 1
 79 542 l 1
 209 542 l 1
 219 685 l 1
EndSplineSet
EndChar

StartChar: e
Encoding: 101 101 9
Width: 613
Flags: W
TeX: 103 0
LayerCount: 2
Fore
SplineSet
317 555 m 0
 411 555 521 506 547 360 c 1
 551 340 553 317 553 295 c 0
 553 283 553 278 550 244 c 1
 167 244 l 1
 180 116 270 87 335 87 c 0
 360 87 417 87 474 155 c 1
 543 88 l 1
 521 61 461 -12 328 -12 c 0
 174 -12 52 87 52 266 c 0
 52 461 179 555 317 555 c 0
172 340 m 1
 437 340 l 1
 437 342 437 342 437 343 c 0
 437 407 384 459 311 459 c 0
 261 459 192 433 172 340 c 1
EndSplineSet
EndChar

StartChar: b
Encoding: 98 98 11
Width: 613
Flags: W
TeX: 100 0
LayerCount: 2
Fore
SplineSet
66 790 m 1
 193 790 l 1
 197 773 201 759 186 750 c 0
 185 749 183 749 183 748 c 1
 183 489 l 1
 222 531 277 555 335 555 c 0
 451 555 568 463 568 277 c 0
 568 84 447 -13 327 -13 c 0
 266 -13 209 13 170 57 c 1
 146 0 l 1
 66 0 l 1
 66 790 l 1
305 451 m 0
 257 451 214 426 196 387 c 0
 185 363 183 332 183 287 c 0
 183 244 183 215 186 190 c 0
 199 105 270 94 304 94 c 0
 351 94 449 117 449 261 c 0
 449 430 349 451 305 451 c 0
EndSplineSet
EndChar

StartChar: H
Encoding: 72 72 12
Width: 613
Flags: W
TeX: 74 0
LayerCount: 2
Fore
SplineSet
59 739 m 1
 176 739 l 1
 182 729 184 726 184 719 c 0
 184 699 176 701 176 697 c 0
 176 438 l 1
 435 438 l 1
 435 739 l 1
 549 739 l 1
 555 731 557 728 557 720 c 0
 557 698 549 701 549 699 c 0
 549 -1 l 1
 434 -1 l 1
 434 337 l 1
 176 337 l 1
 176 0 l 1
 59 0 l 1
 59 739 l 1
EndSplineSet
EndChar

StartChar: g
Encoding: 103 103 13
Width: 613
Flags: W
TeX: 105 0
LayerCount: 2
Fore
SplineSet
175 373 m 0
 175 316 222 269 279 269 c 0
 337 269 383 316 383 373 c 0
 383 430 337 477 280 477 c 0
 222 477 175 430 175 373 c 0
285 560 m 0
 334 560 379 543 414 513 c 1
 454 542 500 557 548 557 c 0
 550 557 577 555 577 555 c 9
 592 452 l 1
 564 459 554 459 542 459 c 0
 517 459 491 453 469 443 c 1
 484 417 490 390 490 361 c 0
 490 258 396 170 280 170 c 0
 258 170 235 173 214 180 c 1
 203 170 187 153 187 140 c 0
 187 132 193 125 209 120 c 1
 220 117 244 114 283 114 c 0
 308 114 333 115 359 115 c 0
 397 115 436 113 472 99 c 0
 535 75 565 25 565 -24 c 0
 565 -107 490 -204 301 -204 c 0
 108 -204 40 -132 40 -60 c 0
 40 -17 70 22 117 54 c 1
 92 75 85 103 85 123 c 0
 85 158 106 192 137 221 c 1
 92 256 67 307 67 362 c 0
 67 472 169 560 285 560 c 0
205 28 m 1
 175 11 150 -13 150 -40 c 0
 150 -54 155 -77 193 -92 c 0
 231 -107 275 -109 299 -109 c 0
 335 -109 378 -106 413 -87 c 1
 447 -69 457 -46 457 -29 c 0
 457 -11 448 13 405 20 c 0
 391 22 372 22 353 22 c 0
 346 22 340 22 333 22 c 0
 320 22 305 22 292 23 c 0
 253 25 224 26 205 28 c 1
EndSplineSet
EndChar

StartChar: h
Encoding: 104 104 14
Width: 613
Flags: W
TeX: 106 0
LayerCount: 2
Fore
SplineSet
78 0 m 1
 78 788 l 1
 202 788 l 1
 207 776 207 776 207 770 c 0
 207 755 197 747 196 746 c 0
 196 746 196 746 196 745 c 0
 196 476 l 1
 238 522 296 555 360 555 c 0
 428 555 490 519 519 456 c 0
 540 411 540 366 540 326 c 0
 540 0 l 1
 425 0 l 1
 425 320 l 0
 425 356 424 395 399 423 c 0
 383 441 360 450 337 450 c 0
 288 450 238 409 219 385 c 0
 199 360 196 340 196 307 c 0
 196 0 l 1
 78 0 l 1
EndSplineSet
EndChar

StartChar: u
Encoding: 117 117 15
Width: 613
Flags: W
TeX: 120 0
LayerCount: 2
Fore
SplineSet
70 542 m 1
 186 542 l 1
 186 244 l 0
 186 209 187 174 204 142 c 0
 223 106 257 87 294 87 c 0
 339 87 383 116 405 154 c 0
 422 183 425 209 425 248 c 0
 425 542 l 1
 542 542 l 1
 542 61 l 2
 542 35 545 22 553 0 c 5
 429 0 l 1
 427 10 425 21 425 32 c 2
 425 51 l 1
 385 10 331 -13 274 -13 c 0
 198 -13 125 27 91 100 c 0
 68 148 69 197 69 241 c 1
 70 542 l 1
EndSplineSet
EndChar

StartChar: r
Encoding: 114 114 16
Width: 613
Flags: W
TeX: 117 0
LayerCount: 2
Fore
SplineSet
113 542 m 1
 233 542 l 1
 231 477 l 1
 277 530 343 555 409 555 c 0
 439 555 501 555 573 483 c 1
 519 373 l 1
 502 388 502 388 482 416 c 0
 469 432 444 451 404 451 c 0
 369 451 311 440 265 372 c 0
 230 320 229 291 229 261 c 0
 229 -1 l 1
 113 -1 l 1
 113 542 l 1
EndSplineSet
Substitution2: "r with serif-1" r.serif
EndChar

StartChar: i
Encoding: 105 105 17
Width: 613
Flags: W
TeX: 108 0
LayerCount: 2
Fore
SplineSet
121 543 m 1
 369 543 l 1
 369 99 l 1
 496 99 l 1
 496 0 l 1
 114 0 l 1
 114 99 l 1
 252 99 l 1
 252 442 l 1
 121 442 l 1
 121 543 l 1
312 778 m 0
 354 778 389 744 389 702 c 0
 389 660 354 626 312 626 c 0
 270 626 236 660 236 702 c 0
 236 744 270 778 312 778 c 0
EndSplineSet
EndChar

StartChar: f
Encoding: 102 102 18
Width: 613
Flags: W
TeX: 104 0
LayerCount: 2
Fore
SplineSet
418 796 m 0
 451 796 527 796 602 709 c 1
 554 612 l 1
 545 612 520 612 520 637 c 0
 520 638 520 642 519 643 c 0
 500 675 461 698 414 698 c 0
 374 698 336 681 317 646 c 1
 301 618 300 583 300 547 c 0
 300 543 300 541 300 537 c 0
 300 511 l 1
 477 511 l 1
 477 418 l 1
 300 418 l 1
 300 0 l 1
 187 0 l 1
 187 419 l 1
 70 419 l 1
 70 512 l 1
 187 512 l 1
 187 548 l 0
 187 596 189 645 219 694 c 1
 260 761 338 796 418 796 c 0
EndSplineSet
EndChar

StartChar: v
Encoding: 118 118 19
Width: 613
Flags: W
TeX: 121 0
LayerCount: 2
Fore
SplineSet
35 543 m 1
 172 543 l 1
 175 530 179 516 171 504 c 0
 171 503 172 503 172 502 c 2
 315 141 l 1
 387 308 l 2
 432 412 453 481 462 543 c 1
 571 543 l 1
 559 487 545 429 485 298 c 2
 349 -4 l 1
 262 -4 l 1
 35 543 l 1
EndSplineSet
EndChar

StartChar: d
Encoding: 100 100 20
Width: 613
Flags: W
TeX: 102 0
LayerCount: 2
Fore
SplineSet
435 497 m 1
 435 790 l 1
 556 790 l 1
 558 764 558 763 548 748 c 0
 545 743 546 745 546 740 c 0
 547 63 l 2
 547 33 551 19 556 0 c 1
 440 0 l 17
 435 12 433 23 432 40 c 10
 431 55 l 1
 392 13 337 -12 279 -12 c 0
 164 -12 48 79 48 275 c 0
 48 479 181 556 292 556 c 0
 351 556 401 533 435 497 c 1
296 456 m 0
 242 456 162 423 162 288 c 0
 162 129 247 94 299 94 c 0
 349 94 399 125 418 179 c 0
 426 202 428 229 428 266 c 0
 428 322 426 348 420 369 c 0
 401 435 339 456 296 456 c 0
EndSplineSet
EndChar

StartChar: p
Encoding: 112 112 21
Width: 613
Flags: W
TeX: 115 0
LayerCount: 2
Fore
SplineSet
66 542 m 1
 183 542 l 1
 183 488 l 1
 225 531 280 554 339 554 c 0
 455 554 574 465 574 277 c 0
 574 82 452 -14 332 -14 c 0
 276 -14 222 8 184 45 c 1
 184 -198 l 1
 67 -198 l 1
 66 542 l 1
308 451 m 0
 258 451 214 426 196 386 c 1
 185 364 183 336 183 294 c 0
 183 221 184 182 197 152 c 1
 215 113 261 92 307 92 c 0
 353 92 455 112 455 260 c 0
 455 434 349 451 308 451 c 0
EndSplineSet
EndChar

StartChar: q
Encoding: 113 113 22
Width: 613
Flags: W
TeX: 116 0
LayerCount: 2
Fore
SplineSet
438 497 m 1
 438 542 l 1
 550 542 l 1
 550 -198 l 1
 434 -198 l 1
 434 55 l 1
 396 13 342 -12 284 -12 c 0
 153 -12 45 104 45 276 c 0
 45 458 168 556 296 556 c 0
 367 556 412 525 438 497 c 1
299 456 m 0
 235 456 162 412 162 288 c 0
 162 151 236 94 302 94 c 0
 351 94 402 125 421 179 c 1
 429 202 431 229 431 265 c 0
 431 325 429 355 419 380 c 1
 398 435 342 456 299 456 c 0
EndSplineSet
EndChar

StartChar: y
Encoding: 121 121 23
Width: 613
Flags: W
TeX: 124 0
LayerCount: 2
Fore
SplineSet
42 542 m 1
 185 542 l 1
 187 515 181 501 181 501 c 0
 181 500 181 500 182 497 c 0
 326 136 l 1
 416 388 l 2
 441 461 452 505 458 543 c 1
 581 543 l 1
 563 484 550 447 520 374 c 2
 351 -52 l 0
 339 -83 328 -113 302 -142 c 0
 263 -186 207 -206 154 -206 c 0
 112 -206 59 -195 18 -148 c 1
 76 -46 l 1
 95 -61 101 -69 104 -81 c 0
 105 -85 123 -105 154 -105 c 0
 175 -105 199 -96 219 -75 c 0
 234 -59 244 -37 253 -16 c 0
 268 16 l 1
 42 542 l 1
EndSplineSet
EndChar

StartChar: period
Encoding: 46 46 24
Width: 613
Flags: W
TeX: 115 0
LayerCount: 2
Fore
SplineSet
379 39 m 0
 379 -7 340 -44 293 -44 c 0
 246 -44 208 -7 208 39 c 0
 208 85 246 123 293 123 c 0
 340 123 379 85 379 39 c 0
EndSplineSet
EndChar

StartChar: comma
Encoding: 44 44 25
Width: 613
Flags: W
TeX: 101 0
LayerCount: 2
Fore
SplineSet
388 8 m 0
 388 -65 350 -103 248 -205 c 1
 183 -157 l 1
 217 -129 232 -116 252 -87 c 0
 258 -79 268 -64 268 -52 c 0
 268 -39 258 -33 247 -27 c 0
 237 -20 207 -2 207 39 c 0
 207 83 242 122 290 122 c 0
 342 122 388 76 388 8 c 0
EndSplineSet
EndChar

StartChar: plus
Encoding: 43 43 28
Width: 613
Flags: W
TeX: 115 0
LayerCount: 2
Fore
SplineSet
258 621 m 1
 364 621 l 1
 364 433 l 1
 566 433 l 1
 566 330 l 1
 364 330 l 1
 364 108 l 1
 258 108 l 1
 258 330 l 1
 48 330 l 1
 48 433 l 1
 258 433 l 1
 258 621 l 1
EndSplineSet
EndChar

StartChar: minus
Encoding: 8722 8722 29
Width: 613
Flags: W
TeX: 106 0
LayerCount: 2
Fore
SplineSet
48 438 m 1
 566 438 l 1
 566 335 l 1
 48 335 l 1
 48 438 l 1
EndSplineSet
EndChar

StartChar: underscore
Encoding: 95 95 31
Width: 613
Flags: W
TeX: 120 0
LayerCount: 2
Fore
SplineSet
36 -23 m 1
 579 -23 l 1
 579 -126 l 1
 36 -126 l 1
 36 -23 l 1
EndSplineSet
EndChar

StartChar: less
Encoding: 60 60 32
Width: 613
Flags: W
TeX: 111 0
LayerCount: 2
Fore
SplineSet
569 566 m 1
 175 378 l 1
 572 168 l 1
 572 43 l 1
 36 342 l 1
 36 418 l 1
 569 685 l 1
 569 566 l 1
EndSplineSet
EndChar

StartChar: greater
Encoding: 62 62 33
Width: 613
Flags: W
TeX: 105 0
LayerCount: 2
Fore
SplineSet
45 566 m 1
 45 685 l 1
 579 418 l 1
 579 342 l 1
 42 43 l 1
 42 168 l 1
 440 378 l 1
 45 566 l 1
EndSplineSet
EndChar

StartChar: quotesingle
Encoding: 39 39 34
Width: 613
Flags: W
TeX: 116 0
LayerCount: 2
Fore
SplineSet
396 708 m 6
 396 595 l 1
 399 473 l 1
 268 473 l 1
 266 529 265 563 265 613 c 1
 271 625 263 635 263 663 c 2
 263 716 l 2
 263 766 304 791 335 791 c 0
 368 791 396 767 396 708 c 6
EndSplineSet
EndChar

StartChar: grave
Encoding: 96 96 35
Width: 613
Flags: W
TeX: 105 0
LayerCount: 2
Fore
SplineSet
287 361 m 2
 222 474 l 1
 159 580 l 1
 156 805 l 1
 191 755 213 719 245 670 c 1
 257 643 260 642 277 617 c 2
 311 566 l 0
 340 513 353 424 353 378 c 0
 353 324 317 309 287 361 c 2
EndSplineSet
EndChar

StartChar: slash
Encoding: 47 47 36
Width: 613
Flags: W
TeX: 118 0
LayerCount: 2
Fore
SplineSet
66 -7 m 1
 450 794 l 1
 549 746 l 1
 163 -56 l 1
 66 -7 l 1
EndSplineSet
EndChar

StartChar: backslash
Encoding: 92 92 37
Width: 613
Flags: W
TeX: 100 0
LayerCount: 2
Fore
SplineSet
549 -7 m 1
 451 -56 l 1
 66 746 l 1
 164 794 l 1
 549 -7 l 1
EndSplineSet
EndChar

StartChar: micro
Encoding: 181 181 38
Width: 613
Flags: W
TeX: 120 0
LayerCount: 2
Fore
SplineSet
23 -198 m 1
 23 -59 47 66 47 237 c 2
 47 542 l 1
 156 542 l 1
 156 226 l 2
 156 192 156 163 171 136 c 0
 190 100 224 82 255 82 c 0
 291 82 327 105 346 146 c 0
 358 172 360 199 360 233 c 2
 360 542 l 1
 467 542 l 1
 467 144 l 2
 467 126 469 106 475 97 c 0
 484 84 490 82 499 82 c 0
 538 82 563 155 563 155 c 1
 614 64 l 1
 591 26 547 -12 492 -12 c 0
 445 -12 406 18 389 57 c 1
 355 13 304 -13 249 -13 c 0
 203 -13 159 7 129 38 c 1
 129 -20 128 -105 128 -198 c 1
 23 -198 l 1
EndSplineSet
EndChar

StartChar: braceleft
Encoding: 123 123 39
Width: 613
Flags: W
TeX: 100 0
LayerCount: 2
Fore
SplineSet
57 352 m 1
 96 352 l 0
 118 352 144 352 165 373 c 0
 189 397 191 433 191 460 c 0
 191 487 188 513 188 542 c 0
 188 586 195 655 252 706 c 0
 305 753 375 756 432 756 c 8
 447 756 456 756 471 756 c 17
 510 756 l 1
 510 657 l 1
 454 657 l 0
 436 657 421 658 407 658 c 0
 379 658 360 656 342 645 c 0
 304 622 301 575 301 551 c 0
 301 526 305 500 305 471 c 0
 305 443 302 407 284 373 c 0
 270 345 248 320 221 303 c 1
 264 277 302 223 302 120 c 0
 302 82 298 49 298 20 c 0
 298 -20 305 -65 341 -90 c 0
 363 -105 389 -106 427 -106 c 8
 439 -106 447 -106 459 -106 c 17
 509 -106 l 1
 509 -204 l 1
 459 -204 l 9
 441 -204 432 -204 414 -204 c 16
 357 -204 303 -201 256 -165 c 1
 187 -112 183 -24 183 19 c 0
 183 66 188 103 188 138 c 0
 188 188 180 218 161 236 c 0
 141 255 118 255 97 255 c 0
 57 255 l 1
 57 352 l 1
EndSplineSet
EndChar

StartChar: braceright
Encoding: 125 125 40
Width: 613
Flags: W
TeX: 100 0
LayerCount: 2
Fore
SplineSet
557 352 m 1
 557 255 l 1
 517 255 l 0
 496 255 473 255 453 236 c 0
 434 218 426 188 426 138 c 0
 426 103 431 66 431 19 c 0
 431 -24 428 -112 359 -165 c 0
 313 -201 258 -204 201 -204 c 8
 184 -204 174 -204 157 -204 c 17
 105 -204 l 1
 105 -106 l 1
 158 -106 l 9
 169 -106 176 -106 187 -106 c 16
 225 -106 252 -105 274 -90 c 0
 310 -65 316 -20 316 20 c 0
 316 49 312 82 312 120 c 0
 312 224 352 278 394 303 c 1
 366 321 344 345 330 373 c 0
 312 407 309 443 309 471 c 0
 309 500 313 526 313 551 c 0
 313 575 310 622 272 645 c 0
 254 656 236 658 208 658 c 0
 194 658 179 657 161 657 c 0
 104 657 l 1
 104 756 l 1
 151 756 l 9
 163 756 170 756 182 756 c 16
 239 756 310 753 363 706 c 0
 420 655 426 586 426 542 c 0
 426 513 423 487 423 460 c 0
 423 433 425 396 449 373 c 0
 471 351 496 352 518 352 c 0
 557 352 l 1
EndSplineSet
EndChar

StartChar: asterisk
Encoding: 42 42 41
Width: 613
Flags: W
TeX: 99 0
LayerCount: 2
Fore
SplineSet
246 615 m 1
 377 615 l 1
 377 600 369 596 368 581 c 2
 352 417 l 1
 530 498 l 1
 575 394 l 1
 377 349 l 1
 522 176 l 1
 432 116 l 1
 307 296 l 1
 177 115 l 1
 88 176 l 1
 237 349 l 1
 39 394 l 1
 82 503 l 1
 264 417 l 1
 246 615 l 1
EndSplineSet
EndChar

StartChar: O
Encoding: 79 79 42
Width: 613
Flags: W
TeX: 81 0
LayerCount: 2
Fore
SplineSet
585 368 m 0
 585 305 580 214 539 134 c 0
 488 35 398 -11 312 -11 c 0
 189 -11 30 86 30 371 c 0
 30 657 192 748 311 748 c 0
 397 748 487 702 538 606 c 0
 580 526 585 435 585 368 c 0
308 639 m 0
 241 639 142 585 142 381 c 0
 142 162 240 100 312 100 c 0
 356 100 408 124 440 187 c 0
 468 244 471 313 471 358 c 0
 471 417 467 482 443 538 c 0
 411 614 354 639 308 639 c 0
EndSplineSet
EndChar

StartChar: zero
Encoding: 48 48 43
Width: 613
Flags: W
TeX: 125 0
LayerCount: 2
Fore
SplineSet
308 744 m 0
 435 744 559 603 559 357 c 0
 559 109 429 -13 310 -13 c 0
 180 -13 54 131 54 364 c 0
 54 595 177 744 308 744 c 0
406 562 m 1
 376 619 338 641 307 641 c 0
 248 641 163 550 163 363 c 0
 163 325 166 289 172 258 c 1
 406 562 l 1
443 476 m 1
 209 177 l 1
 240 119 280 93 313 93 c 0
 365 93 452 159 452 363 c 0
 452 405 448 443 443 476 c 1
EndSplineSet
Substitution2: "Old style numerals-1" zero.oldstyle
Substitution2: "Non-slashed zero-1" zero.noslash
EndChar

StartChar: one
Encoding: 49 49 44
Width: 613
Flags: W
TeX: 114 0
LayerCount: 2
Fore
SplineSet
381 740 m 1
 381 -1 l 1
 267 -1 l 1
 267 607 l 1
 125 566 l 1
 95 635 l 1
 304 740 l 1
 381 740 l 1
EndSplineSet
Substitution2: "Old style numerals-1" one.oldstyle
EndChar

StartChar: two
Encoding: 50 50 45
Width: 613
Flags: W
TeX: 119 0
LayerCount: 2
Fore
SplineSet
82 606 m 1
 106 644 170 744 309 744 c 0
 438 744 539 650 539 532 c 0
 539 423 458 346 404 298 c 0
 354 254 278 190 220 103 c 1
 503 103 l 2
 504 103 504 104 505 105 c 0
 519 119 531 115 547 109 c 1
 547 0 l 1
 82 0 l 1
 82 68 l 1
 160 198 208 258 302 338 c 0
 357 385 426 444 426 521 c 0
 426 589 371 640 300 640 c 0
 242 640 202 604 186 580 c 0
 177 566 177 554 166 539 c 1
 82 606 l 1
EndSplineSet
Substitution2: "Old style numerals-1" two.oldstyle
EndChar

StartChar: N
Encoding: 78 78 46
Width: 613
Flags: W
TeX: 80 0
LayerCount: 2
Fore
SplineSet
54 0 m 1
 54 739 l 1
 159 739 l 1
 445 234 l 1
 445 740 l 1
 562 740 l 1
 566 717 566 717 559 704 c 0
 556 698 556 700 556 695 c 0
 556 -1 l 1
 466 -1 l 1
 165 538 l 1
 165 0 l 1
 54 0 l 1
EndSplineSet
EndChar

StartChar: four
Encoding: 52 52 47
Width: 613
Flags: W
TeX: 104 0
LayerCount: 2
Fore
SplineSet
374 740 m 1
 467 740 l 1
 467 293 l 1
 562 293 l 1
 562 188 l 1
 467 188 l 1
 467 0 l 1
 350 0 l 1
 350 189 l 1
 52 189 l 1
 52 269 l 1
 374 740 l 1
351 557 m 1
 178 293 l 1
 351 293 l 1
 351 557 l 1
EndSplineSet
Substitution2: "Old style numerals-1" four.oldstyle
EndChar

StartChar: eight
Encoding: 56 56 48
Width: 613
Flags: W
TeX: 103 0
LayerCount: 2
Fore
SplineSet
317 749 m 0
 433 749 524 669 524 566 c 0
 524 499 484 434 423 395 c 1
 498 353 549 280 549 198 c 0
 549 80 443 -12 306 -12 c 0
 172 -12 66 78 66 193 c 0
 66 274 120 349 198 393 c 1
 139 432 101 492 101 559 c 0
 101 664 196 749 317 749 c 0
293 358 m 1
 229 330 182 272 182 212 c 0
 182 147 237 93 310 93 c 0
 382 93 434 145 434 207 c 0
 434 269 381 328 293 358 c 1
310 648 m 0
 253 648 212 607 212 558 c 0
 212 486 299 439 326 427 c 1
 378 457 413 506 413 553 c 0
 413 606 368 648 310 648 c 0
EndSplineSet
Substitution2: "Old style numerals-1" eight.oldstyle
EndChar

StartChar: five
Encoding: 53 53 49
Width: 613
Flags: W
TeX: 104 0
LayerCount: 2
Fore
SplineSet
122 739 m 1
 526 739 l 1
 526 634 l 1
 220 634 l 1
 211 476 l 1
 246 489 280 496 315 496 c 0
 447 496 554 402 554 241 c 0
 554 78 441 -13 305 -13 c 0
 194 -13 117 41 65 119 c 1
 160 190 l 1
 171 183 178 156 182 150 c 0
 188 141 236 90 304 90 c 0
 374 90 438 141 438 243 c 0
 438 348 371 396 302 396 c 0
 285 396 226 396 169 323 c 1
 95 353 l 1
 122 739 l 1
EndSplineSet
Substitution2: "Old style numerals-1" five.oldstyle
EndChar

StartChar: S
Encoding: 83 83 50
Width: 613
Flags: W
TeX: 85 0
LayerCount: 2
Fore
SplineSet
546 637 m 1
 480 547 l 1
 461 554 453 558 453 574 c 0
 453 576 452 578 452 578 c 1
 425 616 379 644 315 644 c 0
 237 644 197 600 197 555 c 0
 197 531 206 495 264 463 c 0
 328 427 434 407 503 345 c 0
 553 300 566 246 566 206 c 0
 566 110 493 -12 304 -12 c 0
 221 -12 127 12 53 96 c 1
 115 204 l 1
 128 197 130 191 133 184 c 0
 135 179 137 175 142 169 c 0
 172 131 230 93 306 93 c 0
 406 93 452 154 452 207 c 0
 452 234 442 266 398 292 c 0
 346 323 237 347 165 398 c 0
 99 444 81 503 81 548 c 0
 81 654 181 743 321 743 c 0
 362 743 452 743 546 637 c 1
EndSplineSet
EndChar

StartChar: M
Encoding: 77 77 51
Width: 613
Flags: W
TeX: 79 0
LayerCount: 2
Fore
SplineSet
43 739 m 1
 133 739 l 1
 307 396 l 1
 484 740 l 1
 571 740 l 1
 571 -1 l 1
 462 -1 l 1
 462 512 l 1
 327 260 l 1
 276 260 l 1
 152 505 l 1
 152 -1 l 1
 43 -1 l 1
 43 739 l 1
EndSplineSet
EndChar

StartChar: L
Encoding: 76 76 52
Width: 613
Flags: W
TeX: 78 0
LayerCount: 2
Fore
SplineSet
74 739 m 1
 199 739 l 1
 202 721 203 711 195 699 c 0
 191 692 190 694 190 686 c 0
 190 101 l 1
 547 101 l 1
 547 -1 l 1
 74 -1 l 1
 74 739 l 1
EndSplineSet
EndChar

StartChar: ampersand
Encoding: 38 38 53
Width: 613
Flags: W
TeX: 80 0
LayerCount: 2
Fore
SplineSet
282 747 m 0
 379 747 456 676 456 580 c 0
 456 504 407 430 335 386 c 1
 446 236 l 1
 465 261 477 287 484 308 c 0
 485 310 485 311 485 312 c 0
 485 313 483 318 483 326 c 0
 483 341 489 345 503 357 c 5
 601 291 l 1
 531 182 531 182 510 154 c 1
 595 48 l 1
 500 -21 l 1
 436 80 l 1
 386 26 316 -12 238 -12 c 0
 123 -12 38 72 38 181 c 0
 38 270 95 358 180 409 c 1
 139 459 103 519 103 582 c 0
 103 676 184 747 282 747 c 0
216 574 m 0
 216 549 226 513 276 447 c 1
 321 476 347 524 347 568 c 0
 347 617 314 646 280 646 c 0
 247 646 216 618 216 574 c 0
240 345 m 1
 188 306 158 248 158 197 c 0
 158 136 199 95 251 95 c 0
 305 95 356 142 376 163 c 1
 240 345 l 1
EndSplineSet
EndChar

StartChar: F
Encoding: 70 70 54
Width: 613
Flags: W
TeX: 80 0
LayerCount: 2
Fore
SplineSet
87 740 m 1
 544 740 l 1
 544 637 l 1
 202 637 l 1
 202 451 l 1
 478 451 l 1
 478 348 l 1
 202 348 l 1
 202 0 l 1
 87 0 l 1
 87 740 l 1
EndSplineSet
EndChar

StartChar: w
Encoding: 119 119 55
Width: 613
Flags: W
TeX: 122 0
LayerCount: 2
Fore
SplineSet
10 543 m 1
 127 543 l 1
 133 521 135 515 128 499 c 0
 125 491 127 490 128 486 c 2
 193 162 l 1
 273 492 l 1
 348 492 l 1
 447 162 l 1
 481 385 487 450 487 504 c 0
 487 504 486 515 486 542 c 1
 598 542 l 1
 597 537 548 177 503 -1 c 1
 399 -1 l 1
 311 308 l 1
 227 -1 l 1
 126 -1 l 1
 10 543 l 1
EndSplineSet
EndChar

StartChar: quotedbl
Encoding: 34 34 58
Width: 613
Flags: W
TeX: 116 0
LayerCount: 2
Fore
SplineSet
482 708 m 2
 482 595 l 1
 484 473 l 1
 372 473 l 1
 370 528 370 563 369 613 c 1
 375 625 368 637 368 663 c 2
 368 716 l 6
 368 763 400 791 430 791 c 0
 461 791 482 764 482 708 c 2
275 708 m 2
 275 595 l 1
 277 473 l 1
 165 473 l 1
 163 528 163 563 162 613 c 1
 168 625 161 637 161 663 c 2
 161 716 l 2
 161 763 193 791 223 791 c 0
 254 791 275 764 275 708 c 2
EndSplineSet
EndChar

StartChar: T
Encoding: 84 84 59
Width: 613
Flags: W
TeX: 86 0
LayerCount: 2
Fore
SplineSet
32 740 m 1
 574 740 l 1
 574 635 l 1
 356 635 l 1
 356 -1 l 1
 242 -1 l 1
 242 635 l 1
 32 635 l 1
 32 740 l 1
EndSplineSet
EndChar

StartChar: hyphen
Encoding: 45 45 60
Width: 613
Flags: W
TeX: 106 0
LayerCount: 2
Fore
SplineSet
79 443 m 1
 537 443 l 1
 537 334 l 1
 79 334 l 1
 79 443 l 1
EndSplineSet
EndChar

StartChar: exclam
Encoding: 33 33 61
Width: 613
Flags: W
TeX: 103 0
LayerCount: 2
Fore
SplineSet
380 72 m 0
 380 25 341 -13 294 -13 c 0
 247 -13 209 25 209 72 c 0
 209 119 247 158 294 158 c 0
 341 158 380 119 380 72 c 0
296 793 m 0
 326 793 356 772 367 730 c 0
 369 722 372 707 372 678 c 0
 372 631 364 586 361 542 c 0
 339 247 l 1
 251 247 l 1
 232 542 l 0
 228 619 221 647 221 688 c 0
 221 711 223 729 230 745 c 0
 243 776 269 793 296 793 c 0
EndSplineSet
EndChar

StartChar: U
Encoding: 85 85 63
Width: 613
Flags: W
TeX: 87 0
LayerCount: 2
Fore
SplineSet
54 739 m 1
 173 739 l 1
 179 725 179 725 179 719 c 0
 179 706 171 696 169 694 c 0
 167 691 167 692 167 688 c 0
 167 261 l 0
 167 226 168 194 183 163 c 0
 207 114 257 88 310 88 c 0
 362 88 412 113 437 162 c 0
 453 195 455 228 455 264 c 0
 455 739 l 1
 564 739 l 1
 564 263 l 0
 564 211 563 158 533 105 c 0
 488 25 399 -13 309 -13 c 0
 217 -13 129 26 85 105 c 0
 56 157 54 209 54 259 c 0
 54 739 l 1
EndSplineSet
EndChar

StartChar: numbersign
Encoding: 35 35 64
Width: 613
Flags: W
TeX: 113 0
LayerCount: 2
Fore
SplineSet
202 740 m 1
 305 744 l 1
 280 540 l 1
 380 541 l 1
 403 734 l 1
 508 738 l 1
 484 543 l 1
 592 544 l 1
 582 456 l 1
 473 455 l 1
 453 286 l 1
 570 288 l 1
 561 202 l 1
 442 200 l 1
 416 -14 l 1
 313 -19 l 1
 339 198 l 1
 239 197 l 1
 213 -14 l 1
 113 -18 l 1
 138 195 l 1
 23 193 l 1
 31 278 l 1
 148 280 l 1
 168 452 l 1
 40 450 l 1
 46 537 l 1
 179 539 l 1
 202 740 l 1
270 452 m 1
 249 282 l 1
 349 283 l 1
 370 453 l 1
 270 452 l 1
EndSplineSet
EndChar

StartChar: j
Encoding: 106 106 65
Width: 613
Flags: W
TeX: 109 0
LayerCount: 2
Fore
SplineSet
144 543 m 1
 463 543 l 1
 463 47 l 0
 463 2 462 -43 437 -90 c 0
 397 -168 315 -207 233 -207 c 0
 129 -207 80 -152 48 -116 c 1
 120 -20 l 1
 146 -40 138 -45 146 -56 c 0
 149 -60 181 -102 239 -102 c 0
 279 -102 316 -81 334 -43 c 0
 346 -19 346 5 346 32 c 0
 346 441 l 1
 144 441 l 1
 144 543 l 1
406 778 m 0
 448 778 482 744 482 702 c 0
 482 660 447 626 405 626 c 0
 363 626 329 660 329 702 c 0
 329 744 364 778 406 778 c 0
EndSplineSet
EndChar

StartChar: x
Encoding: 120 120 66
Width: 613
Flags: W
TeX: 123 0
LayerCount: 2
Fore
SplineSet
432 543 m 1
 556 543 l 1
 370 279 l 1
 581 0 l 1
 446 0 l 1
 305 199 l 1
 171 0 l 1
 37 0 l 1
 238 275 l 1
 40 543 l 1
 171 543 l 1
 305 354 l 1
 432 543 l 1
EndSplineSet
EndChar

StartChar: G
Encoding: 71 71 67
Width: 613
Flags: W
TeX: 73 0
LayerCount: 2
Fore
SplineSet
339 747 m 0
 379 747 488 747 573 605 c 1
 498 528 l 1
 478 541 478 541 466 565 c 0
 446 609 399 643 339 643 c 0
 282 643 222 614 186 551 c 0
 159 503 151 442 151 378 c 0
 151 305 160 211 217 149 c 0
 254 109 302 92 346 92 c 0
 384 92 428 105 464 127 c 1
 464 267 l 1
 330 267 l 1
 330 370 l 1
 571 370 l 1
 571 70 l 1
 545 48 452 -11 339 -11 c 0
 201 -11 38 85 38 361 c 0
 38 681 234 747 339 747 c 0
EndSplineSet
EndChar

StartChar: k
Encoding: 107 107 68
Width: 613
Flags: W
TeX: 110 0
LayerCount: 2
Fore
SplineSet
74 788 m 1
 199 788 l 1
 203 770 204 770 192 747 c 0
 190 743 190 743 190 742 c 2
 190 313 l 1
 442 546 l 1
 464 541 478 539 510 539 c 2
 579 539 l 1
 333 319 l 1
 611 -1 l 9
 595 -1 586 -1 570 -1 c 16
 541 -1 490 -2 461 -6 c 1
 245 264 l 1
 190 213 l 1
 190 -1 l 1
 74 -1 l 1
 74 788 l 1
EndSplineSet
EndChar

StartChar: z
Encoding: 122 122 69
Width: 613
Flags: W
TeX: 125 0
LayerCount: 2
Fore
SplineSet
79 543 m 1
 531 543 l 1
 531 469 l 1
 217 103 l 1
 508 103 l 0
 516 103 520 111 540 111 c 4
 540 111 552 110 559 109 c 5
 559 -1 l 1
 54 -1 l 1
 54 73 l 1
 373 437 l 1
 79 437 l 1
 79 543 l 1
EndSplineSet
EndChar

StartChar: dollar
Encoding: 36 36 70
Width: 613
Flags: W
TeX: 102 0
LayerCount: 2
Fore
SplineSet
273 772 m 1
 376 772 l 1
 381 761 382 759 382 753 c 0
 382 738 374 735 374 733 c 2
 374 702 l 1
 410 697 479 687 554 602 c 1
 489 523 l 1
 476 526 463 528 462 546 c 0
 462 549 462 550 462 551 c 1
 460 553 460 554 459 555 c 0
 440 578 412 595 374 604 c 1
 374 412 l 1
 399 404 421 396 443 387 c 0
 468 377 571 335 571 220 c 0
 571 133 505 41 374 19 c 1
 374 -55 l 1
 273 -55 l 1
 273 16 l 1
 229 20 152 28 61 119 c 1
 127 207 l 1
 143 200 152 197 150 180 c 8
 150 178 150 178 153 175 c 0
 181 146 223 121 273 112 c 1
 273 336 l 1
 254 342 236 349 217 358 c 0
 112 406 89 476 89 523 c 0
 89 612 167 683 273 701 c 1
 273 772 l 1
374 303 m 1
 374 108 l 1
 433 126 463 169 463 210 c 0
 463 230 456 263 412 287 c 0
 402 293 389 298 374 303 c 1
273 451 m 1
 273 615 l 1
 217 602 198 569 198 539 c 0
 198 519 207 489 255 461 c 0
 260 458 268 453 273 451 c 1
EndSplineSet
EndChar

StartChar: A
Encoding: 65 65 71
Width: 613
Flags: W
TeX: 67 0
LayerCount: 2
Fore
SplineSet
6 -1 m 1
 278 753 l 1
 309 753 l 1
 606 0 l 1
 487 0 l 1
 405 201 l 1
 192 201 l 1
 121 -1 l 1
 6 -1 l 1
375 296 m 1
 294 516 l 1
 219 296 l 1
 375 296 l 1
EndSplineSet
EndChar

StartChar: C
Encoding: 67 67 72
Width: 613
Flags: W
TeX: 69 0
LayerCount: 2
Fore
SplineSet
340 745 m 0
 398 745 522 726 586 576 c 1
 486 527 l 1
 473 536 467 541 467 556 c 0
 467 561 467 564 467 565 c 0
 467 567 467 566 465 570 c 0
 438 617 389 648 337 648 c 0
 245 648 155 556 155 373 c 0
 155 187 248 90 344 90 c 0
 424 90 464 148 490 186 c 1
 577 130 l 1
 513 26 428 -12 339 -12 c 0
 208 -12 43 84 43 365 c 0
 43 656 217 745 340 745 c 0
EndSplineSet
EndChar

StartChar: B
Encoding: 66 66 73
Width: 613
Flags: W
TeX: 68 0
LayerCount: 2
Fore
SplineSet
52 739 m 1
 278 739 l 0
 323 739 372 739 422 718 c 0
 497 687 539 621 539 551 c 0
 539 488 504 430 450 397 c 1
 522 361 567 289 567 211 c 0
 567 132 520 58 435 23 c 1
 379 0 327 0 276 0 c 0
 52 0 l 1
 52 739 l 1
165 638 m 1
 165 449 l 1
 265 449 l 0
 298 449 331 449 361 461 c 0
 402 478 424 510 424 543 c 0
 424 576 403 611 359 627 c 0
 330 638 298 638 266 638 c 0
 165 638 l 1
165 348 m 1
 165 103 l 1
 291 103 l 0
 323 103 351 104 380 116 c 0
 425 135 450 176 450 221 c 0
 450 266 424 310 375 332 c 0
 342 347 307 348 270 348 c 0
 165 348 l 1
EndSplineSet
EndChar

StartChar: bracketleft
Encoding: 91 91 74
Width: 613
Flags: W
TeX: 100 0
LayerCount: 2
Fore
SplineSet
151 795 m 1
 520 795 l 1
 520 693 l 1
 257 693 l 1
 257 -7 l 1
 521 -7 l 1
 521 -105 l 1
 151 -105 l 1
 151 795 l 1
EndSplineSet
EndChar

StartChar: bracketright
Encoding: 93 93 75
Width: 613
Flags: W
TeX: 100 0
LayerCount: 2
Fore
SplineSet
464 795 m 1
 464 -105 l 1
 93 -105 l 1
 93 -7 l 1
 357 -7 l 1
 357 693 l 1
 94 693 l 1
 94 795 l 1
 464 795 l 1
EndSplineSet
EndChar

StartChar: parenleft
Encoding: 40 40 76
Width: 613
Flags: W
TeX: 115 0
LayerCount: 2
Fore
SplineSet
482 795 m 1
 531 699 l 1
 513 689 512 688 501 688 c 0
 493 688 490 689 489 689 c 0
 489 689 488 689 486 688 c 0
 352 612 273 470 273 310 c 0
 273 168 339 -18 536 -124 c 1
 482 -210 l 1
 334 -130 159 24 159 306 c 0
 159 468 219 674 482 795 c 1
EndSplineSet
EndChar

StartChar: parenright
Encoding: 41 41 77
Width: 613
Flags: W
TeX: 115 0
LayerCount: 2
Fore
SplineSet
84 696 m 1
 115 795 l 1
 356 683 458 487 458 297 c 0
 458 129 388 -73 109 -213 c 1
 78 -115 l 1
 290 0 343 160 343 294 c 0
 343 416 296 580 84 696 c 1
EndSplineSet
EndChar

StartChar: three
Encoding: 51 51 78
Width: 613
Flags: W
TeX: 119 0
LayerCount: 2
Fore
SplineSet
513 547 m 0
 513 483 477 424 423 393 c 1
 489 357 529 288 529 210 c 0
 529 92 436 -12 286 -12 c 0
 251 -12 161 -12 72 87 c 5
 154 185 l 1
 198 141 169 153 181 138 c 0
 185 133 224 93 286 93 c 0
 364 93 419 152 419 221 c 0
 419 294 356 339 261 339 c 0
 251 339 229 336 208 334 c 17
 208 428 l 1
 263 428 312 435 334 445 c 0
 379 464 404 505 404 542 c 0
 404 593 359 637 290 637 c 0
 222 637 182 594 163 573 c 1
 96 647 l 1
 125 682 189 742 294 742 c 0
 419 742 513 653 513 547 c 0
EndSplineSet
Substitution2: "Old style numerals-1" three.oldstyle
EndChar

StartChar: D
Encoding: 68 68 79
Width: 613
Flags: W
TeX: 70 0
LayerCount: 2
Fore
SplineSet
58 739 m 1
 247 739 l 0
 313 739 370 735 427 699 c 0
 529 636 572 510 572 371 c 0
 572 213 512 85 399 29 c 0
 344 2 291 -1 232 -1 c 0
 58 -1 l 1
 58 739 l 1
168 638 m 1
 168 95 l 1
 228 95 l 0
 274 95 316 97 358 124 c 0
 412 158 457 230 457 360 c 0
 457 459 434 554 371 603 c 0
 329 636 288 638 242 638 c 0
 168 638 l 1
EndSplineSet
EndChar

StartChar: E
Encoding: 69 69 80
Width: 613
Flags: W
TeX: 71 0
LayerCount: 2
Fore
SplineSet
65 740 m 1
 549 740 l 1
 549 636 l 1
 174 636 l 1
 174 439 l 1
 483 439 l 1
 483 333 l 1
 174 333 l 1
 174 104 l 1
 546 104 l 1
 546 0 l 1
 65 0 l 1
 65 740 l 1
EndSplineSet
EndChar

StartChar: V
Encoding: 86 86 81
Width: 613
Flags: W
TeX: 88 0
LayerCount: 2
Fore
SplineSet
19 740 m 1
 138 740 l 1
 316 206 l 1
 484 739 l 1
 599 739 l 1
 341 -5 l 1
 281 -5 l 1
 19 740 l 1
EndSplineSet
EndChar

StartChar: percent
Encoding: 37 37 82
Width: 613
Flags: W
TeX: 115 0
LayerCount: 2
Fore
SplineSet
465 739 m 1
 580 739 l 1
 149 0 l 1
 38 0 l 1
 465 739 l 1
176 753 m 0
 258 753 325 682 325 589 c 0
 325 498 259 427 177 427 c 0
 94 427 29 499 29 590 c 0
 29 684 95 753 176 753 c 0
174 659 m 0
 160 659 131 651 131 593 c 0
 131 526 164 521 176 521 c 0
 190 521 219 530 219 586 c 0
 219 656 185 659 174 659 c 0
598 150 m 0
 598 59 532 -12 450 -12 c 0
 368 -12 302 58 302 149 c 0
 302 240 368 311 450 311 c 0
 532 311 598 241 598 150 c 0
450 219 m 0
 434 219 403 209 403 149 c 0
 403 91 433 79 451 79 c 0
 467 79 497 88 497 147 c 0
 497 210 465 219 450 219 c 0
EndSplineSet
EndChar

StartChar: J
Encoding: 74 74 83
Width: 613
Flags: W
TeX: 76 0
LayerCount: 2
Fore
SplineSet
199 739 m 1
 567 739 l 1
 567 639 l 1
 454 639 l 1
 454 251 l 0
 454 200 454 143 423 88 c 1
 385 22 317 -13 241 -13 c 0
 185 -13 112 6 49 84 c 1
 122 173 l 1
 137 161 136 147 144 139 c 0
 153 130 193 91 243 91 c 0
 273 91 300 105 317 129 c 1
 338 159 340 197 341 235 c 0
 341 244 l 0
 341 639 l 1
 199 639 l 1
 199 739 l 1
EndSplineSet
EndChar

StartChar: K
Encoding: 75 75 84
Width: 613
Flags: W
TeX: 77 0
LayerCount: 2
Fore
SplineSet
45 740 m 1
 173 740 l 1
 176 719 177 716 169 704 c 0
 164 696 164 696 164 694 c 2
 164 423 l 1
 452 747 l 1
 481 740 488 739 519 739 c 2
 584 739 l 1
 290 417 l 1
 599 -1 l 1
 515 -1 484 -3 456 -6 c 1
 205 360 l 1
 164 316 l 1
 164 0 l 1
 45 0 l 1
 45 740 l 1
EndSplineSet
EndChar

StartChar: P
Encoding: 80 80 85
Width: 613
Flags: W
TeX: 82 0
LayerCount: 2
Fore
SplineSet
181 631 m 1
 180 415 l 1
 314 415 l 0
 342 415 369 416 394 428 c 0
 431 445 451 480 451 520 c 0
 451 560 429 599 389 617 c 1
 362 630 336 631 305 631 c 0
 181 631 l 1
65 739 m 1
 305 739 l 0
 353 739 402 738 453 713 c 1
 528 676 566 601 566 524 c 0
 566 447 528 373 453 336 c 1
 404 312 357 311 311 311 c 0
 181 311 l 1
 181 0 l 1
 65 0 l 1
 65 739 l 1
EndSplineSet
EndChar

StartChar: question
Encoding: 63 63 86
Width: 613
Flags: W
TeX: 116 0
LayerCount: 2
Fore
SplineSet
406 68 m 0
 406 22 367 -15 320 -15 c 0
 273 -15 234 22 234 68 c 0
 234 114 273 152 320 152 c 0
 367 152 406 114 406 68 c 0
66 648 m 1
 101 703 178 790 315 790 c 0
 458 790 541 683 541 565 c 0
 541 445 455 395 418 362 c 0
 373 322 372 294 372 253 c 0
 372 242 l 1
 263 242 l 1
 263 253 l 0
 263 307 268 355 323 416 c 0
 361 458 416 502 416 571 c 0
 416 633 369 681 307 681 c 0
 219 681 170 603 150 570 c 1
 66 648 l 1
EndSplineSet
EndChar

StartChar: at
Encoding: 64 64 87
Width: 613
Flags: W
TeX: 99 0
LayerCount: 2
Fore
SplineSet
547 46 m 1
 495 11 436 -13 360 -13 c 16
 203 -13 32 101 32 373 c 0
 32 638 194 751 332 751 c 0
 424 751 510 701 550 614 c 0
 577 555 578 497 578 442 c 0
 578 192 l 1
 475 192 l 1
 475 216 l 1
 445 194 410 182 372 182 c 0
 278 182 203 258 203 352 c 0
 203 422 246 491 325 523 c 0
 374 542 421 543 465 543 c 2
 471 543 l 1
 463 608 404 656 329 656 c 0
 238 656 131 574 131 376 c 0
 131 163 261 85 367 85 c 0
 394 85 436 85 500 131 c 1
 547 46 l 1
475 453 m 1
 468 453 l 2
 429 453 383 452 348 428 c 0
 320 408 307 380 307 355 c 0
 307 313 342 279 386 279 c 0
 414 279 443 294 459 324 c 1
 473 352 475 389 475 431 c 1
 475 433 475 435 475 438 c 2
 475 453 l 1
EndSplineSet
EndChar

StartChar: bar
Encoding: 124 124 88
Width: 613
Flags: W
TeX: 100 0
LayerCount: 2
Fore
SplineSet
252 774 m 1
 362 774 l 1
 362 -210 l 1
 252 -210 l 1
 252 774 l 1
EndSplineSet
EndChar

StartChar: asciitilde
Encoding: 126 126 89
Width: 613
Flags: W
TeX: 99 0
LayerCount: 2
Fore
SplineSet
124 399 m 1
 39 455 l 1
 67 507 143 551 222 551 c 0
 330 551 366 493 419 493 c 0
 447 493 493 510 517 545 c 1
 595 512 l 1
 573 479 510 384 410 384 c 4
 302 384 274 448 217 448 c 8
 176 448 144 434 124 399 c 1
EndSplineSet
EndChar

StartChar: asciicircum
Encoding: 94 94 90
Width: 613
Flags: W
TeX: 99 0
LayerCount: 2
Fore
SplineSet
99 444 m 1
 293 739 l 1
 337 739 l 1
 510 445 l 1
 418 402 l 1
 309 599 l 1
 186 402 l 1
 99 444 l 1
EndSplineSet
EndChar

StartChar: cent
Encoding: 162 162 91
Width: 613
Flags: W
TeX: 101 0
LayerCount: 2
Fore
SplineSet
335 742 m 1
 442 731 l 1
 445 707 440 700 437 695 c 0
 435 691 434 688 433 684 c 2
 422 603 l 1
 475 589 533 558 565 502 c 1
 497 418 l 1
 479 429 473 435 473 449 c 0
 473 454 474 455 472 458 c 16
 461 471 437 490 408 502 c 1
 358 138 l 1
 358 138 l 1
 412 145 453 160 498 209 c 1
 560 130 l 1
 501 70 428 35 348 34 c 0
 347 34 345 34 344 34 c 1
 327 -95 l 1
 228 -83 l 1
 245 49 l 1
 128 86 52 191 52 324 c 0
 52 481 159 598 318 611 c 1
 335 742 l 1
259 151 m 1
 305 521 l 1
 225 508 167 443 167 334 c 0
 167 245 204 182 259 151 c 1
EndSplineSet
EndChar

StartChar: euro
Encoding: 8364 8364 92
Width: 613
Flags: W
TeX: 80 0
LayerCount: 2
Fore
SplineSet
579 669 m 1
 538 559 l 1
 512 581 523 585 509 599 c 0
 506 602 466 646 396 646 c 0
 331 646 252 614 219 510 c 0
 219 509 218 508 218 507 c 1
 514 507 l 1
 477 408 l 1
 203 408 l 1
 202 391 201 373 201 353 c 0
 201 350 201 345 201 343 c 1
 453 343 l 1
 414 244 l 1
 212 244 l 1
 221 208 234 180 254 156 c 0
 293 108 347 89 398 89 c 0
 468 89 504 122 529 146 c 1
 579 59 l 1
 540 28 489 -13 393 -13 c 0
 293 -13 142 40 105 244 c 1
 30 244 l 1
 52 343 l 1
 97 343 l 1
 97 345 97 346 97 347 c 0
 97 367 98 388 99 408 c 1
 30 408 l 1
 52 507 l 1
 113 507 l 1
 122 544 135 578 154 609 c 0
 218 714 323 745 401 745 c 0
 432 745 503 745 579 669 c 1
EndSplineSet
EndChar

StartChar: sterling
Encoding: 163 163 93
Width: 613
Flags: W
TeX: 118 0
LayerCount: 2
Fore
SplineSet
527 665 m 1
 456 577 l 1
 419 608 439 599 426 612 c 0
 423 615 394 641 350 641 c 0
 295 641 238 604 238 520 c 0
 238 502 241 483 245 464 c 1
 366 464 l 1
 366 366 l 1
 268 366 l 1
 275 334 280 305 280 271 c 0
 280 223 269 177 249 137 c 1
 252 137 251 137 253 137 c 0
 339 137 389 91 449 91 c 0
 496 91 521 115 541 133 c 1
 588 43 l 1
 563 23 512 -18 445 -18 c 0
 361 -18 312 35 233 35 c 0
 200 35 145 21 80 -15 c 1
 36 78 l 1
 101 106 117 115 132 136 c 0
 157 173 170 218 170 267 c 0
 170 300 164 335 156 366 c 1
 75 366 l 1
 75 464 l 1
 133 464 l 1
 130 483 128 501 128 521 c 0
 128 655 234 739 352 739 c 0
 385 739 446 739 527 665 c 1
EndSplineSet
EndChar

StartChar: Y
Encoding: 89 89 94
Width: 613
Flags: W
TeX: 91 0
LayerCount: 2
Fore
SplineSet
19 740 m 1
 148 740 l 1
 319 401 l 1
 473 739 l 1
 596 739 l 1
 377 292 l 1
 377 0 l 1
 256 0 l 1
 256 291 l 1
 19 740 l 1
EndSplineSet
EndChar

StartChar: yen
Encoding: 165 165 95
Width: 613
Flags: W
TeX: 124 0
LayerCount: 2
Fore
SplineSet
27 740 m 1
 154 740 l 1
 317 448 l 1
 466 739 l 1
 589 739 l 1
 372 346 l 1
 372 341 l 1
 531 341 l 1
 531 243 l 1
 372 243 l 1
 372 199 l 1
 531 199 l 1
 531 101 l 1
 372 101 l 1
 372 0 l 1
 260 0 l 1
 260 101 l 1
 94 101 l 1
 94 199 l 1
 260 199 l 1
 260 243 l 1
 94 243 l 1
 94 341 l 1
 260 341 l 1
 260 346 l 1
 27 740 l 1
EndSplineSet
EndChar

StartChar: Z
Encoding: 90 90 96
Width: 613
Flags: W
TeX: 92 0
LayerCount: 2
Fore
SplineSet
69 739 m 1
 556 739 l 1
 555 665 l 1
 201 103 l 1
 523 103 l 0
 531 103 536 111 555 111 c 8
 562 111 567 111 574 111 c 17
 574 -1 l 1
 54 -1 l 1
 54 73 l 1
 415 634 l 1
 69 634 l 1
 69 739 l 1
EndSplineSet
EndChar

StartChar: Q
Encoding: 81 81 97
Width: 613
Flags: W
TeX: 83 0
LayerCount: 2
Fore
SplineSet
307 641 m 0
 238 641 141 583 141 382 c 0
 141 163 238 96 312 96 c 0
 365 96 474 130 474 357 c 0
 474 416 470 482 446 539 c 1
 412 616 353 641 307 641 c 0
585 367 m 0
 585 303 580 213 539 134 c 0
 499 56 434 11 367 -5 c 1
 370 -39 381 -67 438 -67 c 0
 473 -67 498 -60 550 -60 c 1
 547 -172 l 1
 547 -172 523 -172 508 -172 c 24
 491 -172 482 -172 465 -172 c 16
 417 -172 378 -170 342 -152 c 1
 287 -125 266 -74 263 -14 c 0
 263 -11 263 -9 263 -6 c 1
 149 17 30 123 30 371 c 0
 30 657 191 748 311 748 c 0
 398 748 488 701 539 604 c 1
 580 525 585 435 585 367 c 0
EndSplineSet
EndChar

StartChar: thorn
Encoding: 254 254 98
Width: 613
Flags: W
TeX: 119 0
LayerCount: 2
Fore
SplineSet
67 788 m 1
 191 788 l 1
 191 780 l 2
 191 750 183 762 183 734 c 2
 183 488 l 1
 225 531 280 554 339 554 c 0
 455 554 574 465 574 277 c 0
 574 82 452 -14 332 -14 c 0
 276 -14 222 8 184 45 c 1
 184 -198 l 1
 67 -198 l 1
 67 788 l 1
308 451 m 0
 258 451 215 426 196 386 c 0
 185 364 183 336 183 294 c 0
 183 221 184 182 197 152 c 1
 215 113 261 92 307 92 c 0
 353 92 455 112 455 260 c 0
 455 434 349 451 308 451 c 0
EndSplineSet
EndChar

StartChar: plusminus
Encoding: 177 177 100
Width: 613
Flags: W
TeX: 115 0
LayerCount: 2
Fore
SplineSet
49 111 m 1
 568 111 l 1
 568 5 l 1
 49 5 l 1
 49 111 l 1
EndSplineSet
Refer: 28 43 N 1 0 0 1 0 61 2
EndChar

StartChar: R
Encoding: 82 82 101
Width: 613
Flags: W
TeX: 84 0
LayerCount: 2
Fore
SplineSet
61 739 m 1
 295 739 l 0
 343 739 393 739 443 714 c 0
 517 678 556 606 556 530 c 0
 556 436 498 354 412 323 c 1
 586 0 l 1
 458 0 l 1
 295 311 l 1
 176 311 l 1
 176 0 l 1
 61 0 l 1
 61 739 l 1
176 631 m 1
 176 415 l 1
 304 415 l 0
 333 415 358 415 383 427 c 0
 420 444 440 481 440 520 c 0
 440 560 419 598 379 617 c 0
 352 629 326 631 295 631 c 0
 176 631 l 1
EndSplineSet
EndChar

StartChar: X
Encoding: 88 88 102
Width: 613
Flags: W
TeX: 90 0
LayerCount: 2
Fore
SplineSet
451 740 m 1
 568 740 l 1
 373 379 l 1
 591 0 l 1
 463 0 l 1
 308 277 l 1
 159 0 l 1
 33 0 l 1
 243 377 l 1
 37 740 l 1
 161 740 l 1
 307 476 l 1
 451 740 l 1
EndSplineSet
EndChar

StartChar: six
Encoding: 54 54 103
Width: 613
Flags: W
TeX: 118 0
LayerCount: 2
Fore
SplineSet
351 748 m 0
 379 748 451 748 534 665 c 1
 458 581 l 1
 441 593 438 606 427 617 c 0
 424 620 395 643 351 643 c 0
 308 643 207 623 190 436 c 1
 226 472 276 493 329 493 c 0
 443 493 547 399 547 243 c 0
 547 88 443 -12 321 -12 c 0
 250 -12 179 22 133 89 c 0
 83 162 75 254 75 338 c 0
 75 407 80 491 107 562 c 0
 155 691 256 748 351 748 c 0
321 389 m 0
 275 389 223 357 191 305 c 1
 190 297 190 291 190 283 c 0
 190 169 253 92 324 92 c 0
 377 92 435 135 435 238 c 0
 435 353 371 389 321 389 c 0
EndSplineSet
Substitution2: "Old style numerals-1" six.oldstyle
EndChar

StartChar: nine
Encoding: 57 57 104
Width: 613
Flags: W
TeX: 113 0
LayerCount: 2
Fore
SplineSet
268 -12 m 0
 173 -12 122 35 83 70 c 1
 159 154 l 1
 173 145 181 125 191 118 c 0
 195 115 225 94 270 94 c 0
 318 94 374 116 403 178 c 1
 409 192 423 228 429 305 c 1
 392 271 345 253 294 253 c 0
 177 253 76 349 76 494 c 0
 76 640 177 746 303 746 c 0
 386 746 477 697 518 582 c 1
 536 532 545 468 545 378 c 0
 545 260 525 197 512 163 c 1
 465 44 365 -12 268 -12 c 0
302 356 m 0
 348 356 397 385 427 432 c 1
 428 444 429 452 429 461 c 0
 429 578 366 642 301 642 c 0
 244 642 187 594 187 497 c 0
 187 399 246 356 302 356 c 0
EndSplineSet
Substitution2: "Old style numerals-1" nine.oldstyle
EndChar

StartChar: seven
Encoding: 55 55 105
Width: 613
Flags: W
TeX: 118 0
LayerCount: 2
Fore
SplineSet
88 739 m 1
 538 739 l 1
 538 677 l 9
 483 546 447 474 396 342 c 24
 345 210 323 133 276 0 c 17
 150 0 l 9
 208 155 235 244 298 397 c 16
 330 475 363 554 397 630 c 1
 88 630 l 1
 88 739 l 1
EndSplineSet
Substitution2: "Old style numerals-1" seven.oldstyle
EndChar

StartChar: W
Encoding: 87 87 106
Width: 613
Flags: W
TeX: 89 0
LayerCount: 2
Fore
SplineSet
13 739 m 1
 121 739 l 1
 191 298 l 1
 294 685 l 1
 344 685 l 1
 447 300 l 1
 506 739 l 1
 607 739 l 1
 485 -5 l 1
 427 -5 l 1
 312 438 l 1
 195 -5 l 1
 136 -5 l 1
 13 739 l 1
EndSplineSet
EndChar

StartChar: acute
Encoding: 180 180 107
Width: 613
Flags: W
TeX: 80 0
LayerCount: 2
Fore
SplineSet
351 836 m 1
 453 768 l 1
 315 584 l 1
 231 635 l 1
 351 836 l 1
EndSplineSet
EndChar

StartChar: oslash
Encoding: 248 248 123
Width: 613
Flags: W
TeX: 114 0
LayerCount: 2
Fore
SplineSet
309 451 m 0
 236 451 164 386 164 259 c 0
 164 214 174 176 188 147 c 1
 349 444 l 1
 335 449 323 451 309 451 c 0
572 269 m 0
 572 91 450 -14 312 -14 c 0
 276 -14 239 -6 209 7 c 1
 161 -81 l 1
 72 -35 l 1
 127 60 l 1
 75 111 43 182 43 266 c 0
 43 432 167 554 315 554 c 0
 344 554 374 548 401 538 c 1
 445 621 l 1
 536 573 l 1
 487 487 l 1
 539 438 572 365 572 269 c 0
427 405 m 1
 261 102 l 1
 279 94 295 90 313 90 c 0
 382 90 455 150 455 280 c 0
 455 333 443 374 427 405 c 1
EndSplineSet
EndChar

StartChar: gravemodifier
Encoding: 715 715 130
Width: 613
Flags: W
TeX: 80 0
LayerCount: 2
Fore
SplineSet
304 836 m 1
 425 635 l 1
 340 584 l 1
 202 768 l 1
 304 836 l 1
EndSplineSet
EndChar

StartChar: dotlessi
Encoding: 305 305 136
Width: 613
Flags: W
TeX: 80 0
LayerCount: 2
Fore
SplineSet
121 543 m 1
 369 543 l 1
 369 99 l 1
 496 99 l 1
 496 0 l 1
 114 0 l 1
 114 99 l 1
 252 99 l 1
 252 442 l 1
 121 442 l 1
 121 543 l 1
EndSplineSet
EndChar

StartChar: circumflex
Encoding: 710 710 137
Width: 613
Flags: W
TeX: 80 0
LayerCount: 2
Fore
SplineSet
148 629 m 1
 294 813 l 1
 334 813 l 1
 480 627 l 1
 399 567 l 1
 310 686 l 1
 216 567 l 1
 148 629 l 1
EndSplineSet
EndChar

StartChar: tilde
Encoding: 732 732 138
Width: 613
Flags: W
TeX: 80 0
LayerCount: 2
Fore
SplineSet
175 655 m 1
 97 711 l 1
 116 740 174 802 252 802 c 0
 308 802 343 776 358 766 c 0
 378 753 392 744 406 744 c 0
 429 744 457 762 474 785 c 1
 539 745 l 1
 495 690 459 645 402 645 c 0
 320 645 285 704 249 704 c 0
 231 704 198 691 175 655 c 1
EndSplineSet
EndChar

StartChar: dieresis
Encoding: 168 168 139
Width: 613
Flags: W
TeX: 80 0
LayerCount: 2
Fore
SplineSet
268 712 m 0
 268 670 233 636 191 636 c 0
 149 636 115 670 115 712 c 0
 115 754 149 788 191 788 c 0
 233 788 268 754 268 712 c 0
499 712 m 0
 499 670 465 636 423 636 c 0
 381 636 347 670 347 712 c 0
 347 754 381 789 423 789 c 0
 465 789 499 754 499 712 c 0
EndSplineSet
EndChar

StartChar: germandbls
Encoding: 223 223 144
Width: 613
Flags: W
TeX: 105 0
LayerCount: 2
Fore
SplineSet
60 0 m 1
 60 494 l 0
 60 546 61 600 87 656 c 0
 126 744 207 794 294 794 c 0
 421 794 525 691 525 569 c 0
 525 509 496 456 449 422 c 1
 529 385 577 307 577 218 c 0
 577 88 473 -12 343 -12 c 0
 275 -12 239 10 199 35 c 1
 258 129 l 1
 292 105 307 94 342 94 c 0
 408 94 467 149 467 222 c 0
 467 275 436 321 396 345 c 0
 366 363 338 366 300 366 c 0
 249 366 l 1
 249 458 l 1
 298 458 l 0
 316 458 329 458 346 465 c 0
 384 481 413 525 413 572 c 0
 413 642 360 694 299 694 c 0
 265 694 229 678 204 642 c 0
 174 600 172 545 172 495 c 0
 172 0 l 1
 60 0 l 1
EndSplineSet
EndChar

StartChar: paragraph
Encoding: 182 182 145
Width: 613
Flags: W
TeX: 115 0
LayerCount: 2
Fore
SplineSet
553 790 m 1
 553 -81 l 1
 454 -81 l 1
 454 691 l 1
 374 691 l 1
 374 -81 l 1
 272 -81 l 1
 272 367 l 1
 151 381 60 472 60 580 c 0
 60 656 107 728 191 763 c 0
 252 789 314 790 369 790 c 0
 553 790 l 1
EndSplineSet
EndChar

StartChar: section
Encoding: 167 167 146
Width: 613
Flags: W
TeX: 118 0
LayerCount: 2
Fore
SplineSet
519 674 m 1
 434 598 l 1
 411 611 413 625 409 637 c 0
 401 659 371 696 316 696 c 0
 260 696 223 661 223 623 c 0
 223 605 231 576 278 552 c 0
 309 536 354 526 404 503 c 0
 490 463 521 409 521 361 c 0
 521 313 490 273 447 248 c 1
 490 212 510 164 510 118 c 0
 510 20 420 -65 293 -65 c 0
 215 -65 140 -38 67 53 c 1
 145 143 l 1
 158 138 168 126 174 110 c 16
 177 102 214 45 293 45 c 0
 359 45 394 83 394 120 c 0
 394 141 383 167 347 188 c 0
 302 213 235 218 172 254 c 0
 116 286 89 332 89 377 c 0
 89 428 123 471 170 495 c 1
 125 531 106 577 106 620 c 0
 106 716 197 797 315 797 c 0
 348 797 445 797 519 674 c 1
244 456 m 1
 221 446 206 425 206 399 c 0
 206 378 216 347 261 325 c 0
 292 310 331 304 373 288 c 1
 391 300 402 319 402 342 c 0
 402 364 392 396 342 421 c 0
 315 434 280 442 244 456 c 1
EndSplineSet
EndChar

StartChar: copyright
Encoding: 169 169 147
Width: 613
Flags: W
TeX: 101 0
LayerCount: 2
Fore
SplineSet
321 518 m 0
 422 518 471 451 487 384 c 1
 403 351 l 1
 384 371 391 376 388 390 c 0
 387 394 374 428 324 428 c 0
 274 428 228 399 228 335 c 0
 228 270 273 222 325 222 c 0
 376 222 395 258 408 282 c 1
 487 230 l 1
 458 184 406 129 320 129 c 0
 214 129 131 220 131 327 c 0
 131 437 217 518 321 518 c 0
314 -8 m 0
 148 -8 11 133 11 310 c 0
 11 488 148 629 314 629 c 0
 480 629 616 488 616 311 c 0
 616 133 480 -8 314 -8 c 0
96 310 m 0
 96 176 196 74 315 74 c 0
 433 74 535 176 535 311 c 0
 535 445 434 548 316 548 c 0
 198 548 96 445 96 310 c 0
EndSplineSet
EndChar

StartChar: registered
Encoding: 174 174 148
Width: 613
Flags: W
TeX: 117 0
LayerCount: 2
Fore
SplineSet
314 -8 m 0
 148 -8 11 133 11 310 c 0
 11 488 148 629 314 629 c 0
 480 629 616 488 616 311 c 0
 616 133 480 -8 314 -8 c 0
96 310 m 0
 96 176 196 74 315 74 c 0
 433 74 535 176 535 311 c 0
 535 445 434 548 316 548 c 0
 198 548 96 445 96 310 c 0
179 142 m 1
 179 504 l 1
 306 504 l 2
 330 504 363 504 394 491 c 0
 440 471 465 430 465 388 c 0
 465 345 439 307 402 289 c 1
 472 151 l 1
 392 139 l 1
 317 289 l 1
 264 289 l 1
 264 142 l 1
 179 142 l 1
264 440 m 1
 264 367 l 1
 310 367 l 2
 327 367 345 367 364 377 c 16
 375 383 380 392 380 403 c 0
 380 413 375 424 361 432 c 0
 347 440 327 440 307 440 c 2
 264 440 l 1
EndSplineSet
EndChar

StartChar: onesuperior
Encoding: 185 185 149
Width: 613
Flags: W
TeX: 120 0
LayerCount: 2
Fore
SplineSet
380 751 m 1
 380 300 l 1
 273 300 l 1
 273 637 l 1
 166 609 l 1
 134 670 l 1
 309 751 l 1
 380 751 l 1
EndSplineSet
EndChar

StartChar: guilsinglleft
Encoding: 8249 8249 150
Width: 613
Flags: W
TeX: 80 0
LayerCount: 2
Fore
SplineSet
167 307 m 1
 363 486 l 1
 430 415 l 1
 287 285 l 1
 438 130 l 1
 369 61 l 1
 167 266 l 1
 167 307 l 1
EndSplineSet
EndChar

StartChar: guilsinglright
Encoding: 8250 8250 152
Width: 613
Flags: W
TeX: 80 0
LayerCount: 2
Fore
SplineSet
432 307 m 1
 432 266 l 1
 230 61 l 1
 161 130 l 1
 312 285 l 1
 169 415 l 1
 236 486 l 1
 432 307 l 1
EndSplineSet
EndChar

StartChar: guillemotright
Encoding: 187 187 153
Width: 613
Flags: W
TeX: 105 0
LayerCount: 2
Fore
SplineSet
340 307 m 1
 340 266 l 1
 138 61 l 1
 69 130 l 1
 220 285 l 1
 77 415 l 1
 144 486 l 1
 340 307 l 1
555 307 m 1
 555 266 l 1
 353 61 l 1
 284 130 l 1
 435 285 l 1
 292 415 l 1
 359 486 l 1
 555 307 l 1
EndSplineSet
EndChar

StartChar: logicalnot
Encoding: 172 172 154
Width: 613
Flags: W
TeX: 111 0
LayerCount: 2
Fore
SplineSet
103 427 m 1
 517 427 l 1
 517 171 l 1
 411 171 l 1
 411 322 l 1
 103 322 l 1
 103 427 l 1
EndSplineSet
EndChar

StartChar: degree
Encoding: 176 176 156
Width: 613
Flags: W
TeX: 102 0
LayerCount: 2
Fore
SplineSet
489 598 m 0
 489 510 411 439 314 439 c 0
 217 439 138 511 138 599 c 0
 138 687 217 758 314 758 c 0
 411 758 489 686 489 598 c 0
315 665 m 0
 276 665 242 637 242 600 c 0
 242 563 276 535 315 535 c 0
 354 535 388 563 388 600 c 0
 388 637 354 665 315 665 c 0
EndSplineSet
EndChar

StartChar: twosuperior
Encoding: 178 178 157
Width: 613
Flags: W
TeX: 120 0
LayerCount: 2
Fore
SplineSet
122 637 m 1
 150 688 207 756 317 756 c 0
 418 756 490 698 490 625 c 0
 490 569 447 531 430 517 c 0
 387 477 333 449 277 395 c 1
 457 395 l 2
 458 395 458 395 459 396 c 0
 467 404 476 410 501 401 c 1
 501 300 l 1
 138 300 l 1
 138 373 l 1
 186 441 280 501 333 540 c 0
 367 565 388 588 388 613 c 0
 388 638 364 664 314 664 c 0
 274 664 239 643 221 620 c 8
 211 607 213 600 203 583 c 1
 122 637 l 1
EndSplineSet
EndChar

StartChar: eth
Encoding: 240 240 158
Width: 613
Flags: W
TeX: 103 0
LayerCount: 2
Fore
SplineSet
313 451 m 0
 242 451 164 397 164 275 c 0
 164 153 238 90 313 90 c 0
 371 90 455 129 455 275 c 0
 455 420 367 451 313 451 c 0
449 653 m 1
 517 572 572 458 572 301 c 0
 572 239 565 164 524 99 c 0
 478 25 398 -14 314 -14 c 0
 168 -14 43 103 43 265 c 0
 43 426 163 554 305 554 c 0
 341 554 377 545 407 528 c 1
 388 563 366 594 341 622 c 1
 185 578 l 1
 153 664 l 1
 263 694 l 1
 227 720 180 747 125 768 c 1
 274 799 l 1
 336 762 358 744 379 725 c 1
 512 762 l 1
 544 680 l 1
 449 653 l 1
EndSplineSet
EndChar

StartChar: Eth
Encoding: 208 208 159
Width: 613
Flags: W
TeX: 71 0
LayerCount: 2
Fore
SplineSet
88 739 m 1
 269 739 l 2
 334 739 390 733 445 694 c 1
 540 627 579 497 579 374 c 0
 579 220 518 77 396 22 c 0
 351 2 308 -1 255 -1 c 2
 88 -1 l 1
 88 342 l 1
 31 342 l 1
 31 441 l 1
 88 441 l 1
 88 739 l 1
196 342 m 1
 196 98 l 1
 251 98 l 2
 293 98 328 100 366 125 c 0
 430 167 468 256 468 364 c 0
 468 441 450 524 408 578 c 0
 362 638 310 639 264 639 c 2
 196 639 l 1
 196 441 l 1
 319 441 l 1
 319 342 l 1
 196 342 l 1
EndSplineSet
EndChar

StartChar: Thorn
Encoding: 222 222 160
Width: 613
Flags: W
TeX: 86 0
LayerCount: 2
Fore
SplineSet
65 739 m 1
 184 739 l 1
 187 733 189 727 189 719 c 4
 189 706 181 699 180 697 c 0
 178 695 179 696 179 692 c 0
 179 604 l 1
 305 604 l 0
 353 604 402 602 452 577 c 0
 528 539 566 463 566 386 c 0
 566 308 528 234 454 197 c 0
 405 173 357 172 311 172 c 0
 179 172 l 1
 179 0 l 1
 65 0 l 1
 65 739 l 1
179 507 m 1
 179 275 l 1
 314 275 l 0
 343 275 368 276 393 289 c 0
 430 308 451 346 451 388 c 0
 451 431 429 473 389 493 c 0
 362 506 336 507 305 507 c 0
 179 507 l 1
EndSplineSet
EndChar

StartChar: ring
Encoding: 730 730 161
Width: 613
Flags: W
TeX: 80 0
LayerCount: 2
Fore
SplineSet
429 715 m 0
 429 656 378 607 314 607 c 0
 250 607 200 656 200 715 c 0
 200 774 250 822 314 822 c 0
 378 822 429 774 429 715 c 0
272 716 m 0
 272 690 292 671 315 671 c 0
 338 671 358 690 358 716 c 0
 358 742 338 761 315 761 c 0
 292 761 272 742 272 716 c 0
EndSplineSet
EndChar

StartChar: circumflex.cap
Encoding: 65536 -1 190
Width: 613
Flags: W
TeX: 80 0
LayerCount: 2
Fore
SplineSet
123 662 m 1
 296 793 l 1
 332 793 l 1
 495 664 l 1
 437 596 l 1
 311 682 l 1
 176 600 l 1
 123 662 l 1
EndSplineSet
EndChar

StartChar: ae
Encoding: 230 230 192
Width: 613
Flags: W
TeX: 99 0
LayerCount: 2
Fore
SplineSet
27 473 m 1
 68 520 112 554 184 554 c 0
 238 554 286 529 316 492 c 1
 347 531 393 554 441 554 c 0
 489 554 541 532 573 482 c 0
 606 429 607 369 607 319 c 0
 607 262 l 1
 360 253 l 1
 360 215 l 0
 360 188 361 169 371 148 c 1
 389 110 428 87 468 87 c 0
 516 87 536 114 554 139 c 1
 617 66 l 1
 583 24 533 -13 462 -13 c 0
 404 -13 350 13 314 56 c 1
 283 12 233 -13 178 -13 c 0
 84 -13 7 60 7 151 c 0
 7 214 45 281 125 315 c 1
 172 335 216 337 245 338 c 1
 257 338 l 1
 257 353 l 0
 257 373 256 390 250 406 c 0
 238 439 209 457 178 457 c 0
 134 457 110 423 90 395 c 1
 27 473 l 1
257 244 m 1
 247 244 l 1
 216 243 189 242 162 228 c 1
 130 211 114 180 114 152 c 0
 114 109 147 75 186 75 c 0
 213 75 240 90 251 120 c 0
 256 135 257 151 257 173 c 8
 257 184 257 190 257 201 c 16
 257 244 l 1
360 331 m 1
 508 337 l 1
 508 346 l 0
 508 371 508 393 498 414 c 0
 485 442 463 457 440 457 c 0
 417 457 396 442 380 419 c 0
 361 391 360 364 360 336 c 0
 360 331 l 1
EndSplineSet
EndChar

StartChar: oe
Encoding: 339 339 193
Width: 613
Flags: W
TeX: 114 0
LayerCount: 2
Fore
SplineSet
202 553 m 0
 245 553 285 536 313 506 c 1
 346 537 388 553 432 553 c 0
 493 553 561 523 590 446 c 0
 605 405 607 359 607 315 c 8
 607 294 607 281 607 260 c 18
 607 247 l 1
 337 247 l 1
 338 184 342 159 353 136 c 0
 371 97 407 80 447 80 c 0
 492 80 529 98 555 132 c 1
 618 60 l 1
 570 11 506 -14 445 -14 c 0
 396 -14 350 1 311 30 c 1
 277 2 236 -13 193 -13 c 0
 141 -13 75 12 36 86 c 0
 5 146 2 220 2 280 c 0
 2 332 6 396 38 452 c 0
 75 520 140 553 202 553 c 0
338 345 m 25
 506 345 l 1
 506 350 l 2
 506 354 506 357 506 361 c 0
 505 393 503 403 489 425 c 16
 475 447 449 458 423 458 c 0
 397 458 365 447 349 410 c 0
 347 404 339 386 338 353 c 8
 338 350 338 348 338 345 c 25
104 290 m 0
 104 254 107 201 121 160 c 1
 139 105 175 90 203 90 c 0
 229 90 248 103 248 118 c 0
 248 127 232 184 232 280 c 0
 232 362 243 406 243 418 c 0
 243 437 226 451 201 451 c 0
 175 451 144 434 125 396 c 0
 107 361 104 321 104 290 c 0
EndSplineSet
EndChar

StartChar: acute.cap
Encoding: 65538 -1 194
Width: 613
Flags: W
TeX: 80 0
LayerCount: 2
Fore
SplineSet
402 803 m 1
 466 722 l 1
 236 639 l 1
 194 712 l 1
 402 803 l 1
EndSplineSet
EndChar

StartChar: grave.cap
Encoding: 65539 -1 195
Width: 613
Flags: W
TeX: 80 0
LayerCount: 2
Fore
SplineSet
250 803 m 1
 458 712 l 1
 417 639 l 1
 187 722 l 1
 250 803 l 1
EndSplineSet
EndChar

StartChar: ordfeminine
Encoding: 170 170 196
Width: 613
Flags: W
TeX: 114 0
LayerCount: 2
Fore
SplineSet
135 657 m 1
 172 694 216 738 315 738 c 0
 383 738 445 711 473 652 c 0
 487 622 487 591 487 560 c 0
 487 300 l 1
 382 300 l 1
 382 323 l 1
 348 301 309 290 270 290 c 0
 181 290 116 350 116 421 c 0
 116 463 140 509 194 537 c 0
 242 563 297 564 347 564 c 0
 358 564 369 564 379 564 c 0
 381 564 l 1
 381 567 l 2
 381 587 380 601 370 616 c 0
 360 632 341 644 308 644 c 0
 244 644 220 612 197 582 c 1
 135 657 l 1
384 472 m 1
 380 472 l 2
 366 472 350 472 335 472 c 0
 316 472 296 472 281 470 c 0
 235 463 223 440 223 425 c 0
 223 405 244 385 283 385 c 0
 314 385 344 398 362 413 c 1
 383 430 384 445 384 468 c 2
 384 472 l 1
85 260 m 1
 530 260 l 1
 530 165 l 1
 85 165 l 1
 85 260 l 1
EndSplineSet
EndChar

StartChar: ordmasculine
Encoding: 186 186 197
Width: 613
Flags: W
TeX: 114 0
LayerCount: 2
Fore
SplineSet
309 738 m 0
 404 738 497 663 497 519 c 0
 497 364 398 289 302 289 c 0
 198 289 108 373 108 505 c 0
 108 643 200 738 309 738 c 0
211 511 m 0
 211 423 262 388 304 388 c 0
 345 388 395 420 395 511 c 0
 395 602 346 641 303 641 c 0
 260 641 211 603 211 511 c 0
85 260 m 1
 530 260 l 1
 530 165 l 1
 85 165 l 1
 85 260 l 1
EndSplineSet
EndChar

StartChar: macronmodifier
Encoding: 713 713 198
Width: 613
Flags: W
TeX: 80 0
LayerCount: 2
Fore
SplineSet
141 737 m 1
 473 737 l 1
 473 640 l 1
 141 640 l 1
 141 737 l 1
EndSplineSet
EndChar

StartChar: cedilla
Encoding: 184 184 201
Width: 613
Flags: W
TeX: 80 0
LayerCount: 2
Fore
SplineSet
315 0 m 1
 379 0 l 1
 372 -54 l 1
 385 -54 l 2
 400 -54 417 -56 434 -63 c 0
 459 -74 472 -97 472 -121 c 0
 472 -165 426 -210 337 -210 c 0
 284 -210 232 -194 188 -161 c 1
 225 -101 l 1
 250 -126 300 -146 344 -146 c 0
 388 -146 392 -134 392 -130 c 0
 392 -126 389 -122 382 -119 c 0
 372 -114 355 -114 342 -114 c 0
 300 -114 l 1
 315 0 l 1
EndSplineSet
EndChar

StartChar: threesuperior
Encoding: 179 179 204
Width: 613
Flags: W
TeX: 120 0
LayerCount: 2
Fore
SplineSet
316 757 m 0
 411 757 487 702 487 633 c 0
 487 601 469 573 443 555 c 1
 483 534 507 495 507 450 c 0
 507 360 411 298 312 298 c 0
 237 298 180 328 123 390 c 1
 198 474 l 1
 230 442 218 438 226 430 c 0
 231 425 263 395 313 395 c 0
 367 395 403 427 403 457 c 0
 403 470 398 507 314 507 c 0
 297 507 282 505 263 503 c 1
 263 596 l 9
 278 595 287 594 302 594 c 16
 375 594 386 614 386 626 c 0
 386 643 359 664 312 664 c 0
 278 664 241 650 203 600 c 1
 138 667 l 1
 174 712 240 757 316 757 c 0
EndSplineSet
EndChar

StartChar: divide
Encoding: 247 247 205
Width: 613
Flags: W
TeX: 102 0
LayerCount: 2
Fore
SplineSet
79 428 m 1
 537 428 l 1
 537 318 l 1
 79 318 l 1
 79 428 l 1
382 539 m 0
 382 501 351 470 313 470 c 0
 275 470 245 501 245 539 c 0
 245 577 275 607 313 607 c 0
 351 607 382 577 382 539 c 0
382 188 m 0
 382 150 351 120 313 120 c 0
 275 120 245 150 245 188 c 0
 245 226 275 257 313 257 c 0
 351 257 382 226 382 188 c 0
EndSplineSet
EndChar

StartChar: Oslash
Encoding: 216 216 206
Width: 613
Flags: W
TeX: 81 0
LayerCount: 2
Fore
SplineSet
308 639 m 0
 241 639 142 582 142 366 c 0
 142 292 153 234 169 192 c 1
 390 608 l 1
 362 631 334 639 308 639 c 0
585 368 m 0
 585 305 580 214 539 134 c 0
 488 34 398 -11 312 -11 c 0
 270 -11 223 1 179 29 c 1
 121 -80 l 1
 32 -34 l 1
 104 96 l 1
 59 158 30 246 30 370 c 0
 30 656 192 748 311 748 c 0
 356 748 402 735 443 708 c 1
 496 808 l 1
 587 760 l 1
 519 637 l 1
 527 626 532 617 538 606 c 0
 580 526 585 435 585 368 c 0
452 538 m 1
 233 129 l 1
 259 109 286 100 312 100 c 0
 356 100 408 125 440 192 c 0
 468 252 471 325 471 373 c 0
 471 425 469 480 454 531 c 2
 452 538 l 1
EndSplineSet
EndChar

StartChar: multiply
Encoding: 215 215 207
Width: 613
Flags: W
TeX: 112 0
LayerCount: 2
Fore
SplineSet
463 607 m 1
 542 534 l 1
 388 386 l 1
 539 226 l 1
 461 150 l 1
 312 308 l 1
 164 155 l 1
 89 229 l 1
 239 385 l 1
 89 532 l 1
 167 608 l 1
 314 453 l 1
 463 607 l 1
EndSplineSet
EndChar

StartChar: AE
Encoding: 198 198 208
Width: 613
Flags: W
TeX: 67 0
LayerCount: 2
Fore
SplineSet
237 740 m 1
 600 740 l 1
 600 636 l 1
 394 636 l 1
 396 439 l 1
 569 439 l 1
 569 333 l 1
 397 333 l 1
 399 104 l 1
 597 104 l 1
 597 0 l 1
 294 0 l 1
 294 185 l 1
 166 185 l 1
 102 0 l 1
 -6 0 l 1
 237 740 l 1
294 636 m 5
 303 636 l 1
 193 285 l 1
 294 285 l 1
 294 636 l 5
EndSplineSet
EndChar

StartChar: OE
Encoding: 338 338 209
Width: 613
Flags: W
TeX: 81 0
LayerCount: 2
Fore
SplineSet
295 724 m 1
 295 740 l 1
 600 740 l 1
 600 636 l 1
 399 636 l 1
 399 439 l 1
 569 439 l 1
 569 333 l 1
 399 333 l 1
 399 104 l 1
 597 104 l 1
 597 0 l 1
 294 0 l 1
 294 17 l 1
 270 0 242 -8 212 -8 c 0
 146 -8 65 35 33 147 c 0
 29 162 6 236 6 371 c 0
 6 467 14 551 47 626 c 0
 88 718 159 750 213 750 c 0
 243 750 271 740 295 724 c 1
113 384 m 0
 113 352 113 237 144 164 c 0
 169 106 202 95 222 95 c 0
 254 95 283 123 294 167 c 1
 294 563 l 1
 281 603 252 650 213 650 c 0
 188 650 158 629 135 571 c 0
 128 552 113 501 113 384 c 0
EndSplineSet
EndChar

StartChar: currency
Encoding: 164 164 210
Width: 613
Flags: W
TeX: 80 0
LayerCount: 2
Fore
SplineSet
308 498 m 0
 251 498 204 455 204 402 c 0
 204 349 251 306 308 306 c 0
 365 306 412 349 412 402 c 0
 412 455 365 498 308 498 c 0
69 568 m 1
 133 632 l 1
 202 563 l 1
 234 583 269 594 308 594 c 0
 346 594 382 583 413 564 c 1
 480 632 l 1
 544 568 l 1
 477 504 l 1
 497 473 508 438 508 401 c 0
 508 364 496 329 477 300 c 1
 544 235 l 1
 480 173 l 1
 413 239 l 1
 382 220 346 210 308 210 c 0
 268 210 232 222 202 240 c 1
 133 173 l 1
 69 235 l 1
 138 301 l 1
 119 331 109 364 109 401 c 0
 109 438 120 473 138 502 c 1
 69 568 l 1
EndSplineSet
EndChar

StartChar: brokenbar
Encoding: 166 166 211
Width: 613
Flags: W
TeX: 80 0
LayerCount: 2
Fore
SplineSet
252 774 m 1
 362 774 l 1
 362 319 l 1
 252 319 l 1
 252 774 l 1
362 -195 m 5
 252 -195 l 1
 252 248 l 1
 362 248 l 1
 362 -195 l 5
EndSplineSet
EndChar

StartChar: ogonek
Encoding: 731 731 214
Width: 613
Flags: W
TeX: 80 0
LayerCount: 2
Fore
SplineSet
430 0 m 1
 527 0 l 9
 492 -32 468 -47 436 -83 c 16
 428 -92 418 -103 418 -117 c 0
 418 -131 428 -142 446 -142 c 0
 446 -142 463 -141 482 -133 c 0
 495 -127 499 -124 519 -108 c 1
 519 -178 l 5
 504 -194 468 -209 431 -209 c 4
 367 -209 332 -176 332 -135 c 0
 332 -89 380 -43 430 0 c 1
EndSplineSet
EndChar

StartChar: dotaccent
Encoding: 729 729 222
Width: 613
Flags: W
TeX: 80 0
LayerCount: 2
Fore
SplineSet
312 778 m 0
 354 778 388 744 388 702 c 0
 388 660 354 626 312 626 c 0
 270 626 236 660 236 702 c 0
 236 744 270 778 312 778 c 0
EndSplineSet
EndChar

StartChar: breve
Encoding: 728 728 241
Width: 613
Flags: W
LayerCount: 2
Fore
SplineSet
174 778 m 1
 205 732 247 698 307 698 c 0
 350 698 408 725 448 777 c 1
 500 707 l 1
 450 638 366 606 307 606 c 0
 230 606 160 648 110 704 c 1
 174 778 l 1
EndSplineSet
EndChar

StartChar: eng
Encoding: 331 331 242
Width: 613
Flags: W
LayerCount: 2
Fore
SplineSet
76 0 m 1
 76 542 l 1
 194 542 l 1
 194 476 l 1
 236 522 294 555 358 555 c 0
 426 555 488 518 517 455 c 0
 538 410 538 365 538 325 c 0
 538 75 l 0
 538 28 537 -23 515 -74 c 0
 480 -161 403 -209 322 -209 c 0
 268 -209 225 -189 186 -158 c 1
 239 -56 l 1
 265 -62 258 -70 270 -80 c 0
 276 -85 297 -98 324 -98 c 0
 352 -98 380 -85 399 -55 c 0
 422 -22 423 22 423 62 c 0
 423 319 l 0
 423 355 422 395 397 423 c 0
 381 442 358 450 335 450 c 0
 286 450 236 409 217 385 c 0
 197 360 194 340 194 307 c 0
 194 0 l 1
 76 0 l 1
EndSplineSet
EndChar

StartChar: dcaron
Encoding: 271 271 245
Width: 613
Flags: W
LayerCount: 2
Fore
SplineSet
361 497 m 1
 361 790 l 1
 473 790 l 1
 473 63 l 2
 473 38 477 22 483 0 c 1
 367 0 l 1
 362 13 357 28 357 43 c 2
 357 55 l 1
 326 12 271 -12 215 -12 c 0
 88 -12 -5 113 -5 275 c 0
 -5 450 106 556 226 556 c 0
 279 556 327 533 361 497 c 1
230 456 m 0
 166 456 108 389 108 285 c 0
 108 185 160 94 233 94 c 0
 272 94 310 120 330 151 c 0
 351 183 355 217 355 262 c 0
 355 329 353 361 338 390 c 0
 317 430 267 456 230 456 c 0
EndSplineSet
Refer: 56 8217 N 0.8 0 0 0.8 314 191 2
EndChar

StartChar: eogonek
Encoding: 281 281 246
Width: 613
Flags: W
LayerCount: 2
Fore
SplineSet
317 555 m 0
 411 555 521 506 547 360 c 0
 551 340 553 317 553 295 c 0
 553 283 553 278 550 244 c 1
 167 244 l 1
 180 116 270 87 335 87 c 0
 392 87 444 110 474 155 c 1
 543 88 l 1
 489 21 l 2
 448 -30 412 -67 412 -98 c 0
 412 -122 428 -138 452 -138 c 0
 461 -138 479 -138 519 -111 c 1
 518 -184 l 1
 496 -198 464 -208 434 -208 c 0
 372 -208 330 -165 330 -113 c 0
 330 -80 347 -44 380 -8 c 1
 363 -11 346 -12 328 -12 c 0
 174 -12 52 87 52 266 c 0
 52 461 179 555 317 555 c 0
172 340 m 1
 437 340 l 1
 437 342 437 342 437 343 c 0
 437 407 384 459 311 459 c 0
 261 459 192 433 172 340 c 1
EndSplineSet
EndChar

StartChar: dotlessj
Encoding: 567 567 259
Width: 613
Flags: W
LayerCount: 2
Fore
SplineSet
144 543 m 1
 463 543 l 1
 463 47 l 0
 463 2 462 -43 437 -90 c 0
 397 -168 315 -207 233 -207 c 0
 129 -207 80 -152 48 -116 c 1
 120 -20 l 1
 146 -40 138 -45 146 -56 c 0
 149 -60 181 -102 239 -102 c 0
 279 -102 316 -81 334 -43 c 0
 346 -19 346 5 346 32 c 0
 346 441 l 1
 144 441 l 1
 144 543 l 1
EndSplineSet
EndChar

StartChar: kgreenlandic
Encoding: 312 312 260
Width: 613
Flags: W
LayerCount: 2
Fore
SplineSet
74 542 m 1
 199 542 l 1
 202 529 202 529 202 524 c 4
 202 510 192 501 191 499 c 0
 189 497 190 500 190 496 c 0
 190 313 l 1
 442 546 l 1
 464 541 470 539 510 539 c 2
 579 539 l 1
 333 319 l 1
 611 -1 l 9
 595 -1 586 -1 570 -1 c 0
 510 -1 461 -6 461 -6 c 1
 245 264 l 1
 190 213 l 1
 190 -1 l 1
 74 -1 l 1
 74 542 l 1
EndSplineSet
EndChar

StartChar: uparrow
Encoding: 8593 8593 266
Width: 613
Flags: W
LayerCount: 2
Fore
SplineSet
58 477 m 1
 295 760 l 1
 335 760 l 1
 555 473 l 1
 470 416 l 1
 364 561 l 1
 364 -40 l 1
 254 -40 l 1
 254 565 l 1
 133 416 l 1
 58 477 l 1
EndSplineSet
EndChar

StartChar: visiblespace
Encoding: 9251 9251 268
Width: 613
Flags: W
LayerCount: 2
Fore
SplineSet
52 83 m 1
 138 83 l 1
 138 -25 l 1
 474 -25 l 1
 474 83 l 1
 562 83 l 1
 562 -109 l 1
 52 -109 l 1
 52 83 l 1
EndSplineSet
EndChar

StartChar: r.serif
Encoding: 65540 -1 269
Width: 613
Flags: W
LayerCount: 2
Fore
SplineSet
72 542 m 1
 266 542 l 1
 264 476 l 1
 305 524 361 554 426 554 c 0
 476 554 525 542 585 483 c 1
 531 373 l 1
 513 390 513 390 495 415 c 0
 483 431 458 450 421 450 c 0
 386 450 344 433 302 381 c 0
 263 332 262 299 262 273 c 0
 262 94 l 1
 376 94 l 1
 376 -1 l 1
 70 -1 l 1
 70 94 l 1
 146 94 l 1
 146 442 l 1
 72 442 l 1
 72 542 l 1
EndSplineSet
EndChar

StartChar: hungarumlaut.cap
Encoding: 65541 -1 270
Width: 613
Flags: W
LayerCount: 2
Fore
SplineSet
510 969 m 5
 585 866 l 1
 387 759 l 1
 332 800 l 1
 510 969 l 5
279 969 m 1
 353 866 l 1
 155 759 l 1
 100 800 l 1
 279 969 l 1
EndSplineSet
EndChar

StartChar: foursuperior
Encoding: 8308 8308 271
Width: 613
Flags: W
LayerCount: 2
Fore
SplineSet
361 761 m 1
 430 761 l 1
 430 501 l 1
 505 501 l 1
 505 414 l 1
 430 414 l 1
 430 299 l 1
 332 299 l 1
 332 415 l 1
 116 415 l 1
 116 477 l 1
 361 761 l 1
333 616 m 1
 241 501 l 1
 333 501 l 1
 333 616 l 1
EndSplineSet
EndChar

StartChar: fraction
Encoding: 8260 8260 274
Width: 613
Flags: W
LayerCount: 2
Fore
SplineSet
80 -11 m 1
 465 795 l 1
 548 749 l 1
 163 -56 l 1
 80 -11 l 1
EndSplineSet
EndChar

StartChar: lslash
Encoding: 322 322 275
Width: 613
Flags: W
LayerCount: 2
Fore
SplineSet
95 788 m 1
 366 788 l 1
 366 460 l 1
 422 479 l 2
 443 486 454 497 474 511 c 1
 474 388 l 1
 366 353 l 1
 366 99 l 1
 525 99 l 1
 525 0 l 1
 88 0 l 1
 88 99 l 1
 249 99 l 1
 249 313 l 1
 156 283 l 1
 156 388 l 1
 249 419 l 1
 249 689 l 1
 95 689 l 1
 95 788 l 1
EndSplineSet
EndChar

StartChar: Lslash
Encoding: 321 321 276
Width: 613
Flags: W
LayerCount: 2
Fore
SplineSet
82 739 m 1
 207 739 l 9
 208 732 209 726 209 721 c 0
 209 697 199 696 199 686 c 0
 199 411 l 1
 375 466 l 2
 387 469 403 476 426 485 c 1
 426 380 l 1
 199 310 l 1
 199 101 l 1
 555 101 l 1
 555 -1 l 1
 82 -1 l 1
 82 272 l 1
 18 252 l 1
 18 353 l 1
 82 373 l 1
 82 739 l 1
EndSplineSet
EndChar

StartChar: Eng
Encoding: 330 330 277
Width: 613
Flags: W
LayerCount: 2
Fore
SplineSet
55 0 m 1
 55 739 l 1
 173 739 l 1
 173 673 l 1
 219 722 282 753 350 753 c 0
 428 753 500 712 534 640 c 0
 557 591 558 543 558 498 c 2
 558 214 l 2
 558 175 557 133 536 90 c 0
 505 24 438 -12 364 -12 c 0
 309 -12 282 2 238 26 c 1
 295 126 l 1
 316 115 311 111 323 104 c 0
 328 101 346 92 366 92 c 0
 394 92 419 106 432 133 c 0
 443 156 443 185 443 211 c 2
 443 494 l 2
 443 527 443 562 427 592 c 0
 408 628 375 647 335 647 c 0
 279 647 222 603 197 570 c 0
 177 542 173 518 173 482 c 2
 173 0 l 1
 55 0 l 1
EndSplineSet
AlternateSubs2: "Eng variants-1" Eng.var1 Eng.var2
Substitution2: "Sami variant of Eng-1" Eng.var2
EndChar

StartChar: dcroat
Encoding: 273 273 278
Width: 613
Flags: W
LayerCount: 2
Fore
SplineSet
287 456 m 0
 233 456 153 423 153 288 c 0
 153 129 239 94 291 94 c 0
 341 94 391 125 410 179 c 0
 418 202 420 229 420 266 c 0
 420 322 418 348 412 369 c 0
 393 435 330 456 287 456 c 0
538 614 m 1
 539 62 l 2
 539 38 541 22 548 0 c 1
 432 0 l 1
 429 9 423 24 423 38 c 2
 423 55 l 1
 384 13 329 -12 271 -12 c 0
 156 -12 40 79 40 275 c 0
 40 479 172 556 283 556 c 0
 342 556 393 533 427 497 c 1
 427 614 l 1
 337 614 l 1
 337 709 l 1
 427 709 l 1
 427 790 l 1
 548 790 l 1
 550 764 546 757 540 748 c 0
 537 743 538 745 538 740 c 0
 538 709 l 1
 590 709 l 1
 590 614 l 1
 538 614 l 1
EndSplineSet
EndChar

StartChar: bullet
Encoding: 8226 8226 287
Width: 613
Flags: W
LayerCount: 2
Fore
SplineSet
430 352 m 0
 430 289 378 238 314 238 c 0
 250 238 198 289 198 352 c 0
 198 415 250 466 314 466 c 0
 378 466 430 415 430 352 c 0
EndSplineSet
EndChar

StartChar: florin
Encoding: 402 402 288
Width: 613
Flags: W
LayerCount: 2
Fore
SplineSet
598 723 m 1
 550 627 l 1
 529 627 518 633 516 648 c 0
 515 655 515 656 514 659 c 0
 505 678 481 701 449 701 c 0
 425 701 396 688 379 650 c 0
 364 617 362 573 359 535 c 2
 353 458 l 1
 498 458 l 1
 498 364 l 1
 345 364 l 1
 317 36 l 2
 313 -15 307 -67 277 -116 c 0
 240 -178 183 -208 128 -208 c 0
 79 -208 49 -191 12 -152 c 1
 74 -55 l 1
 90 -62 98 -67 105 -82 c 0
 108 -89 120 -97 135 -97 c 0
 149 -97 167 -91 182 -63 c 0
 200 -32 204 9 207 43 c 2
 232 366 l 1
 90 366 l 1
 90 459 l 1
 240 459 l 1
 247 549 l 2
 250 594 254 642 278 690 c 0
 313 760 379 799 447 799 c 0
 473 799 532 799 598 723 c 1
EndSplineSet
EndChar

StartChar: dagger
Encoding: 8224 8224 289
Width: 613
Flags: W
LayerCount: 2
Fore
SplineSet
252 774 m 5
 362 774 l 1
 362 557 l 1
 559 557 l 1
 559 456 l 1
 362 456 l 1
 362 -195 l 1
 252 -195 l 1
 252 456 l 1
 53 456 l 1
 53 557 l 1
 252 557 l 1
 252 774 l 5
EndSplineSet
EndChar

StartChar: daggerdbl
Encoding: 8225 8225 290
Width: 613
Flags: W
LayerCount: 2
Fore
SplineSet
252 774 m 5
 362 774 l 1
 362 557 l 1
 559 557 l 1
 559 456 l 1
 362 456 l 1
 362 159 l 1
 559 159 l 1
 559 57 l 1
 362 57 l 1
 362 -195 l 1
 252 -195 l 1
 252 57 l 1
 53 57 l 1
 53 159 l 1
 252 159 l 1
 252 456 l 1
 53 456 l 1
 53 557 l 1
 252 557 l 1
 252 774 l 5
EndSplineSet
EndChar

StartChar: trademark
Encoding: 8482 8482 291
Width: 613
VWidth: 1046
Flags: W
LayerCount: 2
Fore
SplineSet
309 753 m 1
 309 675 l 1
 202 675 l 1
 202 379 l 1
 118 379 l 1
 118 675 l 1
 16 675 l 1
 16 753 l 1
 309 753 l 1
379 753 m 1
 455 599 l 1
 469 627 468 627 485 659 c 0
 509 705 509 705 534 753 c 9
 598 753 l 1
 598 379 l 1
 518 379 l 1
 518 591 l 1
 505 567 504 567 491 544 c 0
 480 524 480 524 471 506 c 1
 433 508 l 1
 393 586 l 1
 393 379 l 1
 312 379 l 1
 312 753 l 1
 379 753 l 1
EndSplineSet
EndChar

StartChar: zero.noslash
Encoding: 65542 -1 292
Width: 613
Flags: W
LayerCount: 2
Fore
SplineSet
545 366 m 0
 545 148 449 -13 305 -13 c 0
 175 -13 69 123 69 350 c 0
 69 581 162 744 307 744 c 0
 445 744 545 592 545 366 c 0
306 641 m 0
 285 641 248 633 220 576 c 0
 197 528 179 459 179 361 c 0
 179 291 194 217 213 174 c 0
 244 104 285 93 310 93 c 0
 332 93 367 102 396 153 c 0
 427 208 437 296 437 352 c 0
 437 425 421 516 399 565 c 0
 369 631 330 641 306 641 c 0
EndSplineSet
Substitution2: "Old style numerals-1" zero.oldstyle.noslash
EndChar

StartChar: alpha
Encoding: 945 945 294
Width: 613
Flags: W
LayerCount: 2
Fore
SplineSet
273 454 m 0
 202 454 138 421 138 276 c 0
 138 144 209 102 272 102 c 8
 279 102 284 102 291 102 c 16
 334 102 397 103 397 278 c 0
 397 397 359 454 273 454 c 0
604 9 m 1
 468 9 l 1
 468 9 444 45 444 55 c 2
 444 60 l 1
 401 13 324 -5 273 -5 c 0
 207 -5 28 32 27 273 c 9
 27 277 27 279 27 283 c 16
 27 544 228 559 273 560 c 1
 384 560 433 493 433 493 c 1
 443 549 l 1
 548 526 l 1
 514 385 l 1
 505 351 499 311 499 272 c 0
 499 233 503 193 515 159 c 0
 546 68 604 9 604 9 c 1
EndSplineSet
EndChar

StartChar: beta
Encoding: 946 946 295
Width: 613
Flags: W
LayerCount: 2
Fore
SplineSet
554 210 m 0
 554 94 441 3 330 1 c 9
 329 1 328 1 327 1 c 16
 233 1 171 66 171 66 c 1
 171 -160 l 1
 61 -160 l 1
 61 464 l 0
 61 511 62 563 86 615 c 0
 124 698 203 742 285 742 c 0
 406 742 504 648 504 534 c 0
 504 480 477 430 433 398 c 1
 508 364 554 291 554 210 c 0
330 104 m 16
 393 104 442 148 442 215 c 0
 442 263 414 303 375 325 c 0
 346 342 326 344 290 344 c 2
 196 344 l 1
 196 444 l 1
 288 444 l 2
 375 444 389 501 389 536 c 0
 389 600 348 637 289 637 c 0
 255 637 224 629 201 597 c 0
 175 561 172 518 172 474 c 0
 172 472 172 469 172 467 c 1
 170 167 l 1
 204 150 268 104 323 104 c 8
 326 104 327 104 330 104 c 16
EndSplineSet
EndChar

StartChar: gamma
Encoding: 947 947 296
Width: 613
Flags: W
LayerCount: 2
Fore
SplineSet
264 15 m 1
 37 542 l 1
 180 542 l 1
 183 515 176 508 176 501 c 0
 176 500 176 499 177 497 c 1
 321 136 l 1
 410 388 l 2
 436 463 446 498 453 543 c 1
 576 543 l 1
 557 482 550 466 515 375 c 2
 374 10 l 2
 370 1 369 -17 369 -40 c 8
 369 -92 370 -121 371 -173 c 17
 261 -173 l 1
 262 -95 264 15 264 15 c 1
EndSplineSet
EndChar

StartChar: delta
Encoding: 948 948 297
Width: 613
Flags: W
LayerCount: 2
Fore
SplineSet
309 454 m 0
 239 454 171 395 171 279 c 0
 171 161 240 95 313 95 c 0
 379 95 447 150 447 270 c 0
 447 401 374 454 309 454 c 0
485 671 m 1
 399 671 l 1
 226 669 l 1
 433 500 l 1
 527 436 560 328 560 261 c 0
 560 96 444 -3 312 -3 c 0
 173 -3 54 108 54 260 c 0
 54 429 168 524 245 524 c 0
 245 524 246 524 247 524 c 1
 247 524 142 605 55 677 c 1
 54 767 l 1
 526 767 l 1
 526 638 l 1
 485 671 l 1
EndSplineSet
EndChar

StartChar: epsilon
Encoding: 949 949 298
Width: 613
Flags: W
LayerCount: 2
Fore
SplineSet
488 184 m 1
 541 105 l 1
 461 15 383 0 322 -0 c 0
 195 0 70 62 70 163 c 0
 70 211 90 261 137 286 c 1
 100 306 73 338 73 381 c 0
 73 468 172 546 294 546 c 0
 335 546 431 546 528 449 c 1
 469 370 l 1
 444 397 408 436 293 436 c 0
 227 436 190 410 190 381 c 0
 190 361 197 336 321 336 c 0
 342 336 342 336 374 338 c 1
 374 222 l 1
 332 227 331 227 321 227 c 0
 181 227 186 181 186 163 c 0
 186 139 250 108 321 107 c 0
 388 107 429 139 488 184 c 1
EndSplineSet
EndChar

StartChar: zeta
Encoding: 950 950 299
Width: 613
Flags: W
LayerCount: 2
Fore
SplineSet
384 -82 m 0
 401 -41 420 9 420 9 c 1
 420 9 74 35 74 255 c 0
 74 256 74 256 74 257 c 1
 76 482 246 603 343 657 c 1
 337 657 300 657 276 657 c 0
 222 657 163 658 126 658 c 1
 87 656 90 644 81 644 c 1
 82 769 l 1
 535 769 l 1
 535 660 l 1
 535 660 199 569 199 256 c 1
 199 255 199 255 199 254 c 0
 199 75 499 139 527 103 c 1
 538 89 542 72 542 57 c 0
 542 -4 488 -71 483 -120 c 1
 482 -120 423 -127 390 -127 c 0
 367 -127 355 -124 355 -117 c 0
 355 -110 366 -112 376 -100 c 1
 383 -91 381 -89 384 -82 c 0
EndSplineSet
EndChar

StartChar: eta
Encoding: 951 951 300
Width: 613
Flags: W
LayerCount: 2
Fore
SplineSet
84 485 m 1
 62 542 l 1
 202 542 l 1
 202 476 l 1
 244 522 302 555 367 555 c 0
 434 555 496 519 525 455 c 0
 546 409 546 363 546 323 c 2
 546 -160 l 1
 431 -160 l 1
 431 318 l 2
 431 321 431 323 431 326 c 0
 431 361 428 397 405 423 c 0
 388 442 366 451 343 451 c 0
 294 451 244 409 225 385 c 0
 205 360 202 341 202 307 c 2
 202 0 l 1
 84 0 l 1
 84 485 l 1
EndSplineSet
EndChar

StartChar: theta
Encoding: 952 952 301
Width: 613
Flags: W
LayerCount: 2
Fore
SplineSet
282 764 m 0
 445 764 523 593 523 391 c 0
 523 233 503 2 285 1 c 0
 283 1 l 0
 83 1 59 215 59 387 c 0
 59 601 125 764 282 764 c 0
408 428 m 1
 404 584 340 657 283 657 c 0
 233 657 178 593 174 427 c 1
 232 427 346 428 408 428 c 1
409 337 m 1
 173 337 l 1
 176 212 200 114 285 114 c 0
 382 114 407 211 409 330 c 0
 409 332 409 335 409 337 c 1
EndSplineSet
EndChar

StartChar: iota
Encoding: 953 953 302
Width: 613
Flags: W
LayerCount: 2
Fore
SplineSet
102 545 m 1
 373 545 l 1
 373 545 373 306 373 156 c 0
 373 113 391 113 437 113 c 1
 437 0 l 9
 415 0 402 -1 380 -1 c 16
 312 -1 256 20 256 149 c 1
 255 159 255 173 255 187 c 0
 255 217 256 250 256 250 c 1
 256 444 l 1
 138 444 l 2
 128 444 104 412 104 412 c 5
 102 545 l 1
EndSplineSet
EndChar

StartChar: kappa
Encoding: 954 954 303
Width: 613
Flags: W
LayerCount: 2
Fore
SplineSet
47 542 m 1
 175 542 l 1
 175 541 175 532 175 524 c 0
 175 514 171 509 168 504 c 0
 165 500 164 499 164 496 c 2
 164 313 l 1
 415 546 l 1
 435 541 443 539 490 539 c 8
 501 539 510 539 521 539 c 18
 560 539 l 1
 312 319 l 1
 584 -1 l 9
 575 -1 571 -1 562 -1 c 16
 442 -1 l 1
 226 265 l 1
 164 213 l 1
 164 -1 l 1
 47 -1 l 1
 47 542 l 1
EndSplineSet
EndChar

StartChar: lambda
Encoding: 955 955 304
Width: 613
Flags: W
LayerCount: 2
Fore
SplineSet
292 502 m 1
 274 590 234 669 180 683 c 0
 172 685 166 685 160 685 c 0
 126 685 105 677 100 677 c 1
 98 788 l 1
 127 788 152 789 168 789 c 2
 169 789 l 2
 352 789 380 594 420 466 c 0
 468 314 566 24 626 0 c 1
 626 0 492 0 476 0 c 1
 449 60 352 346 339 380 c 1
 125 0 l 1
 9 0 l 1
 292 502 l 1
EndSplineSet
EndChar

StartChar: mu
Encoding: 956 956 305
Width: 613
Flags: W
LayerCount: 2
Fore
SplineSet
521 113 m 2
 521 101 533 100 538 100 c 8
 542 100 545 100 549 100 c 18
 553 100 l 1
 555 78 555 0 555 0 c 1
 464 0 l 0
 438 0 409 26 409 77 c 0
 409 91 l 1
 380 48 331 0 258 0 c 0
 233 0 200 9 173 33 c 1
 173 12 l 1
 173 -172 l 1
 58 -172 l 1
 58 229 l 1
 58 541 l 1
 170 541 l 1
 170 263 l 1
 170 261 l 2
 170 138 211 117 257 117 c 0
 315 117 409 202 409 291 c 2
 409 541 l 1
 521 541 l 1
 521 113 l 2
EndSplineSet
EndChar

StartChar: nu
Encoding: 957 957 306
Width: 613
Flags: W
LayerCount: 2
Fore
SplineSet
35 553 m 1
 172 553 l 1
 180 521 171 530 171 514 c 0
 171 505 180 472 318 132 c 1
 440 299 468 399 468 456 c 0
 468 488 468 488 431 553 c 1
 568 553 l 1
 575 534 599 453 566 362 c 0
 503 188 346 -4 346 -4 c 1
 262 -4 l 1
 35 553 l 1
EndSplineSet
EndChar

StartChar: xi
Encoding: 958 958 307
Width: 613
Flags: W
LayerCount: 2
Fore
SplineSet
404 -22 m 0
 390 15 91 -14 91 206 c 0
 91 304 156 381 227 404 c 1
 179 438 159 475 159 511 c 0
 159 561 196 605 232 632 c 1
 224 632 208 632 193 632 c 24
 175 632 166 632 148 632 c 17
 104 630 110 617 102 617 c 1
 102 742 l 1
 535 742 l 1
 535 630 l 1
 535 630 440 630 436 630 c 1
 361 622 283 560 283 518 c 0
 283 496 305 470 386 458 c 1
 500 458 l 1
 500 336 l 1
 389 335 l 2
 250 334 207 297 207 210 c 1
 210 91 397 154 500 55 c 0
 513 43 525 25 525 6 c 0
 525 -48 488 -85 473 -143 c 1
 345 -145 l 1
 377 -74 405 -47 405 -31 c 0
 405 -27 405 -24 404 -22 c 0
EndSplineSet
EndChar

StartChar: omicron
Encoding: 959 959 308
Width: 613
Flags: W
LayerCount: 2
Fore
SplineSet
571 268 m 0
 571 91 449 -14 312 -14 c 0
 166 -14 43 104 43 267 c 0
 43 433 166 554 314 554 c 0
 446 554 571 453 571 268 c 0
309 451 m 0
 236 451 164 391 164 274 c 0
 164 156 238 90 313 90 c 0
 382 90 455 146 455 266 c 0
 455 397 377 451 309 451 c 0
EndSplineSet
EndChar

StartChar: pi
Encoding: 960 960 309
Width: 613
Flags: W
LayerCount: 2
Fore
SplineSet
25 554 m 1
 589 554 l 1
 589 442 l 1
 522 442 l 1
 522 110 l 1
 541 110 l 1
 557 122 l 1
 557 122 556 52 556 0 c 1
 467 0 l 2
 420 0 408 32 408 53 c 2
 408 442 l 1
 209 442 l 1
 209 0 l 1
 90 0 l 1
 90 442 l 1
 25 442 l 1
 25 554 l 1
EndSplineSet
EndChar

StartChar: rho
Encoding: 961 961 310
Width: 613
Flags: W
LayerCount: 2
Fore
SplineSet
60 339 m 2
 60 463 133 554 296 554 c 0
 447 554 554 450 554 263 c 0
 554 66 412 -8 295 -8 c 0
 237 -8 194 15 171 33 c 1
 171 -198 l 1
 63 -198 l 1
 60 339 l 2
295 451 m 0
 242 451 170 435 170 294 c 0
 170 119 228 98 294 98 c 0
 341 98 441 113 441 260 c 0
 441 434 336 451 295 451 c 0
EndSplineSet
EndChar

StartChar: sigma
Encoding: 963 963 311
Width: 613
Flags: W
LayerCount: 2
Fore
SplineSet
553 265 m 0
 553 90 431 -14 294 -14 c 0
 148 -14 25 104 25 267 c 0
 25 430 145 554 290 554 c 2
 607 554 l 1
 598 530 l 1
 598 449 l 1
 497 449 l 1
 532 403 553 340 553 265 c 0
289 450 m 1
 217 450 145 401 145 274 c 0
 145 146 220 90 295 90 c 0
 364 90 436 151 436 281 c 0
 436 400 385 441 289 450 c 1
EndSplineSet
EndChar

StartChar: tau
Encoding: 964 964 312
Width: 613
Flags: W
LayerCount: 2
Fore
SplineSet
92 554 m 1
 571 554 l 1
 571 443 l 1
 357 443 l 1
 356 154 l 17
 356 120 403 109 452 109 c 0
 488 109 515 116 515 116 c 1
 516 10 l 1
 516 10 486 2 439 2 c 0
 365 2 242 23 241 149 c 1
 240 159 240 172 240 187 c 0
 240 217 241 250 241 250 c 1
 241 445 l 1
 204 445 167 445 138 445 c 0
 83 445 52 439 30 424 c 9
 92 554 l 1
EndSplineSet
EndChar

StartChar: upsilon
Encoding: 965 965 313
Width: 613
Flags: W
LayerCount: 2
Fore
SplineSet
70 542 m 0
 70 542 141 542 186 542 c 17
 186 240 l 17
 186 232 l 2
 186 175 193 95 299 95 c 0
 365 95 425 158 425 247 c 0
 425 542 l 1
 542 542 l 1
 542 245 l 0
 542 176 518 112 486 73 c 0
 425 0 360 -14 294 -14 c 0
 219 -14 128 24 92 100 c 0
 72 142 69 185 69 225 c 0
 69 230 69 236 69 241 c 1
 70 453 l 2
 69 453 38 457 14 459 c 1
 35 542 l 1
 70 542 l 0
EndSplineSet
EndChar

StartChar: Xi
Encoding: 926 926 322
Width: 613
Flags: W
LayerCount: 2
Fore
SplineSet
346 106 m 2
 514 106 l 1
 514 -1 l 1
 99 -1 l 1
 99 108 l 1
 263 108 l 1
 263 108 313 106 346 106 c 2
346 632 m 1
 263 632 l 1
 99 632 l 1
 99 739 l 1
 514 739 l 1
 514 632 l 1
 346 632 l 1
135 440 m 1
 480 440 l 1
 480 333 l 1
 135 333 l 1
 135 440 l 1
EndSplineSet
EndChar

StartChar: tonos
Encoding: 900 900 328
Width: 613
Flags: W
LayerCount: 2
Fore
SplineSet
381.195 825.404 m 5
 324.462 617 l 1
 246.431 617 l 1
 254.596 836.294 l 1
 381.195 825.404 l 5
EndSplineSet
EndChar

StartChar: sigma1
Encoding: 962 962 346
Width: 613
Flags: W
LayerCount: 2
Fore
SplineSet
74 292 m 0
 75 396 149 509 253 536 c 0
 311 552 392 554 440 554 c 0
 466 554 486 554 488 554 c 0
 495 554 495 546 495 531 c 0
 495 494 495 467 493 439 c 1
 442 437 394 436 361 436 c 0
 254 436 196 393 196 281 c 0
 196 229 247 167 286 151 c 0
 362 120 512 129 512 17 c 0
 512 -47 463 -92 451 -136 c 1
 326 -137 l 1
 342 -78 396 -32 396 -1 c 0
 396 44 305 9 187 82 c 0
 139 112 74 202 74 292 c 0
EndSplineSet
EndChar

StartChar: chi
Encoding: 967 967 347
Width: 613
Flags: W
LayerCount: 2
Fore
SplineSet
432 543 m 1
 548 543 l 1
 374 187 l 1
 513 -78 l 2
 520 -92 535 -95 544 -95 c 0
 568 -95 l 1
 568 -196 l 9
 558 -196 552 -196 542 -196 c 0
 510 -196 437 -187 413 -137 c 2
 313 71 l 1
 188 -196 l 1
 63 -196 l 1
 250 176 l 1
 128 387 l 2
 102 432 86 442 76 442 c 0
 66 442 58 442 46 442 c 17
 46 553 l 9
 63 553 72 553 89 553 c 16
 120 553 159 545 191 498 c 1
 200 485 245 424 313 289 c 1
 432 543 l 1
EndSplineSet
EndChar

StartChar: psi
Encoding: 968 968 348
Width: 613
Flags: W
LayerCount: 2
Fore
SplineSet
77 542 m 1
 188 542 l 9
 188 416 188 345 188 219 c 16
 188 169 192 97 252 73 c 1
 252 627 l 1
 364 668 l 1
 364 86 l 1
 401 113 427 164 427 226 c 2
 427 542 l 1
 539 542 l 1
 539 245 l 2
 539 176 512 115 480 77 c 0
 441 30 406 5 364 -6 c 1
 364 -194 l 1
 252 -194 l 1
 252 -10 l 1
 188 3 128 40 99 100 c 0
 76 147 76 197 76 241 c 0
 76 245 76 250 76 254 c 0
 76 337 77 396 77 438 c 2
 77 542 l 1
EndSplineSet
EndChar

StartChar: phi
Encoding: 966 966 349
Width: 613
Flags: W
LayerCount: 2
Fore
SplineSet
252 604 m 1
 369 621 l 1
 369 547 l 1
 479 522 571 425 571 268 c 0
 571 117 480 18 369 -7 c 1
 369 -197 l 1
 252 -197 l 1
 252 -9 l 1
 130 18 43 126 43 267 c 0
 43 410 132 519 252 547 c 1
 252 604 l 1
252 84 m 1
 252 458 l 1
 201 433 159 370 159 274 c 0
 159 179 201 111 252 84 c 1
369 453 m 1
 369 86 l 1
 417 112 459 172 459 265 c 0
 459 365 415 426 369 453 c 1
EndSplineSet
EndChar

StartChar: omega
Encoding: 969 969 350
Width: 613
Flags: W
LayerCount: 2
Fore
SplineSet
194 106 m 0
 235 106 253 172 253 266 c 2
 253 402 l 1
 362 402 l 1
 364 266 l 2
 365 171 379 106 421 106 c 0
 463 106 473 192 473 276 c 0
 473 379 460 459 444 553 c 1
 557 553 l 1
 568 496 590 400 590 282 c 0
 590 211 582 137 552 74 c 0
 528 24 469 -2 422 -2 c 8
 421 -2 421 -2 420 -2 c 16
 390 -2 344 14 307 46 c 1
 269 13 225 -2 195 -2 c 8
 194 -2 194 -2 193 -2 c 16
 146 -2 87 24 63 74 c 0
 37 130 27 195 25 258 c 0
 25 266 25 274 25 282 c 0
 25 404 45 488 58 553 c 1
 172 553 l 1
 151 428 141 367 141 274 c 0
 141 229 145 106 194 106 c 0
EndSplineSet
EndChar

StartChar: Lambda
Encoding: 923 923 352
Width: 613
Flags: W
LayerCount: 2
Fore
SplineSet
294 530 m 1
 226 315 180 182 121 -1 c 1
 6 -1 l 1
 278 753 l 1
 309 753 l 1
 606 0 l 1
 487 0 l 1
 414 196 370 315 294 530 c 1
EndSplineSet
EndChar

StartChar: Delta
Encoding: 916 916 353
Width: 613
Flags: W
LayerCount: 2
Fore
SplineSet
6 0 m 1
 278 753 l 1
 309 753 l 1
 606 0 l 1
 6 0 l 1
157 112 m 1
 445 112 l 1
 294 530 l 1
 157 112 l 1
EndSplineSet
EndChar

StartChar: Gamma
Encoding: 915 915 355
Width: 613
Flags: W
LayerCount: 2
Fore
SplineSet
174 423 m 1
 174 347 l 1
 174 85 l 1
 175 0 l 1
 65 0 l 1
 65 740 l 1
 549 740 l 1
 549 636 l 1
 174 636 l 1
 174 423 l 1
EndSplineSet
EndChar

StartChar: Theta
Encoding: 920 920 356
Width: 613
Flags: W
LayerCount: 2
Fore
SplineSet
308 641 m 0
 162 641 145 520 145 381 c 0
 145 201 211 106 314 106 c 0
 408 106 472 183 472 382 c 0
 472 516 447 641 308 641 c 0
310 0 m 0
 75 0 30 228 30 381 c 0
 30 578 98 750 309 750 c 0
 497 750 585 602 585 382 c 0
 585 228 555 0 310 0 c 0
439 325 m 1
 181 325 l 1
 181 436 l 1
 181 436 380 437 439 437 c 1
 439 325 l 1
EndSplineSet
EndChar

StartChar: Pi
Encoding: 928 928 357
Width: 613
Flags: W
LayerCount: 2
Fore
SplineSet
174 424 m 1
 174 348 l 1
 174 85 l 1
 175 0 l 1
 65 0 l 1
 65 740 l 1
 439 740 l 1
 549 740 l 1
 549 636 l 1
 549 0 l 1
 439 0 l 1
 439 636 l 1
 174 636 l 1
 174 424 l 1
EndSplineSet
EndChar

StartChar: Phi
Encoding: 934 934 358
Width: 613
Flags: W
LayerCount: 2
Fore
SplineSet
309 737 m 0
 462 737 620 597 620 399 c 0
 620 206 471 111 362 83 c 1
 362 0 l 1
 255 0 l 1
 255 82 l 1
 137 111 -5 215 -5 396 c 0
 -5 598 144 737 309 737 c 0
251 183 m 1
 251 642 l 1
 186 610 105 522 105 399 c 0
 105 276 185 212 251 183 c 1
367 639 m 1
 367 184 l 1
 431 215 511 281 511 401 c 0
 511 530 429 605 367 639 c 1
EndSplineSet
EndChar

StartChar: Chi
Encoding: 935 935 359
Width: 613
Flags: W
LayerCount: 2
Fore
SplineSet
428 739 m 1
 545 739 l 1
 364 380 l 1
 569 1 l 1
 441 1 l 1
 303 269 l 1
 172 1 l 1
 49 1 l 1
 243 376 l 1
 50 739 l 1
 172 739 l 1
 303 485 l 1
 428 739 l 1
EndSplineSet
EndChar

StartChar: Sigma
Encoding: 931 931 362
Width: 613
Flags: W
LayerCount: 2
Fore
SplineSet
240 363 m 1
 74 665 l 1
 72 739 l 1
 560 739 l 1
 560 634 l 1
 212 634 l 1
 363 361 l 1
 200 83 l 1
 523 83 l 2
 531 83 536 90 555 90 c 8
 562 90 567 90 574 90 c 17
 574 -22 l 1
 54 -22 l 1
 54 44 l 1
 240 363 l 1
EndSplineSet
EndChar

StartChar: Psi
Encoding: 936 936 363
Width: 613
Flags: W
LayerCount: 2
Fore
SplineSet
254 705 m 1
 367 705 l 1
 367 295 l 1
 429 321 442 402 442 452 c 2
 442 740 l 1
 557 740 l 1
 557 465 l 2
 557 411 553 364 519 312 c 1
 481 253 422 226 367 214 c 1
 367 0 l 1
 254 0 l 1
 254 212 l 1
 192 223 138 249 96 311 c 1
 63 360 58 410 58 461 c 2
 59 740 l 1
 59 740 125 740 173 740 c 1
 173 452 l 2
 173 405 192 319 254 293 c 1
 254 705 l 1
EndSplineSet
EndChar

StartChar: Omega
Encoding: 937 937 364
Width: 613
Flags: W
LayerCount: 2
Fore
SplineSet
146 108 m 1
 94 172 51 272 51 341 c 0
 51 689 176 740 308 740 c 0
 434 740 562 685 562 343 c 0
 562 263 528 171 479 108 c 1
 563 108 l 1
 563 0 l 1
 346 0 l 1
 346 93 l 1
 395 142 451 272 451 338 c 0
 451 554 414 639 308 639 c 0
 200 639 163 555 163 339 c 0
 163 264 234 127 274 95 c 1
 274 0 l 1
 51 0 l 1
 51 108 l 1
 146 108 l 1
EndSplineSet
EndChar

StartChar: anoteleia
Encoding: 903 903 366
Width: 613
Flags: W
LayerCount: 2
Fore
SplineSet
378 471 m 0
 378 425 340 387 293 387 c 0
 246 387 207 425 207 471 c 0
 207 517 246 554 293 554 c 0
 340 554 378 517 378 471 c 0
EndSplineSet
EndChar

StartChar: Be
Encoding: 1041 1041 368
Width: 613
Flags: W
LayerCount: 2
Fore
SplineSet
52 0 m 1
 52 740 l 1
 537 740 l 1
 537 636 l 1
 165 636 l 1
 165 449 l 1
 265 449 l 2
 346 449 402 448 466 406 c 0
 530 364 567 301 567 213 c 0
 567 134 520 58 435 23 c 0
 381 1 326 0 276 0 c 2
 52 0 l 1
165 103 m 1
 291 103 l 2
 323 103 351 104 380 116 c 0
 425 135 450 176 450 221 c 0
 450 266 424 310 375 332 c 0
 342 347 307 348 270 348 c 2
 165 348 l 1
 165 103 l 1
EndSplineSet
EndChar

StartChar: De
Encoding: 1044 1044 371
Width: 613
Flags: W
LayerCount: 2
Fore
SplineSet
42 100 m 1
 99 100 l 9
 100 103 100 104 101 107 c 16
 108 124 116 146 120 165 c 0
 154 319 167 544 171 656 c 0
 172 692 159 740 159 740 c 1
 549 740 l 1
 549 100 l 1
 609 100 l 1
 609 -172 l 1
 495 -172 l 1
 495 -1 l 1
 159 -1 l 1
 159 -171 l 1
 42 -171 l 1
 42 100 l 1
220 100 m 1
 439 100 l 1
 439 636 l 1
 283 636 l 1
 274 508 260 262 226 125 c 0
 224 117 222 108 220 100 c 1
EndSplineSet
Substitution2: "Bulgarian variant forms-1" De.bg
EndChar

StartChar: Zhe
Encoding: 1046 1046 373
Width: 613
Flags: W
LayerCount: 2
Fore
SplineSet
-7 0 m 1
 209 375 l 1
 19 740 l 1
 77 740 l 2
 100 740 121 742 148 749 c 1
 252 514 l 1
 252 739 l 1
 365 739 l 1
 371 727 372 725 372 719 c 0
 372 706 365 709 365 695 c 2
 365 522 l 1
 460 749 l 1
 481 743 499 740 531 740 c 2
 588 740 l 1
 408 380 l 1
 620 0 l 1
 546 0 480 -5 480 -5 c 1
 365 241 l 1
 365 0 l 1
 252 0 l 1
 252 232 l 1
 133 -5 l 1
 133 -5 63 0 -7 0 c 1
EndSplineSet
EndChar

StartChar: Ze
Encoding: 1047 1047 374
Width: 613
VWidth: 1046
Flags: W
LayerCount: 2
Fore
SplineSet
37 130 m 1
 123 186 l 1
 160 124 226 89 287 89 c 0
 399 89 455 152 455 220 c 0
 455 291 383 338 248 338 c 0
 223 338 210 336 182 333 c 1
 182 432 l 1
 280 432 331 443 353 449 c 0
 417 468 434 507 434 544 c 0
 434 594 394 649 297 649 c 0
 244 649 193 620 169 571 c 0
 168 568 166 567 166 564 c 0
 166 563 167 557 167 556 c 0
 167 542 161 537 149 527 c 1
 48 577 l 1
 83 652 154 745 294 745 c 0
 446 745 545 653 545 546 c 0
 545 482 514 424 450 392 c 1
 527 356 566 288 566 209 c 0
 566 92 478 -12 292 -12 c 0
 201 -12 90 34 37 130 c 1
EndSplineSet
EndChar

StartChar: Ii
Encoding: 1048 1048 375
Width: 613
Flags: W
LayerCount: 2
Fore
SplineSet
54 0 m 1
 54 739 l 1
 171 739 l 1
 175 733 178 728 178 719 c 0
 178 704 171 708 171 695 c 2
 171 246 l 1
 450 739 l 1
 556 739 l 1
 556 -1 l 1
 444 -1 l 1
 445 539 l 1
 145 0 l 1
 54 0 l 1
EndSplineSet
EndChar

StartChar: El
Encoding: 1051 1051 378
Width: 613
Flags: W
LayerCount: 2
Fore
SplineSet
2 48 m 1
 42 153 l 1
 61 132 57 126 68 110 c 0
 72 104 89 88 95 88 c 4
 96 88 97 92 99 97 c 0
 106 115 116 142 120 161 c 0
 154 316 167 542 171 655 c 0
 172 697 159 740 159 740 c 1
 549 740 l 1
 549 0 l 1
 439 0 l 1
 439 636 l 1
 283 636 l 1
 274 507 260 258 226 120 c 0
 219 90 209 56 191 29 c 0
 170 -3 120 -8 95 -8 c 0
 65 -8 31 5 2 48 c 1
EndSplineSet
Substitution2: "Bulgarian variant forms-1" El.bg
EndChar

StartChar: Ucyril
Encoding: 1059 1059 386
Width: 613
Flags: W
LayerCount: 2
Fore
SplineSet
16 740 m 1
 170 740 l 1
 173 707 166 712 166 700 c 0
 166 699 166 698 167 696 c 2
 334 357 l 1
 416 586 l 2
 442 659 452 701 458 740 c 1
 581 740 l 1
 563 682 551 648 520 570 c 2
 351 140 l 2
 339 110 328 81 302 53 c 0
 263 11 216 -8 175 -8 c 0
 102 -8 67 23 38 49 c 1
 97 152 l 1
 124 131 120 126 124 117 c 0
 126 113 143 92 174 92 c 0
 184 92 197 98 219 121 c 0
 234 136 244 157 253 177 c 2
 278 235 l 1
 16 740 l 1
EndSplineSet
EndChar

StartChar: Ef
Encoding: 1060 1060 387
Width: 613
VWidth: 1046
Flags: W
LayerCount: 2
Fore
SplineSet
365 185 m 1
 428 211 510 266 510 366 c 0
 510 471 428 535 366 564 c 1
 365 185 l 1
105 364 m 0
 105 262 183 209 251 184 c 1
 251 566 l 1
 186 540 105 467 105 364 c 0
-5 361 m 0
 -5 519 112 635 251 660 c 1
 251 738 l 1
 367 738 l 1
 371 730 375 723 375 718 c 0
 375 705 367 709 367 696 c 2
 367 660 l 1
 497 633 618 519 618 364 c 0
 618 192 471 109 363 84 c 1
 362 -1 l 1
 255 -1 l 1
 255 82 l 1
 139 108 -5 199 -5 361 c 0
EndSplineSet
EndChar

StartChar: Tse
Encoding: 1062 1062 389
Width: 613
Flags: W
LayerCount: 2
Fore
SplineSet
39 0 m 1
 39 739 l 1
 156 739 l 1
 160 732 163 725 163 719 c 0
 163 705 156 708 156 697 c 2
 156 101 l 1
 415 101 l 1
 415 739 l 1
 529 739 l 1
 534 731 537 725 537 719 c 0
 537 704 528 710 528 698 c 2
 528 101 l 1
 611 101 l 1
 611 -172 l 1
 498 -172 l 1
 498 0 l 1
 39 0 l 1
EndSplineSet
EndChar

StartChar: Che
Encoding: 1063 1063 390
Width: 613
Flags: W
LayerCount: 2
Fore
SplineSet
54 505 m 2
 54 739 l 1
 173 739 l 1
 177 731 179 726 179 718 c 0
 179 708 174 699 169 694 c 0
 166 691 167 692 167 688 c 2
 167 505 l 2
 167 470 168 439 183 407 c 0
 207 358 257 331 310 331 c 0
 362 331 412 357 437 406 c 0
 453 439 455 471 455 508 c 2
 455 739 l 1
 564 739 l 1
 564 0 l 1
 455 0 l 1
 455 270 l 1
 411 243 361 229 309 229 c 0
 217 229 129 269 85 349 c 0
 56 402 54 454 54 505 c 2
EndSplineSet
EndChar

StartChar: Sha
Encoding: 1064 1064 391
Width: 613
Flags: W
LayerCount: 2
Fore
SplineSet
29 0 m 1
 29 739 l 1
 146 739 l 1
 152 727 153 725 153 719 c 0
 153 708 146 708 146 697 c 2
 146 101 l 1
 256 101 l 1
 256 739 l 1
 370 739 l 1
 376 731 378 728 378 720 c 0
 378 708 370 709 370 699 c 2
 370 101 l 1
 475 101 l 1
 475 739 l 1
 589 739 l 1
 594 732 598 726 598 720 c 0
 598 709 589 710 589 699 c 2
 589 0 l 1
 29 0 l 1
EndSplineSet
EndChar

StartChar: Shcha
Encoding: 1065 1065 392
Width: 613
Flags: W
LayerCount: 2
Fore
SplineSet
3 0 m 1
 3 739 l 1
 120 739 l 1
 124 730 127 725 127 719 c 0
 127 708 120 708 120 697 c 2
 120 101 l 1
 230 101 l 1
 230 739 l 1
 345 739 l 1
 350 730 353 725 353 720 c 0
 353 709 344 708 344 699 c 2
 344 101 l 1
 450 101 l 1
 450 739 l 1
 564 739 l 1
 569 730 572 725 572 720 c 0
 572 709 563 709 563 699 c 2
 563 101 l 1
 611 101 l 1
 611 -172 l 1
 498 -172 l 1
 498 0 l 1
 3 0 l 1
EndSplineSet
EndChar

StartChar: Hard
Encoding: 1066 1066 393
Width: 613
Flags: W
LayerCount: 2
Fore
SplineSet
32 634 m 1
 32 739 l 1
 257 739 l 1
 257 449 l 1
 265 449 l 2
 346 449 416 449 481 406 c 0
 545 364 582 301 582 213 c 0
 582 134 535 58 450 23 c 0
 396 1 341 0 291 0 c 2
 144 0 l 1
 144 634 l 1
 32 634 l 1
257 103 m 1
 306 103 l 2
 338 103 366 104 395 116 c 0
 440 135 465 176 465 221 c 0
 465 266 438 310 389 332 c 0
 356 347 322 348 285 348 c 2
 257 348 l 1
 257 103 l 1
EndSplineSet
EndChar

StartChar: Yeri
Encoding: 1067 1067 394
Width: 613
Flags: W
LayerCount: 2
Fore
SplineSet
42 0 m 1
 42 739 l 1
 155 739 l 1
 158 733 162 725 162 719 c 0
 162 708 155 708 155 697 c 2
 155 445 l 1
 172 445 l 2
 229 445 277 444 333 403 c 0
 390 361 422 297 422 211 c 0
 422 133 381 58 305 23 c 0
 256 0 208 0 164 0 c 2
 42 0 l 1
155 103 m 1
 177 103 l 2
 205 103 223 104 246 116 c 0
 282 134 303 175 303 221 c 0
 303 267 281 312 242 333 c 0
 215 348 194 348 171 348 c 2
 155 348 l 1
 155 103 l 1
455 0 m 1
 455 739 l 1
 568 739 l 1
 572 731 575 725 575 719 c 0
 575 708 568 708 568 697 c 2
 568 0 l 1
 455 0 l 1
EndSplineSet
EndChar

StartChar: Soft
Encoding: 1068 1068 395
Width: 613
Flags: W
LayerCount: 2
Fore
SplineSet
52 0 m 1
 52 739 l 1
 165 739 l 1
 169 732 172 725 172 719 c 0
 172 708 165 709 165 697 c 2
 165 449 l 1
 265 449 l 2
 346 449 402 448 466 406 c 0
 530 364 567 301 567 213 c 0
 567 134 520 58 435 23 c 0
 381 1 326 0 276 0 c 2
 52 0 l 1
165 103 m 1
 291 103 l 2
 323 103 351 104 380 116 c 0
 425 135 450 176 450 221 c 0
 450 266 424 310 375 332 c 0
 342 347 307 348 270 348 c 2
 165 348 l 1
 165 103 l 1
EndSplineSet
EndChar

StartChar: Ecyrilrev
Encoding: 1069 1069 396
Width: 613
VWidth: 1046
Flags: W
LayerCount: 2
Fore
SplineSet
37 577 m 1
 72 652 143 745 283 745 c 0
 406 745 580 658 580 365 c 0
 580 81 413 -12 284 -12 c 0
 209 -12 105 22 47 130 c 1
 133 186 l 1
 168 120 231 89 279 89 c 0
 369 89 455 172 467 332 c 1
 179 332 l 1
 179 438 l 1
 465 438 l 1
 447 578 368 649 286 649 c 0
 234 649 186 619 158 571 c 0
 157 570 155 568 155 566 c 0
 155 563 156 558 156 556 c 0
 156 542 150 537 138 527 c 1
 37 577 l 1
EndSplineSet
EndChar

StartChar: Iu
Encoding: 1070 1070 397
Width: 613
Flags: W
LayerCount: 2
Fore
SplineSet
15 0 m 1
 15 739 l 1
 128 739 l 1
 131 733 135 725 135 719 c 0
 135 709 127 709 127 697 c 2
 127 439 l 1
 182 439 l 1
 199 668 307 748 395 748 c 0
 464 748 532 699 570 604 c 0
 602 525 605 435 605 368 c 0
 605 305 602 215 571 136 c 0
 533 38 464 -11 396 -11 c 0
 302 -11 190 80 180 333 c 1
 127 333 l 1
 127 0 l 1
 15 0 l 1
292 381 m 0
 292 157 358 100 395 100 c 0
 417 100 450 119 471 185 c 0
 490 243 492 313 492 358 c 0
 492 417 489 482 474 539 c 0
 453 618 415 639 392 639 c 0
 358 639 292 590 292 381 c 0
EndSplineSet
EndChar

StartChar: Ia
Encoding: 1071 1071 398
Width: 613
Flags: W
LayerCount: 2
Fore
SplineSet
28 0 m 1
 202 323 l 1
 115 354 58 436 58 530 c 0
 58 606 97 678 171 714 c 0
 221 739 271 739 319 739 c 2
 553 739 l 1
 553 0 l 1
 438 0 l 1
 438 311 l 1
 320 311 l 1
 156 0 l 1
 28 0 l 1
174 520 m 0
 174 481 194 444 231 427 c 0
 256 415 281 415 310 415 c 2
 438 415 l 1
 438 631 l 1
 319 631 l 2
 288 631 263 629 236 617 c 0
 196 598 174 560 174 520 c 0
EndSplineSet
EndChar

StartChar: be
Encoding: 1073 1073 400
Width: 613
Flags: W
LayerCount: 2
Fore
SplineSet
164 277 m 0
 164 167 223 90 313 90 c 0
 382 90 455 145 455 265 c 0
 455 397 377 451 309 451 c 0
 236 451 164 394 164 277 c 0
44 333 m 0
 44 401 51 484 77 554 c 0
 126 687 226 748 321 748 c 0
 350 748 401 763 405 770 c 0
 409 777 412 788 432 804 c 1
 490 701 l 1
 458 667 394 643 321 643 c 0
 285 643 218 630 184 518 c 1
 224 542 268 554 315 554 c 0
 447 554 572 453 572 269 c 0
 572 92 450 -14 312 -14 c 0
 222 -14 148 21 102 87 c 0
 52 159 44 250 44 333 c 0
EndSplineSet
Substitution2: "Macedonian-Serbian Italic subtable" be.mkd
EndChar

StartChar: ve
Encoding: 1074 1074 401
Width: 613
Flags: W
LayerCount: 2
Fore
SplineSet
76 0 m 1
 76 543 l 1
 285 543 l 0
 330 543 371 543 420 527 c 0
 495 504 524 454 524 402 c 0
 524 358 499 317 458 292 c 1
 530 265 553 211 553 156 c 0
 553 97 518 41 433 16 c 0
 380 0 334 0 284 0 c 0
 76 0 l 1
189 103 m 1
 298 103 l 0
 330 103 351 104 381 111 c 0
 426 122 435 142 435 165 c 0
 435 191 422 229 378 237 c 0
 343 244 315 243 278 243 c 0
 189 243 l 1
 189 103 l 1
189 344 m 1
 273 344 l 0
 306 344 332 344 364 350 c 0
 402 357 410 379 410 396 c 0
 410 411 404 426 360 435 c 0
 329 441 306 441 274 441 c 0
 189 441 l 1
 189 344 l 1
EndSplineSet
Substitution2: "Bulgarian variant forms-1" ve.bg
EndChar

StartChar: ge
Encoding: 1075 1075 402
Width: 613
Flags: W
LayerCount: 2
Fore
SplineSet
88 0 m 1
 88 544 l 1
 524 543 l 1
 524 443 l 1
 202 444 l 1
 202 0 l 1
 88 0 l 1
EndSplineSet
Substitution2: "Bulgarian variant forms-1" ge.bg
EndChar

StartChar: de
Encoding: 1076 1076 403
Width: 613
Flags: W
LayerCount: 2
Fore
SplineSet
42 100 m 1
 103 100 l 1
 105 101 106 107 108 112 c 16
 115 129 120 145 124 164 c 0
 144 252 157 363 165 462 c 0
 169 514 153 541 153 541 c 1
 548 541 l 1
 548 100 l 1
 609 100 l 1
 609 -172 l 1
 495 -172 l 1
 495 -1 l 1
 159 -1 l 1
 159 -171 l 1
 42 -171 l 1
 42 100 l 1
224 100 m 1
 433 100 l 1
 433 440 l 1
 275 440 l 1
 265 328 251 206 230 124 c 0
 228 116 226 107 224 100 c 1
EndSplineSet
Substitution2: "Bulgarian variant forms-1" de.bg
EndChar

StartChar: zhe
Encoding: 1078 1078 405
Width: 613
Flags: W
LayerCount: 2
Fore
SplineSet
-5 0 m 1
 190 294 l 1
 16 543 l 1
 78 543 l 2
 120 543 128 545 148 551 c 1
 248 378 l 1
 248 543 l 1
 361 543 l 1
 366 533 368 527 368 522 c 0
 368 510 360 510 360 499 c 2
 360 380 l 1
 456 551 l 1
 479 545 485 543 526 543 c 2
 587 543 l 1
 420 293 l 1
 618 0 l 1
 541 0 477 -5 477 -5 c 1
 357 199 l 1
 360 204 l 1
 360 0 l 1
 248 0 l 1
 248 211 l 1
 252 205 l 1
 136 -5 l 1
 136 -5 73 0 -5 0 c 1
EndSplineSet
Substitution2: "Bulgarian variant forms-1" zhe.bg
EndChar

StartChar: ze
Encoding: 1079 1079 406
Width: 613
VWidth: 1046
Flags: W
LayerCount: 2
Fore
SplineSet
74 88 m 1
 143 168 l 1
 167 140 220 93 312 93 c 0
 396 93 427 132 427 162 c 0
 427 180 427 226 293 226 c 0
 271 226 270 226 240 221 c 1
 240 337 l 1
 267 335 269 335 293 335 c 0
 396 335 416 352 416 381 c 0
 416 413 379 450 316 450 c 0
 233 450 191 394 189 387 c 0
 186 376 191 364 166 346 c 1
 89 437 l 1
 144 520 230 553 311 553 c 0
 435 553 533 465 533 381 c 0
 533 338 511 305 475 285 c 1
 522 261 543 211 543 163 c 0
 543 107 519 -13 311 -13 c 0
 198 -13 126 28 74 88 c 1
EndSplineSet
Substitution2: "Bulgarian variant forms-1" ze.bg
EndChar

StartChar: ii
Encoding: 1080 1080 407
Width: 613
Flags: W
LayerCount: 2
Fore
SplineSet
70 0 m 1
 70 542 l 1
 195 542 l 1
 197 535 198 529 198 524 c 0
 198 513 186 511 186 496 c 2
 186 183 l 1
 436 542 l 1
 542 542 l 1
 542 0 l 1
 430 0 l 1
 431 392 l 1
 159 0 l 1
 70 0 l 1
EndSplineSet
Substitution2: "Bulgarian variant forms-1" ii.bg
EndChar

StartChar: el
Encoding: 1083 1083 410
Width: 613
Flags: W
LayerCount: 2
Fore
SplineSet
2 47 m 1
 42 150 l 1
 75 116 63 116 68 109 c 0
 72 103 89 87 95 87 c 0
 96 87 97 91 99 96 c 0
 106 113 116 140 120 159 c 0
 140 248 153 360 161 461 c 0
 164 500 149 541 149 541 c 1
 544 541 l 1
 544 -1 l 1
 429 -1 l 1
 429 440 l 1
 271 440 l 1
 261 325 247 202 226 118 c 0
 219 89 209 55 191 28 c 0
 170 -3 120 -8 95 -8 c 0
 56 -8 30 9 2 47 c 1
EndSplineSet
Substitution2: "Bulgarian variant forms-1" el.bg
EndChar

StartChar: em
Encoding: 1084 1084 411
Width: 613
Flags: W
LayerCount: 2
Fore
SplineSet
43 -1 m 1
 43 542 l 1
 132 542 l 1
 307 298 l 1
 486 543 l 1
 571 543 l 1
 571 -1 l 1
 462 -1 l 1
 462 370 l 1
 325 174 l 1
 277 174 l 1
 152 365 l 1
 152 -1 l 1
 43 -1 l 1
EndSplineSet
EndChar

StartChar: en
Encoding: 1085 1085 412
Width: 613
Flags: W
LayerCount: 2
Fore
SplineSet
69 -1 m 1
 69 542 l 1
 195 542 l 1
 197 535 198 529 198 524 c 0
 198 511 186 511 186 496 c 2
 186 331 l 1
 430 331 l 1
 430 541 l 1
 553 541 l 1
 555 534 556 528 556 523 c 0
 556 510 544 510 544 495 c 2
 544 -2 l 1
 429 -2 l 1
 429 229 l 1
 186 229 l 1
 186 -1 l 1
 69 -1 l 1
EndSplineSet
EndChar

StartChar: pecyril
Encoding: 1087 1087 414
Width: 613
Flags: W
LayerCount: 2
Fore
SplineSet
69 0 m 1
 69 541 l 1
 544 541 l 1
 544 -1 l 1
 429 -1 l 1
 429 440 l 1
 186 440 l 1
 186 0 l 1
 69 0 l 1
EndSplineSet
Substitution2: "Bulgarian variant forms-1" pecyril.bg
EndChar

StartChar: te
Encoding: 1090 1090 417
Width: 613
Flags: W
LayerCount: 2
Fore
SplineSet
54 437 m 1
 54 543 l 1
 543 543 l 1
 543 437 l 1
 356 437 l 1
 356 -1 l 1
 242 -1 l 1
 242 437 l 1
 54 437 l 1
EndSplineSet
Substitution2: "Bulgarian variant forms-1" te.bg
EndChar

StartChar: ef
Encoding: 1092 1092 419
Width: 613
Flags: W
LayerCount: 2
Fore
SplineSet
252 788 m 1
 369 788 l 1
 369 547 l 1
 479 522 571 425 571 268 c 0
 571 117 480 18 369 -7 c 1
 369 -197 l 1
 252 -197 l 1
 252 -9 l 1
 130 18 43 126 43 267 c 0
 43 410 132 519 252 547 c 1
 252 788 l 1
252 84 m 1
 252 458 l 1
 201 433 159 370 159 274 c 0
 159 179 201 111 252 84 c 1
369 453 m 1
 369 86 l 1
 417 112 459 172 459 265 c 0
 459 365 415 426 369 453 c 1
EndSplineSet
EndChar

StartChar: tse
Encoding: 1094 1094 421
Width: 613
Flags: W
LayerCount: 2
Fore
SplineSet
67 -1 m 1
 67 542 l 1
 193 542 l 1
 195 535 196 529 196 524 c 0
 196 511 184 511 184 496 c 2
 184 101 l 1
 425 101 l 1
 425 542 l 1
 548 542 l 1
 550 535 551 529 551 524 c 0
 551 511 539 511 539 496 c 2
 539 101 l 1
 606 101 l 1
 606 -172 l 1
 493 -172 l 1
 493 -1 l 1
 67 -1 l 1
EndSplineSet
Substitution2: "Bulgarian variant forms-1" tse.bg
EndChar

StartChar: che
Encoding: 1095 1095 422
Width: 613
Flags: W
LayerCount: 2
Fore
SplineSet
70 409 m 2
 70 542 l 1
 195 542 l 1
 197 535 198 529 198 524 c 0
 198 512 186 512 186 496 c 2
 186 411 l 2
 186 376 187 339 204 307 c 0
 223 271 257 252 294 252 c 0
 339 252 383 281 405 320 c 0
 422 349 425 376 425 415 c 2
 425 542 l 1
 542 542 l 1
 542 -1 l 1
 425 -1 l 1
 426 217 l 1
 386 175 331 151 274 151 c 0
 198 151 126 192 91 266 c 0
 71 309 70 355 70 409 c 2
EndSplineSet
EndChar

StartChar: sha
Encoding: 1096 1096 423
Width: 613
Flags: W
LayerCount: 2
Fore
SplineSet
29 -1 m 1
 29 542 l 1
 155 542 l 1
 157 535 158 529 158 524 c 0
 158 510 146 510 146 496 c 2
 146 101 l 1
 256 101 l 1
 256 542 l 1
 379 542 l 1
 381 535 382 529 382 524 c 0
 382 510 370 510 370 496 c 2
 370 101 l 1
 475 101 l 1
 475 542 l 1
 598 542 l 1
 600 535 601 529 601 524 c 0
 601 510 589 510 589 496 c 2
 589 -1 l 1
 29 -1 l 1
EndSplineSet
Substitution2: "Bulgarian variant forms-1" sha.bg
EndChar

StartChar: shcha
Encoding: 1097 1097 424
Width: 613
Flags: W
LayerCount: 2
Fore
SplineSet
3 -1 m 1
 3 542 l 1
 129 542 l 1
 131 535 132 529 132 524 c 0
 132 510 120 510 120 496 c 2
 120 101 l 1
 230 101 l 1
 230 542 l 1
 353 542 l 1
 355 535 356 529 356 524 c 0
 356 510 344 510 344 496 c 2
 344 101 l 1
 450 101 l 1
 450 542 l 1
 572 542 l 1
 574 535 575 529 575 524 c 0
 575 511 563 510 563 496 c 2
 563 101 l 1
 611 101 l 1
 611 -172 l 1
 498 -172 l 1
 498 -1 l 1
 3 -1 l 1
EndSplineSet
Substitution2: "Bulgarian variant forms-1" shcha.bg
EndChar

StartChar: hard
Encoding: 1098 1098 425
Width: 613
Flags: W
LayerCount: 2
Fore
SplineSet
32 437 m 1
 32 543 l 1
 257 543 l 1
 257 340 l 1
 266 340 l 2
 374 340 432 332 471 305 c 0
 523 268 558 222 558 157 c 0
 558 95 496 36 432 16 c 0
 400 6 313 0 267 0 c 2
 144 0 l 1
 144 437 l 1
 32 437 l 1
257 103 m 1
 282 103 l 2
 314 103 352 104 378 111 c 0
 421 122 437 144 437 165 c 0
 437 189 415 229 374 237 c 0
 343 243 301 243 264 243 c 2
 257 243 l 1
 257 103 l 1
EndSplineSet
Substitution2: "Bulgarian variant forms-1" hard.bg
EndChar

StartChar: yeri
Encoding: 1099 1099 426
Width: 613
Flags: W
LayerCount: 2
Fore
SplineSet
43 0 m 1
 43 543 l 1
 156 543 l 1
 160 535 163 527 163 523 c 0
 163 512 156 512 156 501 c 2
 156 340 l 1
 165 340 l 2
 272 340 308 331 346 305 c 0
 400 268 423 220 423 157 c 0
 423 97 373 36 307 16 c 0
 276 6 212 0 166 0 c 2
 43 0 l 1
156 103 m 1
 180 103 l 2
 212 103 225 104 253 111 c 0
 294 122 302 141 302 165 c 0
 302 191 289 229 249 237 c 0
 216 244 197 243 164 243 c 2
 156 243 l 1
 156 103 l 1
455 0 m 1
 455 543 l 1
 568 543 l 1
 572 535 575 527 575 523 c 0
 575 513 568 513 568 501 c 0
 568 0 l 1
 455 0 l 1
EndSplineSet
EndChar

StartChar: soft
Encoding: 1100 1100 427
Width: 613
Flags: W
LayerCount: 2
Fore
SplineSet
92 0 m 1
 92 543 l 1
 205 543 l 1
 209 535 212 527 212 523 c 0
 212 512 205 512 205 501 c 2
 205 344 l 1
 250 344 l 2
 364 344 409 337 450 309 c 0
 506 271 530 223 530 159 c 0
 530 98 478 36 410 16 c 0
 377 6 308 0 262 0 c 2
 92 0 l 1
205 103 m 1
 276 103 l 2
 308 103 329 104 359 111 c 0
 404 122 413 142 413 165 c 0
 413 191 399 229 355 237 c 0
 320 244 292 243 255 243 c 2
 205 243 l 1
 205 103 l 1
EndSplineSet
Substitution2: "Bulgarian variant forms-1" soft.bg
EndChar

StartChar: ecyrilrev
Encoding: 1101 1101 428
Width: 613
VWidth: 1046
Flags: W
LayerCount: 2
Fore
SplineSet
56 437 m 1
 93 498 173 553 278 553 c 0
 445 553 565 433 565 271 c 0
 565 109 445 -13 283 -13 c 0
 180 -13 110 36 63 88 c 1
 132 168 l 1
 160 134 204 93 276 93 c 0
 362 93 430 152 444 243 c 1
 202 243 l 1
 202 339 l 1
 440 339 l 1
 420 410 358 450 283 450 c 0
 200 450 160 394 157 388 c 0
 153 381 164 368 133 346 c 1
 56 437 l 1
EndSplineSet
EndChar

StartChar: iu
Encoding: 1102 1102 429
Width: 613
Flags: W
LayerCount: 2
Fore
SplineSet
47 0 m 1
 47 543 l 1
 160 543 l 1
 164 535 167 529 167 522 c 0
 167 511 160 511 160 499 c 2
 160 340 l 1
 216 340 l 1
 235 472 306 554 396 554 c 0
 492 554 572 458 572 269 c 0
 572 87 494 -15 395 -15 c 0
 294 -15 218 90 211 244 c 1
 160 244 l 1
 160 0 l 1
 47 0 l 1
392 436 m 0
 371 436 331 399 331 274 c 0
 331 148 372 105 394 105 c 0
 413 105 454 137 454 265 c 0
 454 405 411 436 392 436 c 0
EndSplineSet
Substitution2: "Bulgarian variant forms-1" iu.bg
EndChar

StartChar: ia
Encoding: 1103 1103 430
Width: 613
Flags: W
LayerCount: 2
Fore
SplineSet
57 0 m 1
 213 214 l 1
 194 220 182 227 168 237 c 0
 115 275 92 323 92 386 c 0
 92 446 141 506 206 526 c 0
 236 535 284 543 321 543 c 2
 530 543 l 1
 530 0 l 1
 418 0 l 1
 418 198 l 1
 335 198 l 1
 187 0 l 1
 57 0 l 1
210 378 m 0
 210 350 219 314 259 306 c 0
 294 299 297 299 326 299 c 2
 418 299 l 1
 418 439 l 1
 309 439 l 2
 284 439 279 438 255 432 c 0
 220 423 210 403 210 378 c 0
EndSplineSet
EndChar

StartChar: Dje
Encoding: 1026 1026 433
Width: 613
Flags: W
LayerCount: 2
Fore
SplineSet
-1 635 m 1
 -1 740 l 1
 404 740 l 1
 404 635 l 1
 227 635 l 1
 227 455 l 1
 270 496 332 519 384 519 c 0
 446 519 539 499 570 431 c 0
 591 385 591 327 591 288 c 2
 591 66 l 2
 591 14 590 -45 559 -101 c 0
 521 -171 438 -207 363 -207 c 0
 329 -207 257 -207 171 -110 c 1
 244 -20 l 1
 271 -42 259 -48 266 -55 c 0
 275 -64 315 -102 365 -102 c 0
 396 -102 437 -85 453 -62 c 0
 475 -29 477 13 477 55 c 2
 477 285 l 2
 477 320 475 358 453 385 c 0
 442 398 391 411 354 411 c 0
 321 411 261 386 247 367 c 0
 237 353 230 320 227 301 c 1
 227 -1 l 1
 112 -1 l 1
 112 635 l 1
 -1 635 l 1
EndSplineSet
EndChar

StartChar: Ecyril
Encoding: 1028 1028 435
Width: 613
Flags: W
LayerCount: 2
Fore
SplineSet
43 365 m 0
 43 656 217 745 340 745 c 0
 398 745 522 726 586 576 c 1
 486 527 l 1
 467 539 467 548 467 556 c 0
 467 560 467 561 467 565 c 16
 467 567 466 568 465 570 c 0
 438 617 389 648 337 648 c 0
 256 648 177 577 159 439 c 1
 445 439 l 1
 445 333 l 1
 156 333 l 1
 168 171 255 90 344 90 c 0
 424 90 464 148 490 186 c 1
 577 130 l 1
 513 26 428 -12 339 -12 c 0
 208 -12 43 84 43 365 c 0
EndSplineSet
EndChar

StartChar: Lje
Encoding: 1033 1033 440
Width: 613
Flags: W
LayerCount: 2
Fore
SplineSet
2 48 m 1
 42 153 l 1
 68 124 66 116 68 110 c 0
 69 107 71 100 73 100 c 0
 78 101 77 146 78 159 c 0
 84 237 92 536 92 655 c 0
 92 697 80 740 80 740 c 1
 393 740 l 1
 397 733 400 729 400 720 c 0
 400 710 393 710 393 698 c 2
 393 446 l 1
 401 446 l 2
 454 446 494 443 538 403 c 0
 584 360 610 297 610 212 c 0
 610 135 577 60 514 24 c 0
 474 1 434 1 398 1 c 0
 280 1 l 1
 280 636 l 1
 204 636 l 1
 200 495 194 206 185 122 c 0
 175 23 136 -8 95 -8 c 0
 65 -8 31 5 2 48 c 1
393 104 m 1
 406 104 l 2
 422 104 436 105 451 116 c 0
 476 134 493 179 493 229 c 0
 493 280 475 328 448 350 c 0
 433 362 419 365 402 365 c 2
 393 365 l 1
 393 104 l 1
EndSplineSet
EndChar

StartChar: Nje
Encoding: 1034 1034 441
Width: 613
Flags: W
LayerCount: 2
Fore
SplineSet
16 0 m 1
 16 739 l 1
 133 739 l 1
 139 729 141 726 141 719 c 0
 141 707 133 708 133 697 c 2
 133 438 l 1
 267 438 l 1
 267 740 l 1
 380 740 l 1
 386 730 388 727 388 720 c 0
 388 709 380 709 380 698 c 2
 380 446 l 1
 394 446 l 2
 446 445 489 441 532 403 c 0
 581 360 608 298 608 212 c 0
 608 135 574 60 508 24 c 0
 466 1 424 1 386 1 c 0
 267 1 l 1
 267 337 l 1
 133 337 l 1
 133 0 l 1
 16 0 l 1
380 104 m 1
 397 104 l 2
 414 104 429 105 446 117 c 0
 473 136 491 179 491 229 c 0
 491 279 473 327 443 349 c 0
 427 360 409 365 395 365 c 2
 380 365 l 1
 380 104 l 1
EndSplineSet
EndChar

StartChar: Tshe
Encoding: 1035 1035 442
Width: 613
Flags: W
LayerCount: 2
Fore
SplineSet
15 635 m 1
 15 740 l 1
 420 740 l 1
 420 635 l 1
 243 635 l 1
 243 455 l 1
 286 496 347 519 399 519 c 0
 462 519 542 497 573 431 c 0
 594 385 594 329 594 290 c 2
 594 -1 l 1
 479 -1 l 1
 479 285 l 2
 479 320 478 358 456 385 c 0
 444 400 406 411 370 411 c 0
 337 411 276 386 262 367 c 0
 252 353 246 320 243 301 c 1
 243 -1 l 1
 128 -1 l 1
 128 635 l 1
 15 635 l 1
EndSplineSet
EndChar

StartChar: Dzhe
Encoding: 1039 1039 445
Width: 613
Flags: W
LayerCount: 2
Fore
SplineSet
49 0 m 1
 49 739 l 1
 166 739 l 1
 170 732 173 728 173 719 c 0
 173 709 166 709 166 697 c 2
 166 101 l 1
 455 101 l 1
 455 739 l 1
 569 739 l 1
 574 730 577 725 577 720 c 0
 577 709 568 709 568 699 c 2
 568 0 l 1
 370 0 l 1
 370 -172 l 1
 256 -172 l 1
 256 0 l 1
 49 0 l 1
EndSplineSet
EndChar

StartChar: dje
Encoding: 1106 1106 446
Width: 613
Flags: W
LayerCount: 2
Fore
SplineSet
31 614 m 1
 31 709 l 1
 105 709 l 1
 105 788 l 1
 230 788 l 1
 233 781 235 777 235 770 c 0
 235 763 231 760 228 757 c 0
 225 754 223 751 223 745 c 2
 223 709 l 1
 356 709 l 1
 356 614 l 1
 223 614 l 1
 223 476 l 1
 265 522 324 555 388 555 c 0
 456 555 518 517 546 455 c 0
 565 413 566 374 566 324 c 2
 566 47 l 2
 566 2 565 -43 540 -90 c 0
 500 -168 419 -207 337 -207 c 0
 311 -207 223 -207 152 -116 c 1
 224 -20 l 1
 257 -46 246 -51 250 -56 c 0
 253 -60 284 -102 342 -102 c 0
 382 -102 419 -81 437 -43 c 0
 449 -19 452 5 452 32 c 2
 452 319 l 2
 452 355 451 395 426 423 c 0
 410 442 387 450 364 450 c 0
 315 450 266 409 247 385 c 0
 227 360 223 340 223 307 c 2
 223 0 l 1
 105 0 l 1
 105 614 l 1
 31 614 l 1
EndSplineSet
EndChar

StartChar: ecyril
Encoding: 1108 1108 448
Width: 613
Flags: W
LayerCount: 2
Fore
SplineSet
61 271 m 0
 61 433 181 553 349 553 c 0
 425 553 520 523 571 436 c 1
 494 346 l 1
 459 366 472 381 467 389 c 0
 462 397 425 450 344 450 c 0
 270 450 209 409 188 340 c 1
 427 340 l 1
 427 244 l 1
 183 244 l 1
 197 153 265 95 351 95 c 0
 407 95 458 123 495 169 c 1
 564 88 l 1
 518 31 435 -13 344 -13 c 0
 182 -13 61 109 61 271 c 0
EndSplineSet
EndChar

StartChar: lje
Encoding: 1113 1113 453
Width: 613
Flags: W
LayerCount: 2
Fore
SplineSet
2 47 m 1
 42 150 l 1
 71 122 67 112 68 108 c 0
 69 106 71 98 73 98 c 0
 77 98 77 144 78 157 c 0
 82 205 85 336 89 457 c 0
 90 501 77 541 77 541 c 1
 393 541 l 1
 398 533 401 528 401 521 c 0
 401 511 393 511 393 500 c 2
 393 339 l 1
 483 339 513 330 546 303 c 0
 591 265 611 219 611 156 c 0
 611 97 570 36 513 15 c 0
 486 5 437 -1 399 -1 c 2
 278 -1 l 1
 279 437 l 1
 199 437 l 1
 195 307 191 173 185 120 c 0
 175 23 136 -8 95 -8 c 0
 72 -8 33 0 2 47 c 1
393 258 m 1
 393 102 l 1
 417 102 440 103 461 110 c 0
 492 121 500 143 500 171 c 0
 500 202 488 242 459 250 c 0
 433 257 421 258 393 258 c 1
EndSplineSet
EndChar

StartChar: nje
Encoding: 1114 1114 454
Width: 613
Flags: W
LayerCount: 2
Fore
SplineSet
16 -1 m 1
 16 542 l 1
 141 542 l 1
 143 535 144 529 144 524 c 0
 144 511 132 511 132 496 c 2
 132 331 l 1
 273 331 l 1
 273 542 l 1
 387 542 l 1
 391 534 394 528 394 522 c 0
 394 512 386 512 386 501 c 2
 386 339 l 1
 476 339 513 331 546 303 c 0
 591 265 611 219 611 156 c 0
 611 97 570 36 513 15 c 0
 486 5 430 -1 392 -1 c 2
 272 -1 l 1
 272 229 l 1
 132 229 l 1
 132 -1 l 1
 16 -1 l 1
386 102 m 1
 401 102 l 2
 425 102 439 102 461 110 c 0
 492 121 500 143 500 171 c 0
 500 202 488 242 459 250 c 0
 433 257 414 258 386 258 c 1
 386 102 l 1
EndSplineSet
EndChar

StartChar: tshe
Encoding: 1115 1115 455
Width: 613
Flags: W
LayerCount: 2
Fore
SplineSet
31 614 m 1
 31 709 l 1
 105 709 l 1
 105 788 l 1
 230 788 l 17
 233 780 235 775 235 770 c 0
 235 759 230 753 226 749 c 0
 223 746 223 746 223 745 c 2
 223 709 l 1
 356 709 l 1
 356 614 l 1
 223 614 l 1
 223 476 l 1
 265 522 324 555 388 555 c 0
 456 555 517 519 546 456 c 0
 567 411 567 366 567 326 c 2
 567 0 l 1
 452 0 l 1
 452 320 l 2
 452 356 451 395 426 423 c 0
 410 441 387 450 364 450 c 0
 315 450 266 409 247 385 c 0
 227 360 223 340 223 307 c 2
 223 0 l 1
 105 0 l 1
 105 614 l 1
 31 614 l 1
EndSplineSet
EndChar

StartChar: dzhe
Encoding: 1119 1119 458
Width: 613
Flags: W
LayerCount: 2
Fore
SplineSet
185 542 m 1
 187 535 188 529 188 524 c 0
 188 510 176 510 176 496 c 2
 176 101 l 1
 445 101 l 1
 445 542 l 1
 567 542 l 1
 569 535 570 529 570 524 c 0
 570 510 558 510 558 496 c 2
 558 -1 l 1
 370 -1 l 1
 370 -172 l 1
 256 -172 l 1
 256 -1 l 1
 60 -1 l 1
 60 542 l 1
 185 542 l 1
EndSplineSet
EndChar

StartChar: Geupturn
Encoding: 1168 1168 459
Width: 613
Flags: W
LayerCount: 2
Fore
SplineSet
65 0 m 1
 65 740 l 1
 434 740 l 1
 434 939 l 1
 549 939 l 1
 549 636 l 1
 174 636 l 1
 174 85 l 2
 174 44 175 33 175 0 c 1
 65 0 l 1
EndSplineSet
EndChar

StartChar: geupturn
Encoding: 1169 1169 460
Width: 613
Flags: W
LayerCount: 2
Fore
SplineSet
88 0 m 1
 88 544 l 1
 409 543 l 1
 409 691 l 1
 524 691 l 1
 524 448 l 1
 202 449 l 1
 202 0 l 1
 88 0 l 1
EndSplineSet
EndChar

StartChar: numero
Encoding: 8470 8470 461
Width: 613
Flags: W
LayerCount: 2
Fore
SplineSet
484 554 m 0
 540 554 585 489 585 347 c 0
 585 194 537 114 480 114 c 0
 419 114 376 204 376 333 c 0
 376 468 420 554 484 554 c 0
453 338 m 0
 453 235 476 203 481 203 c 0
 485 203 509 232 509 338 c 0
 509 444 486 467 481 467 c 0
 476 467 453 444 453 338 c 0
364 75 m 1
 603 75 l 1
 603 0 l 1
 364 0 l 1
 364 75 l 1
20 0 m 1
 20 739 l 1
 119 739 l 1
 231 322 l 1
 231 741 l 1
 338 741 l 1
 339 732 340 726 335 711 c 0
 332 705 331 705 331 699 c 2
 331 0 l 1
 248 0 l 1
 121 435 l 1
 121 0 l 1
 20 0 l 1
EndSplineSet
EndChar

StartChar: Hbar
Encoding: 294 294 462
Width: 613
Flags: W
LayerCount: 2
Fore
SplineSet
59 739 m 1
 176 739 l 1
 182 729 184 726 184 719 c 0
 184 705 176 710 176 695 c 2
 176 644 l 1
 435 644 l 1
 435 739 l 1
 549 739 l 1
 555 731 557 728 557 720 c 0
 557 706 549 710 549 699 c 2
 549 644 l 1
 599 644 l 1
 599 554 l 1
 549 554 l 1
 549 -1 l 1
 434 -1 l 1
 434 337 l 1
 176 337 l 1
 176 0 l 1
 59 0 l 1
 59 554 l 1
 15 554 l 1
 15 644 l 1
 59 644 l 1
 59 739 l 1
435 554 m 1
 176 554 l 1
 176 438 l 1
 435 438 l 1
 435 554 l 1
EndSplineSet
EndChar

StartChar: Tbar
Encoding: 358 358 485
Width: 613
Flags: W
LayerCount: 2
Fore
SplineSet
32 740 m 1
 574 740 l 1
 574 635 l 1
 356 635 l 1
 356 445 l 1
 524 445 l 1
 524 348 l 1
 356 348 l 1
 356 -1 l 1
 242 -1 l 1
 242 348 l 1
 86 348 l 1
 86 445 l 1
 242 445 l 1
 242 635 l 1
 32 635 l 1
 32 740 l 1
EndSplineSet
EndChar

StartChar: tbar
Encoding: 359 359 491
Width: 613
Flags: W
LayerCount: 2
Fore
SplineSet
219 685 m 1
 335 704 l 1
 343 689 343 688 343 681 c 0
 343 665 337 665 335 653 c 0
 330 630 325 571 323 543 c 1
 499 543 l 1
 499 441 l 1
 319 441 l 1
 315 408 313 375 312 343 c 1
 473 343 l 1
 473 246 l 1
 310 246 l 1
 310 244 l 2
 310 186 313 172 313 165 c 0
 317 114 356 99 389 99 c 0
 434 99 467 122 518 157 c 1
 556 60 l 1
 521 33 452 -10 365 -10 c 0
 306 -10 257 12 228 50 c 0
 193 97 194 152 194 197 c 0
 194 213 194 230 194 246 c 1
 84 246 l 1
 84 343 l 1
 197 343 l 1
 199 377 201 408 204 441 c 1
 78 441 l 1
 79 542 l 1
 209 542 l 1
 219 685 l 1
EndSplineSet
EndChar

StartChar: Uogonek
Encoding: 370 370 499
Width: 613
Flags: W
LayerCount: 2
Fore
SplineSet
54 739 m 1
 173 739 l 1
 179 725 179 725 179 719 c 0
 179 706 171 696 169 694 c 0
 167 691 167 692 167 688 c 2
 167 261 l 2
 167 226 168 194 183 163 c 0
 207 114 257 88 310 88 c 0
 362 88 412 113 437 162 c 0
 453 195 455 228 455 264 c 2
 455 739 l 1
 564 739 l 1
 564 263 l 2
 564 201 564 130 501 62 c 0
 490 50 458 13 429 -11 c 16
 389 -44 360 -73 350 -83 c 0
 342 -92 332 -103 332 -117 c 0
 332 -131 342 -142 360 -142 c 0
 366 -142 375 -141 387 -136 c 0
 408 -128 418 -122 433 -108 c 1
 433 -178 l 1
 409 -196 388 -209 345 -209 c 0
 281 -209 246 -176 246 -135 c 0
 246 -99 275 -57 328 -13 c 1
 322 -13 315 -13 309 -13 c 0
 217 -13 129 26 85 105 c 0
 56 157 54 209 54 259 c 2
 54 739 l 1
EndSplineSet
EndChar

StartChar: IJ
Encoding: 306 306 515
Width: 613
Flags: W
LayerCount: 2
Fore
SplineSet
15 -1 m 1
 15 99 l 1
 95 99 l 1
 95 639 l 1
 24 639 l 1
 24 739 l 1
 614 739 l 1
 614 639 l 1
 542 639 l 1
 542 71 l 2
 542 20 542 -37 511 -92 c 0
 473 -161 405 -199 329 -199 c 0
 271 -199 211 -184 137 -102 c 1
 210 -12 l 1
 225 -24 221 -35 232 -46 c 0
 241 -55 281 -94 331 -94 c 0
 361 -94 387 -80 405 -54 c 0
 427 -22 429 20 429 62 c 2
 429 77 l 1
 429 639 l 1
 209 639 l 1
 209 98 l 1
 310 98 l 1
 310 -1 l 1
 15 -1 l 1
EndSplineSet
EndChar

StartChar: ij
Encoding: 307 307 516
Width: 613
Flags: W
LayerCount: 2
Fore
SplineSet
15 0 m 1
 15 99 l 1
 144 99 l 1
 144 442 l 1
 23 442 l 1
 23 543 l 1
 549 543 l 1
 549 47 l 2
 549 2 548 -43 523 -90 c 0
 483 -168 401 -207 319 -207 c 0
 249 -207 169 -170 134 -116 c 1
 206 -20 l 1
 232 -40 222 -42 232 -56 c 0
 235 -60 267 -102 325 -102 c 0
 365 -102 402 -81 420 -43 c 0
 432 -19 432 5 432 32 c 2
 432 441 l 1
 261 441 l 1
 261 99 l 1
 364 99 l 1
 364 0 l 1
 15 0 l 1
128 702 m 0
 128 744 163 778 205 778 c 0
 247 778 282 744 282 702 c 0
 282 660 247 626 205 626 c 0
 163 626 128 660 128 702 c 0
415 702 m 0
 415 744 450 778 492 778 c 0
 534 778 568 744 568 702 c 0
 568 660 534 626 492 626 c 0
 450 626 415 660 415 702 c 0
EndSplineSet
EndChar

StartChar: napostrophe
Encoding: 329 329 519
Width: 613
Flags: W
LayerCount: 2
Fore
SplineSet
169 0 m 1
 169 542 l 1
 287 542 l 1
 287 478 l 1
 323 522 367 555 430 555 c 0
 498 555 559 519 588 456 c 0
 609 411 609 366 609 326 c 0
 609 0 l 1
 495 0 l 1
 495 320 l 0
 495 356 494 395 469 423 c 0
 453 441 430 450 407 450 c 0
 359 450 333 412 311 385 c 0
 291 360 287 340 287 307 c 0
 287 0 l 1
 169 0 l 1
EndSplineSet
Refer: 56 8217 N 1 0 0 1 -195 0 2
EndChar

StartChar: slong
Encoding: 383 383 526
Width: 613
Flags: W
LayerCount: 2
Fore
SplineSet
187 0 m 1
 187 548 l 2
 187 596 189 645 219 694 c 0
 260 761 338 796 418 796 c 0
 480 796 538 783 602 709 c 1
 554 612 l 1
 535 612 520 620 520 637 c 0
 520 640 520 641 519 643 c 16
 499 674 461 698 414 698 c 0
 374 698 336 681 317 646 c 0
 301 618 300 583 300 547 c 0
 300 543 300 541 300 537 c 18
 300 0 l 1
 187 0 l 1
EndSplineSet
EndChar

StartChar: endash
Encoding: 8211 8211 541
Width: 613
Flags: W
LayerCount: 2
Fore
SplineSet
111 443 m 1
 504 443 l 1
 504 334 l 1
 111 334 l 1
 111 443 l 1
EndSplineSet
EndChar

StartChar: emdash
Encoding: 8212 8212 542
Width: 613
Flags: W
LayerCount: 2
Fore
SplineSet
39 443 m 1
 584 443 l 1
 584 334 l 1
 39 334 l 1
 39 443 l 1
EndSplineSet
EndChar

StartChar: horizontalbar
Encoding: 8213 8213 543
Width: 613
Flags: W
LayerCount: 2
Fore
SplineSet
-15 443 m 1
 630 443 l 1
 630 334 l 1
 -15 334 l 1
 -15 443 l 1
EndSplineSet
EndChar

StartChar: quotereversed
Encoding: 8219 8219 545
Width: 613
Flags: W
LayerCount: 2
Fore
SplineSet
191 643 m 0
 191 711 237 757 289 757 c 0
 337 757 372 718 372 674 c 0
 372 633 342 615 332 608 c 0
 321 602 311 596 311 583 c 0
 311 571 321 556 327 548 c 0
 347 519 362 506 396 478 c 1
 331 430 l 1
 229 532 191 570 191 643 c 0
EndSplineSet
EndChar

StartChar: perthousand
Encoding: 8240 8240 547
Width: 613
Flags: W
LayerCount: 2
Fore
SplineSet
296 306 m 0
 354 306 398 235 398 146 c 0
 398 59 355 -12 297 -12 c 0
 238 -12 195 59 195 147 c 0
 195 237 239 306 296 306 c 0
295 228 m 1
 294 228 276 220 276 151 c 0
 276 73 295 67 296 67 c 0
 298 67 314 76 314 143 c 0
 314 225 295 228 295 228 c 1
505 306 m 0
 563 306 607 235 607 146 c 0
 607 59 564 -12 506 -12 c 0
 447 -12 404 59 404 147 c 0
 404 237 448 306 505 306 c 0
504 228 m 1
 503 228 485 220 485 151 c 0
 485 73 504 67 505 67 c 0
 507 67 523 76 523 143 c 0
 523 225 504 228 504 228 c 1
263 739 m 1
 359 739 l 1
 146 0 l 1
 54 -0 l 1
 263 739 l 1
117 753 m 0
 175 753 219 682 219 593 c 0
 219 506 176 435 118 435 c 0
 59 435 16 506 16 594 c 0
 16 684 60 753 117 753 c 0
116 675 m 1
 115 675 97 667 97 598 c 0
 97 520 116 514 117 514 c 0
 119 514 135 523 135 590 c 0
 135 672 116 675 116 675 c 1
EndSplineSet
EndChar

StartChar: minute
Encoding: 8242 8242 548
Width: 613
Flags: W
LayerCount: 2
Fore
SplineSet
301 758 m 1
 443 758 l 1
 321 523 l 1
 216 523 l 1
 301 758 l 1
EndSplineSet
EndChar

StartChar: nsuperior
Encoding: 8319 8319 552
Width: 613
Flags: W
LayerCount: 2
Fore
SplineSet
256 299 m 5
 152 299 l 1
 152 624 l 1
 256 624 l 1
 256 604 l 1
 281 621 307 632 338 632 c 0
 385 632 420 605 448 567 c 0
 460 551 462 532 462 522 c 0
 462 299 l 1
 361 299 l 1
 361 499 l 2
 361 513 360 522 351 528 c 0
 345 533 338 539 322 539 c 0
 299 539 278 542 265 525 c 0
 257 514 256 508 256 491 c 2
 256 299 l 5
EndSplineSet
EndChar

StartChar: franc
Encoding: 8355 8355 553
Width: 613
Flags: W
LayerCount: 2
Fore
SplineSet
223 0 m 1
 109 0 l 1
 109 228 l 1
 17 228 l 1
 17 331 l 1
 109 331 l 1
 109 384 l 1
 17 384 l 1
 17 486 l 1
 109 486 l 1
 109 740 l 1
 565 740 l 1
 565 637 l 1
 223 637 l 1
 223 486 l 1
 500 486 l 1
 500 384 l 1
 223 384 l 1
 223 331 l 1
 500 331 l 1
 500 228 l 1
 223 228 l 1
 223 0 l 1
EndSplineSet
EndChar

StartChar: lira
Encoding: 8356 8356 554
Width: 613
Flags: W
LayerCount: 2
Fore
SplineSet
527 665 m 1
 456 577 l 1
 419 607 435 604 426 612 c 0
 423 615 394 641 350 641 c 0
 295 641 238 604 238 520 c 0
 238 502 241 483 245 464 c 1
 366 464 l 1
 366 366 l 1
 268 366 l 1
 271 354 273 342 275 331 c 1
 366 331 l 1
 366 232 l 1
 279 232 l 1
 275 196 264 164 249 135 c 1
 252 135 251 135 253 135 c 0
 339 135 389 91 449 91 c 0
 496 91 521 115 541 133 c 1
 588 43 l 1
 563 23 512 -18 445 -18 c 0
 361 -18 312 35 233 35 c 0
 173 35 114 4 80 -15 c 1
 36 76 l 1
 115 110 118 113 132 133 c 0
 152 162 165 196 169 232 c 1
 75 232 l 1
 75 331 l 1
 163 331 l 1
 161 343 158 356 156 366 c 1
 75 366 l 1
 75 464 l 1
 133 464 l 1
 130 483 128 501 128 521 c 0
 128 655 234 739 352 739 c 0
 411 739 465 724 527 665 c 1
EndSplineSet
EndChar

StartChar: peseta
Encoding: 8359 8359 555
Width: 613
VWidth: 1046
Flags: W
LayerCount: 2
Fore
SplineSet
398 -12 m 0
 358 -12 325 16 308 54 c 0
 288 101 288 154 288 200 c 0
 288 272 290 370 293 441 c 1
 296 441 l 1
 291 403 267 359 245 339 c 0
 216 313 186 311 160 311 c 2
 112 311 l 1
 112 0 l 1
 15 0 l 1
 15 739 l 1
 156 739 l 2
 183 739 214 737 245 712 c 0
 273 689 308 623 308 543 c 1
 295 543 l 1
 303 688 l 1
 395 708 l 9
 397 699 399 689 399 686 c 0
 399 675 395 668 395 661 c 0
 394 641 391 568 390 543 c 1
 436 543 l 1
 450 564 480 570 496 570 c 0
 554 570 588 512 604 471 c 1
 574 373 l 1
 550 387 547 393 547 405 c 0
 547 410 547 410 547 411 c 0
 538 436 501 475 491 475 c 0
 489 475 471 461 471 418 c 0
 471 402 475 379 486 362 c 0
 497 345 537 332 568 295 c 0
 601 256 607 205 607 167 c 0
 607 87 572 -12 489 -12 c 0
 451 -12 435 -12 398 -12 c 0
112 631 m 1
 111 415 l 1
 150 415 l 2
 162 415 170 415 179 424 c 0
 194 439 205 478 205 520 c 0
 205 563 193 604 177 620 c 0
 166 631 159 631 146 631 c 2
 112 631 l 1
390 441 m 1
 388 441 l 1
 386 397 386 345 386 275 c 0
 386 196 387 176 387 171 c 0
 391 104 409 91 416 91 c 0
 436 91 461 90 489 90 c 0
 496 90 516 110 516 161 c 0
 516 179 513 204 502 221 c 0
 492 236 472 250 451 267 c 0
 432 282 386 327 386 403 c 0
 386 427 385 418 390 441 c 1
EndSplineSet
EndChar

StartChar: zerosuperior
Encoding: 8304 8304 556
Width: 613
Flags: W
LayerCount: 2
Fore
SplineSet
99 548 m 0
 99 683 202 770 308 770 c 0
 412 770 515 688 515 544 c 0
 515 379 406 296 309 296 c 0
 203 296 99 392 99 548 c 0
206 514 m 1
 371 654 l 1
 350 676 327 683 307 683 c 0
 265 683 203 643 203 556 c 0
 203 541 204 527 206 514 c 1
412 538 m 0
 412 555 410 572 408 586 c 1
 244 423 l 1
 266 396 290 385 312 385 c 0
 349 385 412 421 412 538 c 0
EndSplineSet
Substitution2: "Non-slashed zero-1" zerosuperior.noslash
EndChar

StartChar: fivesuperior
Encoding: 8309 8309 557
Width: 613
Flags: W
LayerCount: 2
Fore
SplineSet
130 532 m 1
 153 761 l 1
 489 761 l 1
 489 673 l 1
 248 673 l 1
 242 628 l 1
 267 634 289 636 313 636 c 0
 417 636 511 577 511 468 c 0
 511 354 413 296 306 296 c 0
 182 296 128 360 100 393 c 1
 191 446 l 1
 204 439 206 425 219 414 c 0
 231 404 262 384 305 384 c 0
 359 384 401 414 401 469 c 0
 401 526 357 555 303 555 c 0
 283 555 245 555 200 510 c 1
 130 532 l 1
EndSplineSet
EndChar

StartChar: sixsuperior
Encoding: 8310 8310 558
Width: 613
Flags: W
LayerCount: 2
Fore
SplineSet
142 662 m 0
 182 740 266 772 342 772 c 0
 423 772 463 742 503 711 c 1
 427 645 l 1
 394 660 402 667 395 671 c 0
 388 675 369 684 342 684 c 0
 310 684 248 677 228 614 c 1
 256 630 289 638 324 638 c 0
 415 638 505 578 505 470 c 0
 505 363 416 297 318 297 c 0
 261 297 203 318 164 364 c 0
 122 414 115 477 115 531 c 0
 115 570 120 620 142 662 c 0
399 466 m 0
 399 530 357 551 318 551 c 0
 284 551 247 531 225 504 c 1
 225 501 225 499 225 495 c 0
 225 429 268 385 320 385 c 0
 360 385 399 409 399 466 c 0
EndSplineSet
EndChar

StartChar: sevensuperior
Encoding: 8311 8311 559
Width: 613
Flags: W
LayerCount: 2
Fore
SplineSet
125 670 m 1
 125 761 l 1
 498 761 l 1
 498 713 l 1
 497 711 427 607 385 528 c 0
 340 443 326 391 288 304 c 17
 168 304 l 1
 211 401 239 459 292 553 c 16
 314 592 337 632 360 670 c 1
 125 670 l 1
EndSplineSet
EndChar

StartChar: eightsuperior
Encoding: 8312 8312 560
Width: 613
Flags: W
LayerCount: 2
Fore
SplineSet
136 652 m 0
 136 724 220 773 315 773 c 0
 406 773 488 727 488 656 c 0
 488 616 460 581 422 558 c 1
 472 531 507 490 507 442 c 0
 507 355 414 297 307 297 c 0
 202 297 108 354 108 439 c 0
 108 488 148 530 198 556 c 1
 161 579 136 613 136 652 c 0
398 443 m 0
 398 469 363 505 296 523 c 1
 246 505 218 472 218 446 c 0
 218 418 253 386 310 386 c 0
 366 386 398 417 398 443 c 0
381 635 m 0
 381 655 356 681 310 681 c 0
 265 681 242 657 242 639 c 0
 242 610 297 580 322 571 c 1
 362 590 381 616 381 635 c 0
EndSplineSet
EndChar

StartChar: ninesuperior
Encoding: 8313 8313 561
Width: 613
Flags: W
LayerCount: 2
Fore
SplineSet
477 414 m 0
 437 333 354 297 277 297 c 0
 198 297 155 328 113 359 c 1
 190 424 l 1
 222 410 213 403 222 398 c 0
 229 394 250 386 278 386 c 0
 315 386 354 400 374 436 c 1
 377 443 386 461 391 491 c 1
 363 476 331 468 297 468 c 0
 204 468 116 525 116 617 c 0
 116 709 204 772 304 772 c 0
 371 772 447 744 482 675 c 0
 497 645 504 608 504 557 c 0
 504 480 488 437 477 414 c 0
222 619 m 0
 222 576 260 555 303 555 c 0
 336 555 371 569 393 589 c 1
 394 595 394 596 394 600 c 0
 394 654 350 684 302 684 c 0
 259 684 222 662 222 619 c 0
EndSplineSet
EndChar

StartChar: careof
Encoding: 8453 8453 562
Width: 613
Flags: W
LayerCount: 2
Fore
SplineSet
314 688 m 1
 256 620 l 1
 229 639 236 644 223 659 c 0
 217 666 202 678 178 678 c 0
 143 678 114 654 114 604 c 0
 114 551 146 522 182 522 c 0
 212 522 224 535 254 568 c 1
 312 500 l 1
 289 474 252 432 178 432 c 0
 86 432 19 505 19 599 c 0
 19 693 87 766 181 766 c 0
 235 766 285 739 314 688 c 1
468 303 m 0
 544 303 614 245 614 147 c 0
 614 53 545 -7 466 -7 c 0
 383 -7 314 58 314 146 c 0
 314 235 384 303 468 303 c 0
520 146 m 0
 520 200 488 215 465 215 c 0
 440 215 410 197 410 150 c 0
 410 102 441 81 467 81 c 0
 490 81 520 97 520 146 c 0
EndSplineSet
Refer: 274 8260 N 1 0 0 1 0 0 2
EndChar

StartChar: litre
Encoding: 8467 8467 563
Width: 613
Flags: W
LayerCount: 2
Fore
SplineSet
401 105 m 0
 431 105 423 109 493 113 c 1
 491 0 l 9
 478 0 470 0 457 0 c 16
 444 0 412 1 401 1 c 0
 335 1 275 38 229 103 c 1
 203 91 177 79 103 79 c 1
 104 180 l 1
 131 180 147 180 179 195 c 1
 146 276 123 378 123 504 c 0
 123 590 149 796 305 796 c 0
 416 796 463 686 463 508 c 0
 463 395 410 257 320 170 c 1
 347 124 375 105 401 105 c 0
299 692 m 0
 283 692 240 637 244 501 c 0
 247 409 258 328 274 264 c 1
 319 334 346 423 346 491 c 0
 346 647 330 692 299 692 c 0
EndSplineSet
EndChar

StartChar: estimated
Encoding: 8494 8494 565
Width: 613
Flags: W
LayerCount: 2
Fore
SplineSet
317 748 m 0
 405 748 533 685 558 490 c 0
 562 463 564 436 564 405 c 0
 564 387 564 369 563 351 c 1
 185 351 l 1
 185 148 l 1
 231 87 293 68 335 68 c 0
 389 68 466 98 502 154 c 1
 549 100 l 1
 503 26 406 -12 328 -12 c 0
 182 -12 41 116 41 359 c 0
 41 624 187 748 317 748 c 0
185 422 m 1
 420 422 l 1
 420 614 l 1
 389 650 349 672 311 672 c 0
 277 672 225 653 185 597 c 1
 185 422 l 1
EndSplineSet
EndChar

StartChar: arrowleft
Encoding: 8592 8592 570
Width: 613
Flags: W
LayerCount: 2
Fore
SplineSet
209 109 m 1
 15 348 l 1
 15 383 l 1
 213 597 l 1
 270 517 l 1
 167 417 l 1
 599 417 l 1
 599 307 l 1
 164 307 l 1
 271 185 l 1
 209 109 l 1
EndSplineSet
EndChar

StartChar: arrowright
Encoding: 8594 8594 571
Width: 613
Flags: W
LayerCount: 2
Fore
SplineSet
406 109 m 1
 343 185 l 1
 450 307 l 1
 15 307 l 1
 15 417 l 1
 447 417 l 1
 344 517 l 1
 402 597 l 1
 599 383 l 1
 599 348 l 1
 406 109 l 1
EndSplineSet
EndChar

StartChar: arrowboth
Encoding: 8596 8596 572
Width: 613
Flags: W
LayerCount: 2
Fore
SplineSet
406 109 m 1
 343 185 l 1
 450 307 l 1
 164 307 l 1
 271 185 l 1
 209 109 l 1
 15 348 l 1
 15 383 l 1
 213 597 l 1
 270 517 l 1
 167 417 l 1
 447 417 l 1
 344 517 l 1
 402 597 l 1
 599 383 l 1
 599 348 l 1
 406 109 l 1
EndSplineSet
EndChar

StartChar: arrowupdn
Encoding: 8597 8597 573
Width: 613
Flags: W
LayerCount: 2
Fore
SplineSet
555 243 m 1
 319 -40 l 1
 278 -40 l 1
 58 247 l 1
 143 304 l 1
 250 168 l 1
 250 565 l 1
 129 416 l 1
 54 477 l 1
 291 760 l 1
 331 760 l 1
 551 473 l 1
 466 416 l 1
 359 561 l 1
 359 164 l 1
 480 304 l 1
 555 243 l 1
EndSplineSet
EndChar

StartChar: partialdiff
Encoding: 8706 8706 574
Width: 613
Flags: W
LayerCount: 2
Fore
SplineSet
313 466 m 0
 242 466 164 411 164 283 c 0
 164 156 238 90 313 90 c 0
 371 90 455 131 455 283 c 0
 455 434 367 466 313 466 c 0
126 769 m 1
 274 799 l 1
 365 744 572 620 572 304 c 0
 572 241 565 165 524 100 c 0
 478 26 398 -14 314 -14 c 0
 168 -14 43 106 43 272 c 0
 43 437 163 570 305 570 c 0
 342 570 377 559 407 543 c 1
 329 679 220 727 126 769 c 1
EndSplineSet
EndChar

StartChar: radical
Encoding: 8730 8730 580
Width: 613
Flags: W
LayerCount: 2
Fore
SplineSet
290 174 m 1
 527 795 l 1
 625 747 l 1
 343 0 l 1
 234 0 l 1
 123 339 l 1
 15 144 l 1
 15 355 l 1
 88 483 l 1
 189 483 l 1
 290 174 l 1
EndSplineSet
EndChar

StartChar: infinity
Encoding: 8734 8734 581
Width: 613
Flags: W
LayerCount: 2
Fore
SplineSet
300 304 m 1
 272 268 229 237 185 237 c 0
 107 237 42 327 42 408 c 0
 42 486 104 574 181 574 c 0
 240 574 286 541 314 504 c 1
 342 542 384 574 429 574 c 0
 507 574 572 484 572 403 c 0
 572 325 511 237 434 237 c 0
 376 237 329 267 300 304 c 1
424 334 m 0
 443 334 481 372 481 407 c 0
 481 441 445 478 428 478 c 0
 399 478 362 422 350 398 c 1
 370 363 397 334 424 334 c 0
190 477 m 0
 171 477 134 439 134 404 c 0
 134 370 170 333 187 333 c 0
 216 333 252 389 264 413 c 1
 244 448 217 477 190 477 c 0
EndSplineSet
EndChar

StartChar: orthogonal
Encoding: 8735 8735 582
Width: 613
Flags: W
LayerCount: 2
Fore
SplineSet
203 290 m 1
 515 290 l 1
 515 186 l 1
 99 186 l 1
 99 587 l 1
 203 587 l 1
 203 290 l 1
EndSplineSet
EndChar

StartChar: intersection
Encoding: 8745 8745 583
Width: 613
Flags: W
LayerCount: 2
Fore
SplineSet
54 72 m 1
 54 266 l 0
 54 320 56 375 86 430 c 0
 131 513 220 554 310 554 c 0
 402 554 490 513 534 431 c 0
 563 376 564 322 564 270 c 0
 564 72 l 1
 452 72 l 1
 452 271 l 0
 452 308 450 341 435 374 c 0
 411 425 361 453 308 453 c 0
 256 453 206 426 181 375 c 0
 165 341 164 306 164 268 c 0
 164 72 l 1
 54 72 l 1
EndSplineSet
EndChar

StartChar: integral
Encoding: 8747 8747 584
Width: 613
Flags: W
LayerCount: 2
Fore
SplineSet
369 45 m 2
 369 1 372 -46 347 -94 c 0
 308 -168 247 -207 164 -207 c 0
 75 -207 31 -157 -1 -116 c 1
 71 -20 l 1
 85 -30 90 -44 97 -56 c 0
 103 -67 113 -102 169 -102 c 0
 207 -102 224 -86 244 -45 c 0
 256 -21 256 4 256 32 c 0
 256 556 l 0
 256 603 258 650 288 697 c 0
 328 760 385 796 466 796 c 0
 543 796 582 766 630 709 c 1
 582 612 l 1
 571 612 550 612 548 637 c 8
 548 639 548 641 546 643 c 4
 524 677 507 698 462 698 c 0
 423 698 408 684 386 647 c 0
 370 620 369 587 369 552 c 0
 369 45 l 2
EndSplineSet
EndChar

StartChar: equivalence
Encoding: 8801 8801 587
Width: 613
Flags: W
LayerCount: 2
Fore
SplineSet
48 186 m 1
 566 186 l 1
 566 83 l 1
 48 83 l 1
 48 186 l 1
48 605 m 1
 566 605 l 1
 566 502 l 1
 48 502 l 1
 48 605 l 1
48 403 m 1
 566 403 l 1
 566 300 l 1
 48 300 l 1
 48 403 l 1
EndSplineSet
EndChar

StartChar: lthorizform
Encoding: 9472 9472 590
Width: 613
Flags: W
LayerCount: 2
Fore
SplineSet
0 368 m 0
 614 368 l 0
 614 289 l 0
 0 289 l 0
 0 368 l 0
EndSplineSet
EndChar

StartChar: ltvertform
Encoding: 9474 9474 591
Width: 613
Flags: W
LayerCount: 2
Fore
SplineSet
347 840 m 0
 347 -184 l 0
 268 -184 l 0
 268 840 l 0
 347 840 l 0
EndSplineSet
EndChar

StartChar: ltdnrtform
Encoding: 9484 9484 592
Width: 613
Flags: W
LayerCount: 2
Fore
SplineSet
268 368 m 5
 614 368 l 5
 614 289 l 5
 347 289 l 5
 347 -184 l 1
 268 -184 l 1
 268 368 l 5
EndSplineSet
EndChar

StartChar: ltdnleftform
Encoding: 9488 9488 593
Width: 613
Flags: W
LayerCount: 2
Fore
SplineSet
347 368 m 5
 347 -184 l 1
 268 -184 l 1
 268 289 l 5
 0 289 l 5
 0 368 l 5
 347 368 l 5
EndSplineSet
EndChar

StartChar: ltuprtform
Encoding: 9492 9492 594
Width: 613
Flags: W
LayerCount: 2
Fore
SplineSet
268 289 m 5
 268 840 l 1
 347 840 l 1
 347 368 l 5
 614 368 l 5
 614 289 l 5
 268 289 l 5
EndSplineSet
EndChar

StartChar: ltupleftform
Encoding: 9496 9496 595
Width: 613
Flags: W
LayerCount: 2
Fore
SplineSet
347 289 m 5
 0 289 l 5
 0 368 l 5
 268 368 l 5
 268 840 l 1
 347 840 l 1
 347 289 l 5
EndSplineSet
EndChar

StartChar: ltvertrightform
Encoding: 9500 9500 596
Width: 613
Flags: W
LayerCount: 2
Fore
SplineSet
268 840 m 1
 347 840 l 1
 347 368 l 5
 614 368 l 5
 614 289 l 5
 347 289 l 5
 347 -184 l 1
 268 -184 l 1
 268 840 l 1
EndSplineSet
EndChar

StartChar: ltvertleftform
Encoding: 9508 9508 597
Width: 613
Flags: W
LayerCount: 2
Fore
SplineSet
347 -184 m 1
 268 -184 l 1
 268 289 l 5
 0 289 l 5
 0 368 l 5
 268 368 l 5
 268 840 l 1
 347 840 l 1
 347 -184 l 1
EndSplineSet
EndChar

StartChar: ltdnhorizform
Encoding: 9516 9516 598
Width: 613
Flags: W
LayerCount: 2
Fore
SplineSet
614 368 m 5
 614 289 l 5
 347 289 l 5
 347 -184 l 1
 268 -184 l 1
 268 289 l 5
 0 289 l 5
 0 368 l 5
 614 368 l 5
EndSplineSet
EndChar

StartChar: ltuphorizform
Encoding: 9524 9524 599
Width: 613
Flags: W
LayerCount: 2
Fore
SplineSet
0 289 m 5
 0 368 l 5
 268 368 l 5
 268 840 l 1
 347 840 l 1
 347 368 l 5
 614 368 l 5
 614 289 l 5
 0 289 l 5
EndSplineSet
EndChar

StartChar: ltverthorizform
Encoding: 9532 9532 600
Width: 613
Flags: W
LayerCount: 2
Fore
SplineSet
347 289 m 5
 347 -184 l 1
 268 -184 l 1
 268 289 l 5
 0 289 l 5
 0 368 l 5
 268 368 l 5
 268 840 l 1
 347 840 l 1
 347 368 l 5
 614 368 l 5
 614 289 l 5
 347 289 l 5
EndSplineSet
EndChar

StartChar: dnrtdblform
Encoding: 9554 9554 603
Width: 613
Flags: W
LayerCount: 2
Fore
SplineSet
268 471 m 5
 614 471 l 5
 614 392 l 5
 347 392 l 5
 347 266 l 5
 614 266 l 5
 614 187 l 5
 347 187 l 5
 347 -184 l 1
 268 -184 l 1
 268 471 l 5
 268 471 l 5
EndSplineSet
EndChar

StartChar: dndblrtform
Encoding: 9555 9555 604
Width: 613
Flags: W
LayerCount: 2
Fore
SplineSet
165 368 m 5
 614 368 l 5
 614 289 l 5
 449 289 l 5
 449 -184 l 1
 370 -184 l 1
 370 289 l 5
 244 289 l 5
 244 -184 l 1
 165 -184 l 1
 165 368 l 5
EndSplineSet
EndChar

StartChar: dbldnrtform
Encoding: 9556 9556 605
Width: 613
Flags: W
LayerCount: 2
Fore
SplineSet
244 -184 m 1
 165 -184 l 1
 165 471 l 5
 614 471 l 5
 614 392 l 5
 244 392 l 5
 244 -184 l 1
370 266 m 5
 614 266 l 5
 614 187 l 5
 449 187 l 5
 449 -184 l 1
 370 -184 l 1
 370 266 l 5
EndSplineSet
EndChar

StartChar: dnleftdblform
Encoding: 9557 9557 606
Width: 613
Flags: W
LayerCount: 2
Fore
SplineSet
347 471 m 5
 347 471 l 5
 347 -184 l 1
 268 -184 l 1
 268 187 l 5
 0 187 l 5
 0 266 l 5
 268 266 l 5
 268 392 l 5
 0 392 l 5
 0 471 l 5
 347 471 l 5
EndSplineSet
EndChar

StartChar: dndblleftform
Encoding: 9558 9558 607
Width: 613
Flags: W
LayerCount: 2
Fore
SplineSet
449 368 m 1
 449 -184 l 1
 370 -184 l 1
 370 289 l 1
 244 289 l 1
 244 -184 l 1
 165 -184 l 1
 165 289 l 1
 0 289 l 1
 0 368 l 1
 449 368 l 1
EndSplineSet
EndChar

StartChar: dbldnleftform
Encoding: 9559 9559 608
Width: 613
Flags: W
LayerCount: 2
Fore
SplineSet
370 -184 m 1
 370 392 l 1
 0 392 l 1
 0 471 l 1
 449 471 l 1
 449 -184 l 1
 370 -184 l 1
244 266 m 1
 244 -184 l 1
 165 -184 l 1
 165 187 l 1
 0 187 l 1
 0 266 l 1
 244 266 l 1
EndSplineSet
EndChar

StartChar: uprtdblform
Encoding: 9560 9560 609
Width: 613
Flags: W
LayerCount: 2
Fore
SplineSet
268 184 m 5
 268 184 l 5
 268 840 l 1
 347 840 l 1
 347 468 l 5
 614 468 l 5
 614 390 l 5
 347 390 l 5
 347 264 l 5
 614 264 l 5
 614 185 l 5
 268 184 l 5
EndSplineSet
EndChar

StartChar: updblrtform
Encoding: 9561 9561 610
Width: 613
Flags: W
LayerCount: 2
Fore
SplineSet
165 287 m 5
 165 840 l 1
 244 840 l 1
 244 366 l 5
 370 366 l 5
 370 840 l 1
 449 840 l 1
 449 366 l 5
 614 366 l 5
 614 287 l 5
 165 287 l 5
EndSplineSet
EndChar

StartChar: dbluprtform
Encoding: 9562 9562 611
Width: 613
Flags: W
LayerCount: 2
Fore
SplineSet
244 840 m 1
 244 264 l 5
 614 264 l 5
 614 185 l 5
 165 185 l 5
 165 840 l 1
 244 840 l 1
370 390 m 5
 370 840 l 1
 449 840 l 1
 449 468 l 5
 614 468 l 5
 614 390 l 5
 370 390 l 5
EndSplineSet
EndChar

StartChar: upleftdblform
Encoding: 9563 9563 612
Width: 613
Flags: W
LayerCount: 2
Fore
SplineSet
347 184 m 5
 0 185 l 5
 0 264 l 5
 268 264 l 5
 268 390 l 5
 0 390 l 5
 0 468 l 5
 268 468 l 5
 268 840 l 1
 347 840 l 1
 347 184 l 5
 347 184 l 5
EndSplineSet
EndChar

StartChar: updblleftform
Encoding: 9564 9564 613
Width: 613
Flags: W
LayerCount: 2
Fore
SplineSet
449 287 m 1
 0 287 l 1
 0 366 l 1
 165 366 l 1
 165 840 l 1
 244 840 l 1
 244 366 l 1
 370 366 l 1
 370 840 l 1
 449 840 l 1
 449 287 l 1
EndSplineSet
EndChar

StartChar: dblupleftform
Encoding: 9565 9565 614
Width: 613
Flags: W
LayerCount: 2
Fore
SplineSet
370 840 m 1
 449 840 l 1
 449 185 l 1
 0 185 l 1
 0 264 l 1
 370 264 l 1
 370 840 l 1
244 390 m 1
 0 390 l 1
 0 468 l 1
 165 468 l 1
 165 840 l 1
 244 840 l 1
 244 390 l 1
EndSplineSet
EndChar

StartChar: vertrtdblform
Encoding: 9566 9566 615
Width: 613
Flags: W
LayerCount: 2
Fore
SplineSet
268 840 m 1
 347 840 l 1
 347 471 l 1
 614 471 l 1
 614 392 l 1
 347 392 l 1
 347 266 l 1
 614 266 l 1
 614 187 l 1
 347 187 l 1
 347 -184 l 1
 268 -184 l 1
 268 840 l 1
EndSplineSet
EndChar

StartChar: vertdblrtform
Encoding: 9567 9567 616
Width: 613
Flags: W
LayerCount: 2
Fore
SplineSet
244 -184 m 1
 165 -184 l 1
 165 840 l 1
 244 840 l 1
 244 -184 l 1
370 840 m 1
 449 840 l 1
 449 368 l 1
 614 368 l 1
 614 289 l 1
 449 289 l 1
 449 -184 l 1
 370 -184 l 1
 370 840 l 1
EndSplineSet
EndChar

StartChar: dblvertrtform
Encoding: 9568 9568 617
Width: 613
Flags: W
LayerCount: 2
Fore
SplineSet
244 -184 m 1
 165 -184 l 1
 165 840 l 1
 244 840 l 1
 244 -184 l 1
370 840 m 1
 449 840 l 1
 449 471 l 1
 614 471 l 1
 614 392 l 1
 370 392 l 1
 370 840 l 1
370 266 m 1
 614 266 l 1
 614 187 l 1
 449 187 l 1
 449 -184 l 1
 370 -184 l 1
 370 266 l 1
EndSplineSet
EndChar

StartChar: vertleftdblform
Encoding: 9569 9569 618
Width: 613
Flags: W
LayerCount: 2
Fore
SplineSet
347 840 m 1
 347 -184 l 1
 268 -184 l 1
 268 187 l 1
 0 187 l 1
 0 266 l 1
 268 266 l 1
 268 392 l 1
 0 392 l 1
 0 471 l 1
 268 471 l 1
 268 840 l 1
 347 840 l 1
EndSplineSet
EndChar

StartChar: vertdblleftform
Encoding: 9570 9570 619
Width: 613
Flags: W
LayerCount: 2
Fore
SplineSet
370 -184 m 1
 370 840 l 1
 449 840 l 1
 449 -184 l 1
 370 -184 l 1
244 840 m 1
 244 -184 l 1
 165 -184 l 1
 165 289 l 1
 0 289 l 1
 0 368 l 1
 165 368 l 1
 165 840 l 1
 244 840 l 1
EndSplineSet
EndChar

StartChar: dblvertleftform
Encoding: 9571 9571 620
Width: 613
Flags: W
LayerCount: 2
Fore
SplineSet
370 -184 m 1
 370 840 l 1
 449 840 l 1
 449 -184 l 1
 370 -184 l 1
244 840 m 1
 244 392 l 1
 0 392 l 1
 0 471 l 1
 165 471 l 1
 165 840 l 1
 244 840 l 1
244 266 m 1
 244 -184 l 1
 165 -184 l 1
 165 187 l 1
 0 187 l 1
 0 266 l 1
 244 266 l 1
EndSplineSet
EndChar

StartChar: dnhorizdblform
Encoding: 9572 9572 621
Width: 613
Flags: W
LayerCount: 2
Fore
SplineSet
0 471 m 1
 614 471 l 1
 614 392 l 1
 0 392 l 1
 0 471 l 1
0 266 m 1
 614 266 l 1
 614 187 l 1
 347 187 l 1
 347 -184 l 1
 268 -184 l 1
 268 187 l 1
 0 187 l 1
 0 266 l 1
EndSplineSet
EndChar

StartChar: dndblhorizform
Encoding: 9573 9573 622
Width: 613
Flags: W
LayerCount: 2
Fore
SplineSet
0 368 m 1
 614 368 l 1
 614 289 l 1
 449 289 l 1
 449 -184 l 1
 370 -184 l 1
 370 289 l 1
 244 289 l 1
 244 -184 l 1
 165 -184 l 1
 165 289 l 1
 0 289 l 1
 0 368 l 1
EndSplineSet
EndChar

StartChar: dbldnhorizform
Encoding: 9574 9574 623
Width: 613
Flags: W
LayerCount: 2
Fore
SplineSet
0 471 m 1
 614 471 l 1
 614 392 l 1
 0 392 l 1
 0 471 l 1
165 187 m 1
 0 187 l 1
 0 266 l 1
 244 266 l 1
 244 -184 l 1
 165 -184 l 1
 165 187 l 1
449 187 m 1
 449 -184 l 1
 370 -184 l 1
 370 266 l 1
 614 266 l 1
 614 187 l 1
 449 187 l 1
EndSplineSet
EndChar

StartChar: uphorizdblform
Encoding: 9575 9575 624
Width: 613
Flags: W
LayerCount: 2
Fore
SplineSet
0 185 m 1
 0 264 l 1
 614 264 l 1
 614 185 l 1
 0 185 l 1
0 390 m 1
 0 468 l 1
 268 468 l 1
 268 840 l 1
 347 840 l 1
 347 468 l 1
 614 468 l 1
 614 390 l 1
 0 390 l 1
EndSplineSet
EndChar

StartChar: updblhorizform
Encoding: 9576 9576 625
Width: 613
Flags: W
LayerCount: 2
Fore
SplineSet
0 287 m 1
 0 366 l 1
 165 366 l 1
 165 840 l 1
 244 840 l 1
 244 366 l 1
 370 366 l 1
 370 840 l 1
 449 840 l 1
 449 366 l 1
 614 366 l 1
 614 287 l 1
 0 287 l 1
EndSplineSet
EndChar

StartChar: dbluphorizform
Encoding: 9577 9577 626
Width: 613
Flags: W
LayerCount: 2
Fore
SplineSet
0 185 m 1
 0 264 l 1
 614 264 l 1
 614 185 l 1
 0 185 l 1
165 468 m 1
 165 840 l 1
 244 840 l 1
 244 390 l 1
 0 390 l 1
 0 468 l 1
 165 468 l 1
449 468 m 1
 614 468 l 1
 614 390 l 1
 370 390 l 1
 370 840 l 1
 449 840 l 1
 449 468 l 1
EndSplineSet
EndChar

StartChar: verthorizdblform
Encoding: 9578 9578 627
Width: 613
Flags: W
LayerCount: 2
Fore
SplineSet
268 266 m 1
 268 392 l 1
 0 392 l 1
 0 471 l 1
 268 471 l 1
 268 840 l 1
 347 840 l 1
 347 471 l 1
 614 471 l 1
 614 392 l 1
 347 392 l 1
 347 266 l 1
 614 266 l 1
 614 187 l 1
 347 187 l 1
 347 -184 l 1
 268 -184 l 1
 268 187 l 1
 0 187 l 1
 0 266 l 1
 268 266 l 1
EndSplineSet
EndChar

StartChar: vertdblhorizform
Encoding: 9579 9579 628
Width: 613
Flags: W
LayerCount: 2
Fore
SplineSet
165 368 m 1
 165 840 l 1
 244 840 l 1
 244 368 l 1
 370 368 l 1
 370 840 l 1
 449 840 l 1
 449 368 l 1
 614 368 l 1
 614 289 l 1
 449 289 l 1
 449 -184 l 1
 370 -184 l 1
 370 289 l 1
 244 289 l 1
 244 -184 l 1
 165 -184 l 1
 165 289 l 1
 0 289 l 1
 0 368 l 1
 165 368 l 1
EndSplineSet
EndChar

StartChar: dblverthorizform
Encoding: 9580 9580 629
Width: 613
Flags: W
LayerCount: 2
Fore
SplineSet
370 392 m 1
 370 840 l 1
 449 840 l 1
 449 471 l 1
 614 471 l 1
 614 392 l 1
 370 392 l 1
370 266 m 1
 614 266 l 1
 614 187 l 1
 449 187 l 1
 449 -184 l 1
 370 -184 l 1
 370 266 l 1
244 266 m 1
 244 -184 l 1
 165 -184 l 1
 165 187 l 1
 0 187 l 1
 0 266 l 1
 244 266 l 1
244 392 m 1
 0 392 l 1
 0 471 l 1
 165 471 l 1
 165 840 l 1
 244 840 l 1
 244 392 l 1
EndSplineSet
EndChar

StartChar: dnblock
Encoding: 9604 9604 630
Width: 613
Flags: W
LayerCount: 2
Fore
SplineSet
0 328 m 29
 614 328 l 29
 614 -184 l 29
 0 -184 l 29
 0 328 l 29
EndSplineSet
EndChar

StartChar: block
Encoding: 9608 9608 631
Width: 613
Flags: W
LayerCount: 2
Fore
SplineSet
0 840 m 25
 614 840 l 25
 614 -184 l 25
 0 -184 l 25
 0 840 l 25
EndSplineSet
EndChar

StartChar: lfblock
Encoding: 9612 9612 632
Width: 613
Flags: W
LayerCount: 2
Fore
SplineSet
0 840 m 25
 307 840 l 25
 307 -184 l 29
 0 -184 l 25
 0 840 l 25
EndSplineSet
EndChar

StartChar: shade
Encoding: 9618 9618 633
Width: 613
Flags: W
LayerCount: 2
Fore
SplineSet
0 840 m 1
 61 840 l 1
 61 788 l 1
 0 788 l 1
 0 840 l 1
123 840 m 1
 184 840 l 1
 184 788 l 1
 123 788 l 1
 123 737 l 1
 61 737 l 1
 61 788 l 1
 123 788 l 1
 123 840 l 1
246 840 m 1
 307 840 l 1
 307 788 l 1
 246 788 l 1
 246 737 l 1
 184 737 l 1
 184 788 l 1
 246 788 l 1
 246 840 l 1
369 840 m 1
 430 840 l 1
 430 788 l 1
 369 788 l 1
 369 737 l 1
 307 737 l 1
 307 788 l 1
 369 788 l 1
 369 840 l 1
492 840 m 1
 553 840 l 1
 553 788 l 1
 492 788 l 1
 492 737 l 1
 430 737 l 1
 430 788 l 1
 492 788 l 1
 492 840 l 1
553 788 m 1
 614 788 l 1
 614 737 l 1
 553 737 l 1
 553 788 l 1
61 737 m 1
 61 686 l 1
 0 686 l 1
 0 737 l 1
 61 737 l 1
61 686 m 1
 123 686 l 1
 123 635 l 1
 61 635 l 1
 61 686 l 1
123 686 m 1
 123 737 l 1
 184 737 l 1
 184 686 l 1
 123 686 l 1
184 686 m 1
 246 686 l 1
 246 635 l 1
 184 635 l 1
 184 686 l 1
246 686 m 1
 246 737 l 1
 307 737 l 1
 307 686 l 1
 246 686 l 1
307 686 m 1
 369 686 l 1
 369 635 l 1
 307 635 l 1
 307 686 l 1
369 686 m 1
 369 737 l 1
 430 737 l 1
 430 686 l 1
 369 686 l 1
430 686 m 1
 492 686 l 1
 492 635 l 1
 430 635 l 1
 430 686 l 1
492 686 m 1
 492 737 l 1
 553 737 l 1
 553 686 l 1
 492 686 l 1
553 686 m 1
 614 686 l 1
 614 635 l 1
 553 635 l 1
 553 686 l 1
61 635 m 1
 61 584 l 1
 0 584 l 1
 0 635 l 1
 61 635 l 1
61 584 m 1
 123 584 l 1
 123 532 l 1
 61 532 l 1
 61 584 l 1
123 584 m 1
 123 635 l 1
 184 635 l 1
 184 584 l 1
 123 584 l 1
184 584 m 1
 246 584 l 1
 246 532 l 1
 184 532 l 1
 184 584 l 1
246 584 m 1
 246 635 l 1
 307 635 l 1
 307 584 l 1
 246 584 l 1
307 584 m 1
 369 584 l 1
 369 532 l 1
 307 532 l 1
 307 584 l 1
369 584 m 1
 369 635 l 1
 430 635 l 1
 430 584 l 1
 369 584 l 1
430 584 m 1
 492 584 l 1
 492 532 l 1
 430 532 l 1
 430 584 l 1
492 584 m 1
 492 635 l 1
 553 635 l 1
 553 584 l 1
 492 584 l 1
553 584 m 1
 614 584 l 1
 614 532 l 1
 553 532 l 1
 553 584 l 1
61 532 m 1
 61 481 l 1
 0 481 l 1
 0 532 l 1
 61 532 l 1
61 481 m 1
 123 481 l 1
 123 430 l 1
 61 430 l 1
 61 481 l 1
123 481 m 1
 123 532 l 1
 184 532 l 1
 184 481 l 1
 123 481 l 1
184 481 m 1
 246 481 l 1
 246 430 l 1
 184 430 l 1
 184 481 l 1
246 481 m 1
 246 532 l 1
 307 532 l 1
 307 481 l 1
 246 481 l 1
307 481 m 1
 369 481 l 1
 369 430 l 1
 307 430 l 1
 307 481 l 1
369 481 m 1
 369 532 l 1
 430 532 l 1
 430 481 l 1
 369 481 l 1
430 481 m 1
 492 481 l 1
 492 430 l 1
 430 430 l 1
 430 481 l 1
492 481 m 1
 492 532 l 1
 553 532 l 1
 553 481 l 1
 492 481 l 1
553 481 m 1
 614 481 l 1
 614 430 l 1
 553 430 l 1
 553 481 l 1
61 430 m 1
 61 379 l 1
 0 379 l 1
 0 430 l 1
 61 430 l 1
61 379 m 1
 123 379 l 1
 123 328 l 1
 61 328 l 1
 61 379 l 1
123 379 m 1
 123 430 l 1
 184 430 l 1
 184 379 l 1
 123 379 l 1
184 379 m 1
 246 379 l 1
 246 328 l 1
 184 328 l 1
 184 379 l 1
246 379 m 1
 246 430 l 1
 307 430 l 1
 307 379 l 1
 246 379 l 1
307 379 m 1
 369 379 l 1
 369 328 l 1
 307 328 l 1
 307 379 l 1
369 379 m 1
 369 430 l 1
 430 430 l 1
 430 379 l 1
 369 379 l 1
430 379 m 1
 492 379 l 1
 492 328 l 1
 430 328 l 1
 430 379 l 1
492 379 m 1
 492 430 l 1
 553 430 l 1
 553 379 l 1
 492 379 l 1
553 379 m 1
 614 379 l 1
 614 328 l 1
 553 328 l 1
 553 379 l 1
61 328 m 1
 61 276 l 1
 0 276 l 1
 0 328 l 1
 61 328 l 1
61 276 m 1
 123 276 l 1
 123 225 l 1
 61 225 l 1
 61 276 l 1
123 276 m 1
 123 328 l 1
 184 328 l 1
 184 276 l 1
 123 276 l 1
184 276 m 1
 246 276 l 1
 246 225 l 1
 184 225 l 1
 184 276 l 1
246 276 m 1
 246 328 l 1
 307 328 l 1
 307 276 l 1
 246 276 l 1
307 276 m 1
 369 276 l 1
 369 225 l 1
 307 225 l 1
 307 276 l 1
369 276 m 1
 369 328 l 1
 430 328 l 1
 430 276 l 1
 369 276 l 1
430 276 m 1
 492 276 l 1
 492 225 l 1
 430 225 l 1
 430 276 l 1
492 276 m 1
 492 328 l 1
 553 328 l 1
 553 276 l 1
 492 276 l 1
553 276 m 1
 614 276 l 1
 614 225 l 1
 553 225 l 1
 553 276 l 1
61 225 m 1
 61 174 l 1
 0 174 l 1
 0 225 l 1
 61 225 l 1
61 174 m 1
 123 174 l 1
 123 123 l 1
 61 123 l 1
 61 174 l 1
123 174 m 1
 123 225 l 1
 184 225 l 1
 184 174 l 1
 123 174 l 1
184 174 m 1
 246 174 l 1
 246 123 l 1
 184 123 l 1
 184 174 l 1
246 174 m 1
 246 225 l 1
 307 225 l 1
 307 174 l 1
 246 174 l 1
307 174 m 1
 369 174 l 1
 369 123 l 1
 307 123 l 1
 307 174 l 1
369 174 m 1
 369 225 l 1
 430 225 l 1
 430 174 l 1
 369 174 l 1
430 174 m 1
 492 174 l 1
 492 123 l 1
 430 123 l 1
 430 174 l 1
492 174 m 1
 492 225 l 1
 553 225 l 1
 553 174 l 1
 492 174 l 1
553 174 m 1
 614 174 l 1
 614 123 l 1
 553 123 l 1
 553 174 l 1
61 123 m 1
 61 72 l 1
 0 72 l 1
 0 123 l 1
 61 123 l 1
61 72 m 1
 123 72 l 1
 123 20 l 1
 61 20 l 1
 61 72 l 1
123 72 m 1
 123 123 l 1
 184 123 l 1
 184 72 l 1
 123 72 l 1
184 72 m 1
 246 72 l 1
 246 20 l 1
 184 20 l 1
 184 72 l 1
246 72 m 1
 246 123 l 1
 307 123 l 1
 307 72 l 1
 246 72 l 1
307 72 m 1
 369 72 l 1
 369 20 l 1
 307 20 l 1
 307 72 l 1
369 72 m 1
 369 123 l 1
 430 123 l 1
 430 72 l 1
 369 72 l 1
430 72 m 1
 492 72 l 1
 492 20 l 1
 430 20 l 1
 430 72 l 1
492 72 m 1
 492 123 l 1
 553 123 l 1
 553 72 l 1
 492 72 l 1
553 72 m 1
 614 72 l 1
 614 20 l 1
 553 20 l 1
 553 72 l 1
61 20 m 1
 61 -31 l 1
 0 -31 l 1
 0 20 l 1
 61 20 l 1
61 -31 m 1
 123 -31 l 1
 123 -82 l 1
 61 -82 l 1
 61 -31 l 1
123 -31 m 1
 123 20 l 1
 184 20 l 1
 184 -31 l 1
 123 -31 l 1
184 -31 m 1
 246 -31 l 1
 246 -82 l 1
 184 -82 l 1
 184 -31 l 1
246 -31 m 1
 246 20 l 1
 307 20 l 1
 307 -31 l 1
 246 -31 l 1
307 -31 m 1
 369 -31 l 1
 369 -82 l 1
 307 -82 l 1
 307 -31 l 1
369 -31 m 1
 369 20 l 1
 430 20 l 1
 430 -31 l 1
 369 -31 l 1
430 -31 m 1
 492 -31 l 1
 492 -82 l 1
 430 -82 l 1
 430 -31 l 1
492 -31 m 1
 492 20 l 1
 553 20 l 1
 553 -31 l 1
 492 -31 l 1
553 -31 m 1
 614 -31 l 1
 614 -82 l 1
 553 -82 l 1
 553 -31 l 1
61 -82 m 1
 61 -133 l 1
 0 -133 l 1
 0 -82 l 1
 61 -82 l 1
61 -133 m 1
 123 -133 l 1
 123 -184 l 1
 61 -184 l 1
 61 -133 l 1
123 -133 m 1
 123 -82 l 1
 184 -82 l 1
 184 -133 l 1
 123 -133 l 1
184 -133 m 1
 246 -133 l 1
 246 -184 l 1
 184 -184 l 1
 184 -133 l 1
246 -133 m 1
 246 -82 l 1
 307 -82 l 1
 307 -133 l 1
 246 -133 l 1
307 -133 m 1
 369 -133 l 1
 369 -184 l 1
 307 -184 l 1
 307 -133 l 1
369 -133 m 1
 369 -82 l 1
 430 -82 l 1
 430 -133 l 1
 369 -133 l 1
430 -133 m 1
 492 -133 l 1
 492 -184 l 1
 430 -184 l 1
 430 -133 l 1
492 -133 m 1
 492 -82 l 1
 553 -82 l 1
 553 -133 l 1
 492 -133 l 1
553 -133 m 1
 614 -133 l 1
 614 -184 l 1
 553 -184 l 1
 553 -133 l 1
EndSplineSet
EndChar

StartChar: dkshade
Encoding: 9619 9619 634
Width: 613
Flags: W
LayerCount: 2
Fore
SplineSet
0 840 m 1
 61 840 l 1
 61 788 l 1
 123 788 l 1
 123 840 l 1
 184 840 l 1
 184 788 l 1
 246 788 l 1
 246 840 l 1
 307 840 l 1
 307 788 l 1
 369 788 l 1
 369 840 l 1
 430 840 l 1
 430 788 l 1
 492 788 l 1
 492 840 l 1
 553 840 l 1
 553 788 l 1
 614 788 l 1
 614 635 l 1
 553 635 l 1
 553 584 l 1
 614 584 l 1
 614 430 l 1
 553 430 l 1
 553 379 l 1
 614 379 l 1
 614 225 l 1
 553 225 l 1
 553 174 l 1
 614 174 l 1
 614 20 l 1
 553 20 l 1
 553 -31 l 1
 614 -31 l 1
 614 -184 l 1
 409 -184 205 -184 0 -184 c 1
 0 -133 l 1
 61 -133 l 1
 61 -82 l 1
 0 -82 l 1
 0 72 l 1
 61 72 l 1
 61 123 l 1
 0 123 l 1
 0 276 l 1
 61 276 l 1
 61 328 l 1
 0 328 l 1
 0 481 l 1
 61 481 l 1
 61 532 l 1
 0 532 l 1
 0 686 l 1
 61 686 l 1
 61 737 l 1
 0 737 l 1
 0 771 0 806 0 840 c 1
123 737 m 1
 123 686 l 1
 184 686 l 1
 184 737 l 1
 123 737 l 1
246 737 m 1
 246 686 l 1
 307 686 l 1
 307 737 l 1
 246 737 l 1
369 737 m 1
 369 686 l 1
 430 686 l 1
 430 737 l 1
 369 737 l 1
492 737 m 1
 492 686 l 1
 553 686 l 1
 553 737 l 1
 492 737 l 1
61 635 m 1
 61 584 l 1
 123 584 l 1
 123 635 l 1
 61 635 l 1
184 635 m 1
 184 584 l 1
 246 584 l 1
 246 635 l 1
 184 635 l 1
307 635 m 1
 307 584 l 1
 369 584 l 1
 369 635 l 1
 307 635 l 1
430 635 m 1
 430 584 l 1
 492 584 l 1
 492 635 l 1
 430 635 l 1
123 532 m 1
 123 481 l 1
 184 481 l 1
 184 532 l 1
 123 532 l 1
246 532 m 1
 246 481 l 1
 307 481 l 1
 307 532 l 1
 246 532 l 1
369 532 m 1
 369 481 l 1
 430 481 l 1
 430 532 l 1
 369 532 l 1
492 532 m 1
 492 481 l 1
 553 481 l 1
 553 532 l 1
 492 532 l 1
61 430 m 1
 61 379 l 1
 123 379 l 1
 123 430 l 1
 61 430 l 1
184 430 m 1
 184 379 l 1
 246 379 l 1
 246 430 l 1
 184 430 l 1
307 430 m 1
 307 379 l 1
 369 379 l 1
 369 430 l 1
 307 430 l 1
430 430 m 1
 430 379 l 1
 492 379 l 1
 492 430 l 1
 430 430 l 1
123 328 m 1
 123 276 l 1
 184 276 l 1
 184 328 l 1
 123 328 l 1
246 328 m 1
 246 276 l 1
 307 276 l 1
 307 328 l 1
 246 328 l 1
369 328 m 1
 369 276 l 1
 430 276 l 1
 430 328 l 1
 369 328 l 1
492 328 m 1
 492 276 l 1
 553 276 l 1
 553 328 l 1
 492 328 l 1
61 225 m 1
 61 174 l 1
 123 174 l 1
 123 225 l 1
 61 225 l 1
184 225 m 1
 184 174 l 1
 246 174 l 1
 246 225 l 1
 184 225 l 1
307 225 m 1
 307 174 l 1
 369 174 l 1
 369 225 l 1
 307 225 l 1
430 225 m 1
 430 174 l 1
 492 174 l 1
 492 225 l 1
 430 225 l 1
123 123 m 1
 123 72 l 1
 184 72 l 1
 184 123 l 1
 123 123 l 1
246 123 m 1
 246 72 l 1
 307 72 l 1
 307 123 l 1
 246 123 l 1
369 123 m 1
 369 72 l 1
 430 72 l 1
 430 123 l 1
 369 123 l 1
492 123 m 1
 492 72 l 1
 553 72 l 1
 553 123 l 1
 492 123 l 1
61 20 m 1
 61 -31 l 1
 123 -31 l 1
 123 20 l 1
 61 20 l 1
184 20 m 1
 184 -31 l 1
 246 -31 l 1
 246 20 l 1
 184 20 l 1
307 20 m 1
 307 -31 l 1
 369 -31 l 1
 369 20 l 1
 307 20 l 1
430 20 m 1
 430 -31 l 1
 492 -31 l 1
 492 20 l 1
 430 20 l 1
123 -82 m 1
 123 -133 l 1
 184 -133 l 1
 184 -82 l 1
 123 -82 l 1
246 -82 m 1
 246 -133 l 1
 307 -133 l 1
 307 -82 l 1
 246 -82 l 1
369 -82 m 1
 369 -133 l 1
 430 -133 l 1
 430 -82 l 1
 369 -82 l 1
492 -82 m 1
 492 -133 l 1
 553 -133 l 1
 553 -82 l 1
 492 -82 l 1
EndSplineSet
EndChar

StartChar: filledbox
Encoding: 9632 9632 635
Width: 613
Flags: W
LayerCount: 2
Fore
SplineSet
82 553 m 25
 532 553 l 29
 532 102 l 29
 82 102 l 25
 82 553 l 25
EndSplineSet
EndChar

StartChar: box
Encoding: 9633 9633 636
Width: 613
Flags: W
LayerCount: 2
Fore
SplineSet
82 553 m 25
 532 553 l 25
 532 102 l 25
 82 102 l 25
 82 553 l 25
154 481 m 25
 154 174 l 25
 461 174 l 25
 461 481 l 25
 154 481 l 25
EndSplineSet
EndChar

StartChar: smallboxfilled
Encoding: 9642 9642 637
Width: 613
Flags: W
LayerCount: 2
Fore
SplineSet
143 492 m 25
 471 492 l 25
 471 164 l 25
 143 164 l 25
 143 492 l 25
EndSplineSet
EndChar

StartChar: smallbox
Encoding: 9643 9643 638
Width: 613
Flags: W
LayerCount: 2
Fore
SplineSet
143 492 m 25
 471 492 l 25
 471 164 l 25
 143 164 l 25
 143 492 l 25
215 420 m 25
 215 236 l 29
 399 236 l 29
 399 420 l 25
 215 420 l 25
EndSplineSet
EndChar

StartChar: triagup
Encoding: 9650 9650 639
Width: 613
Flags: W
LayerCount: 2
Fore
SplineSet
307 553 m 1
 532 102 l 1
 82 102 l 1
 307 553 l 1
EndSplineSet
EndChar

StartChar: triagdn
Encoding: 9660 9660 640
Width: 613
Flags: W
LayerCount: 2
Fore
SplineSet
82 553 m 1
 532 553 l 1
 307 102 l 1
 82 553 l 1
EndSplineSet
EndChar

StartChar: lozenge
Encoding: 9674 9674 641
Width: 613
Flags: W
LayerCount: 2
Fore
SplineSet
307 655 m 25
 532 328 l 25
 307 0 l 25
 82 328 l 25
 307 655 l 25
307 563 m 25
 154 328 l 25
 307 92 l 25
 461 328 l 25
 307 563 l 25
EndSplineSet
EndChar

StartChar: circle
Encoding: 9675 9675 642
Width: 613
Flags: W
LayerCount: 2
Fore
SplineSet
123 328 m 0
 123 226 205 143 307 143 c 0
 409 143 492 226 492 328 c 0
 492 430 409 512 307 512 c 0
 205 512 123 430 123 328 c 0
41 328 m 0
 41 475 160 594 307 594 c 0
 454 594 573 475 573 328 c 0
 573 181 454 61 307 61 c 0
 160 61 41 181 41 328 c 0
EndSplineSet
EndChar

StartChar: circlesolid
Encoding: 9679 9679 643
Width: 613
Flags: W
LayerCount: 2
Fore
SplineSet
41 328 m 0
 41 475 160 594 307 594 c 0
 454 594 573 475 573 328 c 0
 573 181 454 61 307 61 c 0
 160 61 41 181 41 328 c 0
EndSplineSet
EndChar

StartChar: openbullet
Encoding: 9702 9702 644
Width: 613
Flags: W
LayerCount: 2
Fore
SplineSet
314 430 m 0
 269 430 233 395 233 352 c 0
 233 309 269 273 314 273 c 0
 359 273 394 309 394 352 c 0
 394 395 359 430 314 430 c 0
314 502 m 0
 397 502 466 435 466 352 c 0
 466 269 397 202 314 202 c 0
 231 202 162 269 162 352 c 0
 162 435 231 502 314 502 c 0
EndSplineSet
EndChar

StartChar: female
Encoding: 9792 9792 645
Width: 613
Flags: W
LayerCount: 2
Fore
SplineSet
79 526 m 0
 79 648 181 748 307 748 c 0
 433 748 536 648 536 526 c 0
 536 422 462 335 364 311 c 1
 364 241 l 1
 566 241 l 1
 566 137 l 1
 364 137 l 1
 364 0 l 1
 258 0 l 1
 258 137 l 1
 48 137 l 1
 48 241 l 1
 258 241 l 1
 258 309 l 1
 154 331 79 420 79 526 c 0
175 519 m 0
 175 446 234 387 307 387 c 0
 380 387 439 446 439 519 c 0
 439 592 380 651 307 651 c 0
 234 651 175 592 175 519 c 0
EndSplineSet
EndChar

StartChar: male
Encoding: 9794 9794 646
Width: 613
Flags: W
LayerCount: 2
Fore
SplineSet
58 473 m 1
 295 760 l 1
 335 760 l 1
 555 470 l 1
 470 415 l 1
 364 554 l 1
 364 419 l 1
 463 395 536 308 536 206 c 0
 536 85 433 -13 307 -13 c 0
 181 -13 79 85 79 206 c 0
 79 310 155 397 254 420 c 1
 254 558 l 1
 133 414 l 1
 58 473 l 1
175 215 m 0
 175 142 234 83 307 83 c 0
 380 83 439 142 439 215 c 0
 439 288 380 347 307 347 c 0
 234 347 175 288 175 215 c 0
EndSplineSet
EndChar

StartChar: spade
Encoding: 9824 9824 647
Width: 613
Flags: W
LayerCount: 2
Fore
SplineSet
26 391 m 0
 26 565 289 753 289 753 c 1
 298 753 l 1
 298 753 560 565 560 391 c 0
 560 323 559 313 531 263 c 0
 511 227 470 207 428 207 c 0
 427 207 427 207 426 207 c 0
 408 207 368 229 335 260 c 1
 335 68 l 1
 488 68 l 1
 488 -1 l 1
 106 -1 l 1
 106 69 l 1
 252 69 l 1
 252 262 l 1
 219 231 178 207 160 207 c 0
 159 207 159 207 158 207 c 0
 116 207 73 227 53 263 c 0
 25 313 26 323 26 391 c 0
EndSplineSet
EndChar

StartChar: club
Encoding: 9827 9827 648
Width: 613
Flags: W
LayerCount: 2
Fore
SplineSet
561 358 m 0
 561 263 499 208 430 208 c 0
 394 208 360 224 335 250 c 1
 335 68 l 1
 488 68 l 1
 488 -1 l 1
 106 -1 l 1
 106 69 l 1
 252 69 l 1
 252 246 l 1
 228 221 196 208 162 208 c 0
 89 208 25 269 25 357 c 0
 25 446 89 510 163 510 c 0
 170 510 178 509 185 508 c 1
 169 532 161 561 161 595 c 0
 161 684 224 748 298 748 c 0
 364 748 428 695 428 596 c 0
 428 560 419 531 405 507 c 1
 414 509 423 510 432 510 c 0
 498 510 561 457 561 358 c 0
EndSplineSet
EndChar

StartChar: heart
Encoding: 9829 9829 649
Width: 613
Flags: W
LayerCount: 2
Fore
SplineSet
560 472 m 8
 560 261 297 0 297 0 c 0
 288 0 l 0
 288 0 26 261 26 472 c 16
 26 540 26 594 47 645 c 0
 65 689 95 753 158 753 c 0
 159 753 159 753 160 753 c 0
 246 753 272 690 293 622 c 1
 315 688 340 753 426 753 c 0
 427 753 427 753 428 753 c 0
 500 753 529 690 543 645 c 0
 558 596 560 540 560 472 c 8
EndSplineSet
EndChar

StartChar: diamond
Encoding: 9830 9830 650
Width: 613
Flags: W
LayerCount: 2
Fore
SplineSet
534 376 m 5
 298 -1 l 1
 289 -1 l 1
 65 376 l 5
 289 753 l 1
 298 753 l 1
 534 376 l 5
EndSplineSet
EndChar

StartChar: musicalnote
Encoding: 9834 9834 651
Width: 613
Flags: W
LayerCount: 2
Fore
SplineSet
327 104 m 0
 299 28 219 -16 147 -16 c 0
 85 -16 41 17 41 67 c 0
 41 78 43 90 48 103 c 0
 74 174 159 225 236 225 c 0
 241 225 247 225 252 224 c 1
 252 670 l 1
 252 739 l 1
 289 740 l 1
 298 740 l 1
 298 740 552 562 552 395 c 0
 552 309 500 250 426 220 c 1
 426 294 l 1
 451 318 466 352 466 395 c 0
 466 472 384 553 335 594 c 1
 335 146 l 2
 335 133 333 120 327 104 c 0
EndSplineSet
EndChar

StartChar: Yat
Encoding: 1122 1122 656
Width: 613
Flags: W
LayerCount: 2
Fore
SplineSet
257 103 m 1
 306 103 l 2
 338 103 366 104 395 116 c 0
 440 135 465 176 465 221 c 0
 465 266 438 310 389 332 c 0
 356 347 322 348 285 348 c 10
 257 348 l 1
 257 103 l 1
257 534 m 1
 257 449 l 1
 269 449 l 2
 350 449 416 449 481 406 c 0
 545 364 582 301 582 213 c 0
 582 134 535 58 450 23 c 0
 396 1 341 0 291 0 c 2
 144 0 l 1
 144 532 l 1
 32 532 l 1
 32 622 l 1
 144 622 l 1
 144 739 l 1
 264 739 l 1
 267 730 269 727 269 721 c 0
 269 711 264 706 260 702 c 8
 259 701 257 699 257 697 c 18
 257 623 l 1
 464 623 l 1
 464 534 l 1
 257 534 l 1
EndSplineSet
EndChar

StartChar: yat
Encoding: 1123 1123 657
Width: 613
Flags: W
LayerCount: 2
Fore
SplineSet
257 103 m 1
 282 103 l 2
 314 103 352 104 378 111 c 0
 421 122 437 144 437 165 c 0
 437 189 415 229 374 237 c 0
 343 243 308 243 271 243 c 2
 257 243 l 1
 257 103 l 1
144 437 m 1
 32 437 l 1
 32 543 l 1
 144 543 l 1
 144 702 l 1
 267 702 l 1
 277 675 264 665 260 662 c 0
 257 660 257 656 257 652 c 26
 257 543 l 1
 422 543 l 1
 422 437 l 1
 257 437 l 1
 257 336 l 1
 371 336 431 329 471 301 c 0
 523 265 558 219 558 155 c 0
 558 94 496 36 432 16 c 0
 400 6 313 0 267 0 c 2
 144 0 l 1
 144 437 l 1
EndSplineSet
EndChar

StartChar: fita
Encoding: 1139 1139 659
Width: 613
Flags: W
LayerCount: 2
Fore
SplineSet
572 269 m 0
 572 92 450 -14 312 -14 c 0
 166 -14 43 103 43 267 c 0
 43 433 167 554 315 554 c 0
 447 554 572 453 572 269 c 0
309 451 m 0
 236 451 164 391 164 274 c 0
 164 156 237 90 313 90 c 0
 382 90 455 145 455 265 c 0
 455 397 377 451 309 451 c 0
414 244 m 1
 208 244 l 1
 208 340 l 1
 414 340 l 1
 414 244 l 1
EndSplineSet
EndChar

StartChar: acute.cap.pl
Encoding: 65544 -1 662
Width: 613
Flags: W
LayerCount: 2
Fore
SplineSet
308 802 m 1
 411 802 l 1
 355 639 l 1
 271 652 l 1
 308 802 l 1
EndSplineSet
EndChar

StartChar: acute.pl
Encoding: 65545 -1 663
Width: 613
Flags: W
LayerCount: 2
Fore
SplineSet
301 840 m 1
 421 814 l 1
 364 614 l 1
 267 631 l 1
 301 840 l 1
EndSplineSet
EndChar

StartChar: uni2574
Encoding: 9588 9588 678
Width: 613
VWidth: 1046
Flags: W
LayerCount: 2
Fore
SplineSet
346 289 m 1
 0 289 l 1
 0 367 l 1
 346 367 l 1
 346 289 l 1
EndSplineSet
EndChar

StartChar: uni2575
Encoding: 9589 9589 679
Width: 613
VWidth: 1046
Flags: W
LayerCount: 2
Fore
SplineSet
346 289 m 1
 267 289 l 1
 267 838 l 1
 346 838 l 1
 346 289 l 1
EndSplineSet
EndChar

StartChar: uni2576
Encoding: 9590 9590 680
Width: 613
VWidth: 1046
Flags: W
LayerCount: 2
Fore
SplineSet
267 289 m 1
 267 367 l 1
 613 367 l 1
 613 289 l 1
 267 289 l 1
EndSplineSet
EndChar

StartChar: uni2577
Encoding: 9591 9591 681
Width: 613
VWidth: 1046
Flags: W
LayerCount: 2
Fore
SplineSet
346 367 m 1
 346 -184 l 1
 267 -184 l 1
 267 367 l 1
 346 367 l 1
EndSplineSet
EndChar

StartChar: hvhorizform
Encoding: 9473 9473 682
Width: 613
VWidth: 1046
Flags: W
LayerCount: 2
Fore
SplineSet
0 408 m 1
 613 408 l 1
 613 248 l 1
 0 248 l 1
 0 408 l 1
EndSplineSet
EndChar

StartChar: hvvertform
Encoding: 9475 9475 683
Width: 613
VWidth: 1046
Flags: W
LayerCount: 2
Fore
SplineSet
387 838 m 1
 387 -184 l 1
 226 -184 l 1
 226 838 l 1
 387 838 l 1
EndSplineSet
EndChar

StartChar: dnltrthvform
Encoding: 9485 9485 684
Width: 613
VWidth: 1046
Flags: W
LayerCount: 2
Fore
SplineSet
267 -184 m 1
 267 408 l 1
 613 408 l 1
 613 248 l 1
 346 248 l 1
 346 -184 l 1
 267 -184 l 1
EndSplineSet
EndChar

StartChar: dnhvrtltform
Encoding: 9486 9486 685
Width: 613
VWidth: 1046
Flags: W
LayerCount: 2
Fore
SplineSet
226 367 m 1
 613 367 l 1
 613 289 l 1
 387 289 l 1
 387 -184 l 1
 226 -184 l 1
 226 367 l 1
EndSplineSet
EndChar

StartChar: hvdnrtform
Encoding: 9487 9487 686
Width: 613
VWidth: 1046
Flags: W
LayerCount: 2
Fore
SplineSet
226 -184 m 1
 226 408 l 1
 613 408 l 1
 613 248 l 1
 387 248 l 1
 387 -184 l 1
 226 -184 l 1
EndSplineSet
EndChar

StartChar: dnltlefthvform
Encoding: 9489 9489 687
Width: 613
VWidth: 1046
Flags: W
LayerCount: 2
Fore
SplineSet
267 248 m 1
 0 248 l 1
 0 408 l 1
 346 408 l 1
 346 -184 l 1
 267 -184 l 1
 267 248 l 1
EndSplineSet
EndChar

StartChar: dnhvleftltform
Encoding: 9490 9490 688
Width: 613
VWidth: 1046
Flags: W
LayerCount: 2
Fore
SplineSet
387 367 m 1
 387 -184 l 1
 226 -184 l 1
 226 289 l 1
 0 289 l 1
 0 367 l 1
 387 367 l 1
EndSplineSet
EndChar

StartChar: hvdnleftform
Encoding: 9491 9491 689
Width: 613
VWidth: 1046
Flags: W
LayerCount: 2
Fore
SplineSet
226 248 m 1
 0 248 l 1
 0 408 l 1
 387 408 l 1
 387 -184 l 1
 226 -184 l 1
 226 248 l 1
EndSplineSet
EndChar

StartChar: upltrthvform
Encoding: 9493 9493 690
Width: 613
VWidth: 1046
Flags: W
LayerCount: 2
Fore
SplineSet
346 408 m 1
 613 408 l 1
 613 248 l 1
 267 248 l 1
 267 838 l 1
 346 838 l 1
 346 408 l 1
EndSplineSet
EndChar

StartChar: uphvrtltform
Encoding: 9494 9494 691
Width: 613
VWidth: 1046
Flags: W
LayerCount: 2
Fore
SplineSet
613 289 m 1
 226 289 l 1
 226 838 l 1
 387 838 l 1
 387 367 l 1
 613 367 l 1
 613 289 l 1
EndSplineSet
EndChar

StartChar: hvuprtform
Encoding: 9495 9495 692
Width: 613
VWidth: 1046
Flags: W
LayerCount: 2
Fore
SplineSet
613 248 m 1
 226 248 l 1
 226 838 l 1
 387 838 l 1
 387 408 l 1
 613 408 l 1
 613 248 l 1
EndSplineSet
EndChar

StartChar: upltlefthvform
Encoding: 9497 9497 693
Width: 613
VWidth: 1046
Flags: W
LayerCount: 2
Fore
SplineSet
346 248 m 1
 0 248 l 1
 0 408 l 1
 267 408 l 1
 267 838 l 1
 346 838 l 1
 346 248 l 1
EndSplineSet
EndChar

StartChar: uphvleftltform
Encoding: 9498 9498 694
Width: 613
VWidth: 1046
Flags: W
LayerCount: 2
Fore
SplineSet
226 367 m 1
 226 838 l 1
 387 838 l 1
 387 289 l 1
 0 289 l 1
 0 367 l 1
 226 367 l 1
EndSplineSet
EndChar

StartChar: hvupleftform
Encoding: 9499 9499 695
Width: 613
VWidth: 1046
Flags: W
LayerCount: 2
Fore
SplineSet
387 248 m 1
 0 248 l 1
 0 408 l 1
 226 408 l 1
 226 838 l 1
 387 838 l 1
 387 248 l 1
EndSplineSet
EndChar

StartChar: uni2578
Encoding: 9592 9592 696
Width: 613
VWidth: 1046
Flags: W
LayerCount: 2
Fore
SplineSet
346 248 m 1
 0 248 l 1
 0 408 l 1
 346 408 l 1
 346 248 l 1
EndSplineSet
EndChar

StartChar: uni2579
Encoding: 9593 9593 697
Width: 613
VWidth: 1046
Flags: W
LayerCount: 2
Fore
SplineSet
387 289 m 1
 226 289 l 1
 226 838 l 1
 387 838 l 1
 387 289 l 1
EndSplineSet
EndChar

StartChar: uni257A
Encoding: 9594 9594 698
Width: 613
VWidth: 1046
Flags: W
LayerCount: 2
Fore
SplineSet
267 248 m 1
 267 408 l 1
 613 408 l 1
 613 248 l 1
 267 248 l 1
EndSplineSet
EndChar

StartChar: uni257B
Encoding: 9595 9595 699
Width: 613
VWidth: 1046
Flags: W
LayerCount: 2
Fore
SplineSet
387 367 m 1
 387 -184 l 1
 226 -184 l 1
 226 367 l 1
 387 367 l 1
EndSplineSet
EndChar

StartChar: vertltrthvform
Encoding: 9501 9501 700
Width: 613
VWidth: 1046
Flags: W
LayerCount: 2
Fore
SplineSet
346 408 m 1
 613 408 l 1
 613 248 l 1
 346 248 l 1
 346 -184 l 1
 267 -184 l 1
 267 838 l 1
 346 838 l 1
 346 408 l 1
EndSplineSet
EndChar

StartChar: uphvrtdnltform
Encoding: 9502 9502 701
Width: 613
VWidth: 1046
Flags: W
LayerCount: 2
Fore
SplineSet
613 289 m 1
 524 289 435 289 346 289 c 1
 346 -184 l 1
 267 -184 l 1
 267 289 l 1
 226 289 l 1
 226 838 l 1
 387 838 l 1
 387 367 l 1
 613 367 l 1
 613 289 l 1
EndSplineSet
EndChar

StartChar: dnhvrtupltform
Encoding: 9503 9503 702
Width: 613
VWidth: 1046
Flags: W
LayerCount: 2
Fore
SplineSet
267 367 m 1
 267 838 l 1
 346 838 l 1
 346 367 l 1
 435 367 524 367 613 367 c 1
 613 289 l 1
 387 289 l 1
 387 -184 l 1
 226 -184 l 1
 226 367 l 1
 267 367 l 1
EndSplineSet
EndChar

StartChar: verthvrtltform
Encoding: 9504 9504 703
Width: 613
VWidth: 1046
Flags: W
LayerCount: 2
Fore
SplineSet
226 -184 m 1
 226 838 l 1
 387 838 l 1
 387 367 l 1
 613 367 l 1
 613 289 l 1
 387 289 l 1
 387 -184 l 1
 226 -184 l 1
EndSplineSet
EndChar

StartChar: dnltrtuphvform
Encoding: 9505 9505 704
Width: 613
VWidth: 1046
Flags: W
LayerCount: 2
Fore
SplineSet
346 248 m 1
 346 -184 l 1
 267 -184 l 1
 267 248 l 1
 226 248 l 1
 226 838 l 1
 387 838 l 1
 387 408 l 1
 613 408 l 1
 613 248 l 1
 346 248 l 1
EndSplineSet
EndChar

StartChar: upltrtdnhvform
Encoding: 9506 9506 705
Width: 613
VWidth: 1046
Flags: W
LayerCount: 2
Fore
SplineSet
226 -184 m 1
 226 408 l 1
 267 408 l 1
 267 838 l 1
 346 838 l 1
 346 408 l 1
 613 408 l 1
 613 248 l 1
 387 248 l 1
 387 -184 l 1
 226 -184 l 1
EndSplineSet
EndChar

StartChar: hvvertrtform
Encoding: 9507 9507 706
Width: 613
VWidth: 1046
Flags: W
LayerCount: 2
Fore
SplineSet
387 408 m 1
 613 408 l 1
 613 248 l 1
 387 248 l 1
 387 -184 l 1
 226 -184 l 1
 226 838 l 1
 387 838 l 1
 387 408 l 1
EndSplineSet
EndChar

StartChar: vtltlefthvform
Encoding: 9509 9509 707
Width: 613
VWidth: 1046
Flags: W
LayerCount: 2
Fore
SplineSet
346 838 m 1
 346 -184 l 1
 267 -184 l 1
 267 248 l 1
 0 248 l 1
 0 408 l 1
 267 408 l 1
 267 838 l 1
 346 838 l 1
EndSplineSet
EndChar

StartChar: uphvleftdnltform
Encoding: 9510 9510 708
Width: 613
VWidth: 1046
Flags: W
LayerCount: 2
Fore
SplineSet
226 367 m 1
 226 838 l 1
 387 838 l 1
 387 289 l 1
 346 289 l 1
 346 -184 l 1
 267 -184 l 1
 267 289 l 1
 178 289 89 289 0 289 c 1
 0 367 l 1
 226 367 l 1
EndSplineSet
EndChar

StartChar: dnhvleftupltform
Encoding: 9511 9511 709
Width: 613
VWidth: 1046
Flags: W
LayerCount: 2
Fore
SplineSet
387 367 m 1
 387 -184 l 1
 226 -184 l 1
 226 289 l 1
 0 289 l 1
 0 367 l 1
 89 367 178 367 267 367 c 1
 267 838 l 1
 346 838 l 1
 346 367 l 1
 387 367 l 1
EndSplineSet
EndChar

StartChar: verthvleftltform
Encoding: 9512 9512 710
Width: 613
VWidth: 1046
Flags: W
LayerCount: 2
Fore
SplineSet
226 289 m 1
 0 289 l 1
 0 367 l 1
 226 367 l 1
 226 838 l 1
 387 838 l 1
 387 -184 l 1
 226 -184 l 1
 226 289 l 1
EndSplineSet
EndChar

StartChar: dnltleftuphvform
Encoding: 9513 9513 711
Width: 613
VWidth: 1046
Flags: W
LayerCount: 2
Fore
SplineSet
346 248 m 1
 346 -184 l 1
 267 -184 l 1
 267 248 l 1
 0 248 l 1
 0 408 l 1
 226 408 l 1
 226 838 l 1
 387 838 l 1
 387 248 l 1
 346 248 l 1
EndSplineSet
EndChar

StartChar: upltleftdnhvform
Encoding: 9514 9514 712
Width: 613
VWidth: 1046
Flags: W
LayerCount: 2
Fore
SplineSet
226 248 m 1
 0 248 l 1
 0 408 l 1
 267 408 l 1
 267 838 l 1
 346 838 l 1
 346 408 l 1
 387 408 l 1
 387 -184 l 1
 226 -184 l 1
 226 248 l 1
EndSplineSet
EndChar

StartChar: hvvertleftform
Encoding: 9515 9515 713
Width: 613
VWidth: 1046
Flags: W
LayerCount: 2
Fore
SplineSet
226 408 m 1
 226 838 l 1
 387 838 l 1
 387 -184 l 1
 226 -184 l 1
 226 248 l 1
 0 248 l 1
 0 408 l 1
 226 408 l 1
EndSplineSet
EndChar

StartChar: lefthvrtdnltform
Encoding: 9517 9517 714
Width: 613
VWidth: 1046
Flags: W
LayerCount: 2
Fore
SplineSet
267 248 m 1
 0 248 l 1
 0 408 l 1
 346 408 l 1
 346 367 l 1
 613 367 l 1
 613 289 l 1
 346 289 l 1
 346 131 346 -26 346 -184 c 1
 267 -184 l 1
 267 248 l 1
EndSplineSet
EndChar

StartChar: rthvleftdnltform
Encoding: 9518 9518 715
Width: 613
VWidth: 1046
Flags: W
LayerCount: 2
Fore
SplineSet
267 -184 m 1
 267 -26 267 131 267 289 c 1
 0 289 l 1
 0 367 l 1
 267 367 l 1
 267 408 l 1
 613 408 l 1
 613 248 l 1
 346 248 l 1
 346 -184 l 1
 267 -184 l 1
EndSplineSet
EndChar

StartChar: dnlthorizhvform
Encoding: 9519 9519 716
Width: 613
VWidth: 1046
Flags: W
LayerCount: 2
Fore
SplineSet
0 408 m 1
 613 408 l 1
 613 248 l 1
 346 248 l 1
 346 -184 l 1
 267 -184 l 1
 267 248 l 1
 0 248 l 1
 0 408 l 1
EndSplineSet
EndChar

StartChar: dnhvhorizltform
Encoding: 9520 9520 717
Width: 613
VWidth: 1046
Flags: W
LayerCount: 2
Fore
SplineSet
0 367 m 1
 613 367 l 1
 613 289 l 1
 387 289 l 1
 387 -184 l 1
 226 -184 l 1
 226 289 l 1
 0 289 l 1
 0 367 l 1
EndSplineSet
EndChar

StartChar: rtltrtdnhvform
Encoding: 9521 9521 718
Width: 613
VWidth: 1046
Flags: W
LayerCount: 2
Fore
SplineSet
226 248 m 1
 0 248 l 1
 0 408 l 1
 387 408 l 1
 387 367 l 1
 613 367 l 1
 613 289 l 1
 387 289 l 1
 387 -184 l 1
 226 -184 l 1
 226 248 l 1
EndSplineSet
EndChar

StartChar: leftltrtdnhvform
Encoding: 9522 9522 719
Width: 613
VWidth: 1046
Flags: W
LayerCount: 2
Fore
SplineSet
226 289 m 1
 0 289 l 1
 0 367 l 1
 226 367 l 1
 226 408 l 1
 613 408 l 1
 613 248 l 1
 387 248 l 1
 387 -184 l 1
 226 -184 l 1
 226 289 l 1
EndSplineSet
EndChar

StartChar: hvdnhorizform
Encoding: 9523 9523 720
Width: 613
VWidth: 1046
Flags: W
LayerCount: 2
Fore
SplineSet
0 408 m 1
 613 408 l 1
 613 248 l 1
 387 248 l 1
 387 -184 l 1
 226 -184 l 1
 226 248 l 1
 0 248 l 1
 0 408 l 1
EndSplineSet
EndChar

StartChar: lefthvrtupltform
Encoding: 9525 9525 721
Width: 613
VWidth: 1046
Flags: W
LayerCount: 2
Fore
SplineSet
346 248 m 1
 0 248 l 1
 0 408 l 1
 267 408 l 1
 267 838 l 1
 346 838 l 1
 346 681 346 524 346 367 c 1
 613 367 l 1
 613 289 l 1
 346 289 l 1
 346 248 l 1
EndSplineSet
EndChar

StartChar: rthvleftupltform
Encoding: 9526 9526 722
Width: 613
VWidth: 1046
Flags: W
LayerCount: 2
Fore
SplineSet
346 408 m 1
 613 408 l 1
 613 248 l 1
 267 248 l 1
 267 289 l 1
 0 289 l 1
 0 367 l 1
 267 367 l 1
 267 524 267 681 267 838 c 1
 346 838 l 1
 346 408 l 1
EndSplineSet
EndChar

StartChar: uplthorizhvform
Encoding: 9527 9527 723
Width: 613
VWidth: 1046
Flags: W
LayerCount: 2
Fore
SplineSet
613 248 m 1
 0 248 l 1
 0 408 l 1
 267 408 l 1
 267 838 l 1
 346 838 l 1
 346 408 l 1
 613 408 l 1
 613 248 l 1
EndSplineSet
EndChar

StartChar: uphvhorizltform
Encoding: 9528 9528 724
Width: 613
VWidth: 1046
Flags: W
LayerCount: 2
Fore
SplineSet
226 367 m 1
 226 838 l 1
 387 838 l 1
 387 367 l 1
 613 367 l 1
 613 289 l 1
 0 289 l 1
 0 367 l 1
 226 367 l 1
EndSplineSet
EndChar

StartChar: rtltleftuphvform
Encoding: 9529 9529 725
Width: 613
VWidth: 1046
Flags: W
LayerCount: 2
Fore
SplineSet
387 248 m 1
 0 248 l 1
 0 408 l 1
 226 408 l 1
 226 838 l 1
 387 838 l 1
 387 367 l 1
 613 367 l 1
 613 289 l 1
 387 289 l 1
 387 248 l 1
EndSplineSet
EndChar

StartChar: leftltrtuphvform
Encoding: 9530 9530 726
Width: 613
VWidth: 1046
Flags: W
LayerCount: 2
Fore
SplineSet
613 248 m 1
 226 248 l 1
 226 289 l 1
 0 289 l 1
 0 367 l 1
 226 367 l 1
 226 838 l 1
 387 838 l 1
 387 408 l 1
 613 408 l 1
 613 248 l 1
EndSplineSet
EndChar

StartChar: hvuphorizform
Encoding: 9531 9531 727
Width: 613
VWidth: 1046
Flags: W
LayerCount: 2
Fore
SplineSet
226 408 m 1
 226 838 l 1
 387 838 l 1
 387 408 l 1
 613 408 l 1
 613 248 l 1
 0 248 l 1
 0 408 l 1
 226 408 l 1
EndSplineSet
EndChar

StartChar: lefthvrtvertltform
Encoding: 9533 9533 728
Width: 613
VWidth: 1046
Flags: W
LayerCount: 2
Fore
SplineSet
346 838 m 1
 346 681 346 524 346 367 c 1
 613 367 l 1
 613 289 l 1
 346 289 l 1
 346 131 346 -26 346 -184 c 1
 267 -184 l 1
 267 248 l 1
 0 248 l 1
 0 408 l 1
 267 408 l 1
 267 838 l 1
 346 838 l 1
EndSplineSet
EndChar

StartChar: rthvleftvertltform
Encoding: 9534 9534 729
Width: 613
VWidth: 1046
Flags: W
LayerCount: 2
Fore
SplineSet
346 408 m 1
 613 408 l 1
 613 248 l 1
 346 248 l 1
 346 -184 l 1
 267 -184 l 1
 267 -26 267 131 267 289 c 1
 0 289 l 1
 0 367 l 1
 267 367 l 1
 267 524 267 681 267 838 c 1
 346 838 l 1
 346 408 l 1
EndSplineSet
EndChar

StartChar: vertlthorizhvform
Encoding: 9535 9535 730
Width: 613
VWidth: 1046
Flags: W
LayerCount: 2
Fore
SplineSet
346 408 m 1
 613 408 l 1
 613 248 l 1
 346 248 l 1
 346 -184 l 1
 267 -184 l 1
 267 838 l 1
 346 838 l 1
 346 408 l 1
EndSplineSet
EndChar

StartChar: uphvdnhorizltform
Encoding: 9536 9536 731
Width: 613
VWidth: 1046
Flags: W
LayerCount: 2
Fore
SplineSet
226 367 m 1
 226 838 l 1
 387 838 l 1
 387 367 l 1
 613 367 l 1
 613 289 l 1
 524 289 435 289 346 289 c 1
 346 -184 l 1
 267 -184 l 1
 267 289 l 1
 178 289 89 289 0 289 c 1
 0 367 l 1
 226 367 l 1
EndSplineSet
EndChar

StartChar: dnhvuphorizltform
Encoding: 9537 9537 732
Width: 613
VWidth: 1046
Flags: W
LayerCount: 2
Fore
SplineSet
267 367 m 1
 267 838 l 1
 346 838 l 1
 346 367 l 1
 435 367 524 367 613 367 c 1
 613 289 l 1
 387 289 l 1
 387 -184 l 1
 226 -184 l 1
 226 289 l 1
 0 289 l 1
 0 367 l 1
 89 367 178 367 267 367 c 1
EndSplineSet
EndChar

StartChar: verthvhorizltform
Encoding: 9538 9538 733
Width: 613
VWidth: 1046
Flags: W
LayerCount: 2
Fore
SplineSet
226 289 m 1
 0 289 l 1
 0 367 l 1
 226 367 l 1
 226 838 l 1
 387 838 l 1
 387 367 l 1
 613 367 l 1
 613 289 l 1
 387 289 l 1
 387 -184 l 1
 226 -184 l 1
 226 289 l 1
EndSplineSet
EndChar

StartChar: leftuphvrtdnltform
Encoding: 9539 9539 734
Width: 613
VWidth: 1046
Flags: W
LayerCount: 2
Fore
SplineSet
226 408 m 1
 226 838 l 1
 387 838 l 1
 387 367 l 1
 613 367 l 1
 613 289 l 1
 524 289 435 289 346 289 c 1
 346 131 346 -26 346 -184 c 1
 267 -184 l 1
 267 248 l 1
 0 248 l 1
 0 408 l 1
 226 408 l 1
EndSplineSet
EndChar

StartChar: rtuphvleftdnltform
Encoding: 9540 9540 735
Width: 613
VWidth: 1046
Flags: W
LayerCount: 2
Fore
SplineSet
226 367 m 1
 226 838 l 1
 387 838 l 1
 387 408 l 1
 613 408 l 1
 613 248 l 1
 346 248 l 1
 346 -184 l 1
 267 -184 l 1
 267 -26 267 131 267 289 c 1
 178 289 89 289 0 289 c 1
 0 367 l 1
 226 367 l 1
EndSplineSet
EndChar

StartChar: leftdnhvrtupltform
Encoding: 9541 9541 736
Width: 613
VWidth: 1046
Flags: W
LayerCount: 2
Fore
SplineSet
346 838 m 1
 346 681 346 524 346 367 c 1
 435 367 524 367 613 367 c 1
 613 289 l 1
 387 289 l 1
 387 -184 l 1
 226 -184 l 1
 226 248 l 1
 0 248 l 1
 0 408 l 1
 267 408 l 1
 267 838 l 1
 346 838 l 1
EndSplineSet
EndChar

StartChar: rtdnhvleftupltform
Encoding: 9542 9542 737
Width: 613
VWidth: 1046
Flags: W
LayerCount: 2
Fore
SplineSet
346 408 m 1
 613 408 l 1
 613 248 l 1
 387 248 l 1
 387 -184 l 1
 226 -184 l 1
 226 289 l 1
 0 289 l 1
 0 367 l 1
 89 367 178 367 267 367 c 1
 267 524 267 681 267 838 c 1
 346 838 l 1
 346 408 l 1
EndSplineSet
EndChar

StartChar: dnltuphorizhvform
Encoding: 9543 9543 738
Width: 613
VWidth: 1046
Flags: W
LayerCount: 2
Fore
SplineSet
226 408 m 1
 226 838 l 1
 387 838 l 1
 387 408 l 1
 613 408 l 1
 613 248 l 1
 346 248 l 1
 346 -184 l 1
 267 -184 l 1
 267 248 l 1
 0 248 l 1
 0 408 l 1
 226 408 l 1
EndSplineSet
EndChar

StartChar: upltdnhorizhvform
Encoding: 9544 9544 739
Width: 613
VWidth: 1046
Flags: W
LayerCount: 2
Fore
SplineSet
346 408 m 1
 613 408 l 1
 613 248 l 1
 387 248 l 1
 387 -184 l 1
 226 -184 l 1
 226 248 l 1
 0 248 l 1
 0 408 l 1
 267 408 l 1
 267 838 l 1
 346 838 l 1
 346 408 l 1
EndSplineSet
EndChar

StartChar: rtltleftverthvform
Encoding: 9545 9545 740
Width: 613
VWidth: 1046
Flags: W
LayerCount: 2
Fore
SplineSet
226 408 m 1
 226 838 l 1
 387 838 l 1
 387 367 l 1
 613 367 l 1
 613 289 l 1
 387 289 l 1
 387 -184 l 1
 226 -184 l 1
 226 248 l 1
 0 248 l 1
 0 408 l 1
 226 408 l 1
EndSplineSet
EndChar

StartChar: leftltrtverthvform
Encoding: 9546 9546 741
Width: 613
VWidth: 1046
Flags: W
LayerCount: 2
Fore
SplineSet
387 408 m 1
 613 408 l 1
 613 248 l 1
 387 248 l 1
 387 -184 l 1
 226 -184 l 1
 226 289 l 1
 0 289 l 1
 0 367 l 1
 226 367 l 1
 226 838 l 1
 387 838 l 1
 387 408 l 1
EndSplineSet
EndChar

StartChar: hvverthorizform
Encoding: 9547 9547 742
Width: 613
VWidth: 1046
Flags: W
LayerCount: 2
Fore
SplineSet
226 408 m 1
 226 838 l 1
 387 838 l 1
 387 408 l 1
 613 408 l 1
 613 248 l 1
 387 248 l 1
 387 -184 l 1
 226 -184 l 1
 226 248 l 1
 0 248 l 1
 0 408 l 1
 226 408 l 1
EndSplineSet
EndChar

StartChar: ltdashdblhorizform
Encoding: 9548 9548 743
Width: 613
VWidth: 1046
Flags: W
LayerCount: 2
Fore
SplineSet
562 289 m 1
 358 289 l 1
 358 367 l 1
 562 367 l 1
 562 289 l 1
255 289 m 1
 51 289 l 1
 51 367 l 1
 255 367 l 1
 255 289 l 1
EndSplineSet
EndChar

StartChar: hvdashdblhorizform
Encoding: 9549 9549 744
Width: 613
VWidth: 1046
Flags: W
LayerCount: 2
Fore
SplineSet
562 248 m 1
 358 248 l 1
 358 408 l 1
 562 408 l 1
 562 248 l 1
255 248 m 1
 51 248 l 1
 51 408 l 1
 255 408 l 1
 255 248 l 1
EndSplineSet
EndChar

StartChar: ltdashdblvertform
Encoding: 9550 9550 745
Width: 613
VWidth: 1046
Flags: W
LayerCount: 2
Fore
SplineSet
346 276 m 0
 346 -133 l 0
 267 -133 l 0
 267 276 l 0
 346 276 l 0
346 787 m 0
 346 378 l 0
 267 378 l 0
 267 787 l 0
 346 787 l 0
EndSplineSet
EndChar

StartChar: hvdashdblvertform
Encoding: 9551 9551 746
Width: 613
VWidth: 1046
Flags: W
LayerCount: 2
Fore
SplineSet
387 276 m 1
 387 -133 l 1
 226 -133 l 1
 226 276 l 1
 387 276 l 1
387 787 m 1
 387 378 l 1
 226 378 l 1
 226 787 l 1
 387 787 l 1
EndSplineSet
EndChar

StartChar: ltdashtriphorizform
Encoding: 9476 9476 747
Width: 613
VWidth: 1046
Flags: W
LayerCount: 2
Fore
SplineSet
450 367 m 0
 572 367 l 0
 572 289 l 0
 450 289 l 0
 450 367 l 0
245 367 m 0
 368 367 l 0
 368 289 l 0
 245 289 l 0
 245 367 l 0
41 367 m 0
 163 367 l 0
 163 289 l 0
 41 289 l 0
 41 367 l 0
EndSplineSet
EndChar

StartChar: hvdashtriphorizform
Encoding: 9477 9477 748
Width: 613
VWidth: 1046
Flags: W
LayerCount: 2
Fore
SplineSet
450 408 m 1
 572 408 l 1
 572 248 l 1
 450 248 l 1
 450 408 l 1
245 408 m 1
 368 408 l 1
 368 248 l 1
 245 248 l 1
 245 408 l 1
41 408 m 1
 163 408 l 1
 163 248 l 1
 41 248 l 1
 41 408 l 1
EndSplineSet
EndChar

StartChar: ltdashtripvertform
Encoding: 9478 9478 749
Width: 613
VWidth: 1046
Flags: W
LayerCount: 2
Fore
SplineSet
346 106 m 0
 346 -133 l 0
 267 -133 l 0
 267 106 l 0
 346 106 l 0
346 446 m 0
 346 208 l 0
 267 208 l 0
 267 446 l 0
 346 446 l 0
346 787 m 0
 346 548 l 0
 267 548 l 0
 267 787 l 0
 346 787 l 0
EndSplineSet
EndChar

StartChar: hvdashtripvertform
Encoding: 9479 9479 750
Width: 613
VWidth: 1046
Flags: W
LayerCount: 2
Fore
SplineSet
387 106 m 1
 387 -133 l 1
 226 -133 l 1
 226 106 l 1
 387 106 l 1
387 446 m 1
 387 208 l 1
 226 208 l 1
 226 446 l 1
 387 446 l 1
387 787 m 1
 387 548 l 1
 226 548 l 1
 226 787 l 1
 387 787 l 1
EndSplineSet
EndChar

StartChar: ltdashquadhorizform
Encoding: 9480 9480 751
Width: 613
VWidth: 1046
Flags: W
LayerCount: 2
Fore
SplineSet
582 289 m 1
 490 289 l 1
 490 367 l 1
 582 367 l 1
 582 289 l 1
429 289 m 1
 337 289 l 1
 337 367 l 1
 429 367 l 1
 429 289 l 1
276 289 m 1
 184 289 l 1
 184 367 l 1
 276 367 l 1
 276 289 l 1
123 289 m 1
 31 289 l 1
 31 367 l 1
 123 367 l 1
 123 289 l 1
EndSplineSet
EndChar

StartChar: hvdashquadhorizform
Encoding: 9481 9481 752
Width: 613
VWidth: 1046
Flags: W
LayerCount: 2
Fore
SplineSet
582 248 m 1
 490 248 l 1
 490 408 l 1
 582 408 l 1
 582 248 l 1
429 248 m 1
 337 248 l 1
 337 408 l 1
 429 408 l 1
 429 248 l 1
276 248 m 1
 184 248 l 1
 184 408 l 1
 276 408 l 1
 276 248 l 1
123 248 m 1
 31 248 l 1
 31 408 l 1
 123 408 l 1
 123 248 l 1
EndSplineSet
EndChar

StartChar: ltdashquadvertform
Encoding: 9482 9482 753
Width: 613
VWidth: 1046
Flags: W
LayerCount: 2
Fore
SplineSet
346 20 m 0
 346 -133 l 0
 267 -133 l 0
 267 20 l 0
 346 20 l 0
346 276 m 0
 346 123 l 0
 267 123 l 0
 267 276 l 0
 346 276 l 0
346 531 m 0
 346 378 l 0
 267 378 l 0
 267 531 l 0
 346 531 l 0
346 787 m 0
 346 633 l 0
 267 633 l 0
 267 787 l 0
 346 787 l 0
EndSplineSet
EndChar

StartChar: hvdashquadvertform
Encoding: 9483 9483 754
Width: 613
VWidth: 1046
Flags: W
LayerCount: 2
Fore
SplineSet
387 20 m 1
 387 -133 l 1
 226 -133 l 1
 226 20 l 1
 387 20 l 1
387 276 m 1
 387 123 l 1
 226 123 l 1
 226 276 l 1
 387 276 l 1
387 531 m 1
 387 378 l 1
 226 378 l 1
 226 531 l 1
 387 531 l 1
387 787 m 1
 387 633 l 1
 226 633 l 1
 226 787 l 1
 387 787 l 1
EndSplineSet
EndChar

StartChar: uni257C
Encoding: 9596 9596 755
Width: 613
VWidth: 1046
Flags: W
LayerCount: 2
Fore
SplineSet
267 367 m 1
 267 408 l 1
 613 408 l 1
 613 248 l 1
 267 248 l 1
 267 289 l 1
 0 289 l 1
 0 367 l 1
 267 367 l 1
EndSplineSet
EndChar

StartChar: uni257D
Encoding: 9597 9597 756
Width: 613
VWidth: 1046
Flags: W
LayerCount: 2
Fore
SplineSet
387 367 m 1
 387 -184 l 1
 226 -184 l 1
 226 367 l 1
 267 367 l 1
 267 838 l 1
 346 838 l 1
 346 367 l 1
 387 367 l 1
EndSplineSet
EndChar

StartChar: uni257E
Encoding: 9598 9598 757
Width: 613
VWidth: 1046
Flags: W
LayerCount: 2
Fore
SplineSet
346 248 m 1
 0 248 l 1
 0 408 l 1
 346 408 l 1
 346 367 l 1
 613 367 l 1
 613 289 l 1
 346 289 l 1
 346 248 l 1
EndSplineSet
EndChar

StartChar: uni257F
Encoding: 9599 9599 758
Width: 613
VWidth: 1046
Flags: W
LayerCount: 2
Fore
SplineSet
267 289 m 1
 226 289 l 1
 226 838 l 1
 387 838 l 1
 387 289 l 1
 346 289 l 1
 346 -184 l 1
 267 -184 l 1
 267 289 l 1
EndSplineSet
EndChar

StartChar: ltarcdnrtform
Encoding: 9581 9581 759
Width: 613
VWidth: 1046
Flags: W
LayerCount: 2
Fore
SplineSet
267 -82 m 0
 267 165 376 367 511 367 c 0
 613 367 l 1
 613 289 l 1
 511 289 l 0
 419 289 346 122 346 -82 c 0
 346 -184 l 1
 267 -184 l 1
 267 -82 l 0
EndSplineSet
EndChar

StartChar: ltarcdnleftform
Encoding: 9582 9582 760
Width: 613
VWidth: 1046
Flags: W
LayerCount: 2
Fore
SplineSet
0 289 m 1
 0 367 l 1
 102 367 l 0
 237 367 346 165 346 -82 c 0
 346 -184 l 1
 267 -184 l 1
 267 -82 l 0
 267 122 194 289 102 289 c 0
 0 289 l 1
EndSplineSet
EndChar

StartChar: ltarcupleftform
Encoding: 9583 9583 761
Width: 613
VWidth: 1046
Flags: W
LayerCount: 2
Fore
SplineSet
0 287 m 1
 0 365 l 1
 102 365 l 0
 194 365 267 532 267 736 c 0
 267 838 l 1
 346 838 l 1
 346 736 l 0
 346 489 237 287 102 287 c 0
 0 287 l 1
EndSplineSet
EndChar

StartChar: ltarcuprtform
Encoding: 9584 9584 762
Width: 613
VWidth: 1046
Flags: W
LayerCount: 2
Fore
SplineSet
267 736 m 0
 267 838 l 1
 346 838 l 1
 346 736 l 0
 346 532 419 365 511 365 c 0
 613 365 l 1
 613 287 l 1
 511 287 l 0
 376 287 267 489 267 736 c 0
EndSplineSet
EndChar

StartChar: forwarddiagonal
Encoding: 9585 9585 763
Width: 613
VWidth: 1046
Flags: W
LayerCount: 2
Fore
SplineSet
657 838 m 0
 44 -184 l 0
 -44 -184 l 0
 569 838 l 0
 657 838 l 0
EndSplineSet
EndChar

StartChar: backwarddiagonal
Encoding: 9586 9586 764
Width: 613
VWidth: 1046
Flags: W
LayerCount: 2
Fore
SplineSet
-44 838 m 0
 44 838 l 0
 657 -184 l 0
 569 -184 l 0
 -44 838 l 0
EndSplineSet
EndChar

StartChar: ltdiagonalcross
Encoding: 9587 9587 765
Width: 613
VWidth: 1046
Flags: W
LayerCount: 2
Fore
SplineSet
-44 838 m 1
 44 838 l 1
 306 401 l 1
 569 838 l 1
 657 838 l 1
 351 327 l 1
 657 -184 l 1
 569 -184 l 1
 306 253 l 1
 44 -184 l 1
 -44 -184 l 1
 262 327 l 1
 -44 838 l 1
EndSplineSet
EndChar

StartChar: dneighthblock
Encoding: 9601 9601 766
Width: 613
VWidth: 1046
Flags: W
LayerCount: 2
Fore
SplineSet
0 -56 m 29
 613 -56 l 29
 613 -184 l 25
 0 -184 l 25
 0 -56 l 29
EndSplineSet
EndChar

StartChar: dnquarterblock
Encoding: 9602 9602 767
Width: 613
VWidth: 1046
Flags: W
LayerCount: 2
Fore
SplineSet
0 72 m 29
 613 72 l 29
 613 -184 l 25
 0 -184 l 25
 0 72 l 29
EndSplineSet
EndChar

StartChar: dnthreeeighthblock
Encoding: 9603 9603 768
Width: 613
VWidth: 1046
Flags: W
LayerCount: 2
Fore
SplineSet
0 199 m 25
 613 199 l 25
 613 -184 l 25
 0 -184 l 25
 0 199 l 25
EndSplineSet
EndChar

StartChar: dnfiveeighthblock
Encoding: 9605 9605 769
Width: 613
VWidth: 1046
Flags: W
LayerCount: 2
Fore
SplineSet
0 455 m 29
 613 455 l 29
 613 -184 l 25
 0 -184 l 25
 0 455 l 29
EndSplineSet
EndChar

StartChar: dnthreequarterblock
Encoding: 9606 9606 770
Width: 613
VWidth: 1046
Flags: W
LayerCount: 2
Fore
SplineSet
0 582 m 29
 613 582 l 29
 613 -184 l 25
 0 -184 l 25
 0 582 l 29
EndSplineSet
EndChar

StartChar: dnseveneighthblock
Encoding: 9607 9607 771
Width: 613
VWidth: 1046
Flags: W
LayerCount: 2
Fore
SplineSet
0 710 m 29
 613 710 l 29
 613 -184 l 25
 0 -184 l 25
 0 710 l 29
EndSplineSet
EndChar

StartChar: lfseveneighthblock
Encoding: 9609 9609 772
Width: 613
VWidth: 1046
Flags: W
LayerCount: 2
Fore
SplineSet
0 838 m 25
 536 838 l 29
 536 -184 l 29
 0 -184 l 25
 0 838 l 25
EndSplineSet
EndChar

StartChar: lfthreequarterblock
Encoding: 9610 9610 773
Width: 613
VWidth: 1046
Flags: W
LayerCount: 2
Fore
SplineSet
0 838 m 25
 460 838 l 29
 460 -184 l 29
 0 -184 l 25
 0 838 l 25
EndSplineSet
EndChar

StartChar: lffiveeighthblock
Encoding: 9611 9611 774
Width: 613
VWidth: 1046
Flags: W
LayerCount: 2
Fore
SplineSet
0 838 m 25
 383 838 l 29
 383 -184 l 29
 0 -184 l 25
 0 838 l 25
EndSplineSet
EndChar

StartChar: lfthreeeighthblock
Encoding: 9613 9613 775
Width: 613
VWidth: 1046
Flags: W
LayerCount: 2
Fore
SplineSet
0 838 m 25
 230 838 l 29
 230 -184 l 29
 0 -184 l 25
 0 838 l 25
EndSplineSet
EndChar

StartChar: lfquarterblock
Encoding: 9614 9614 776
Width: 613
VWidth: 1046
Flags: W
LayerCount: 2
Fore
SplineSet
0 838 m 25
 153 838 l 29
 153 -184 l 29
 0 -184 l 25
 0 838 l 25
EndSplineSet
EndChar

StartChar: lfeighthblock
Encoding: 9615 9615 777
Width: 613
VWidth: 1046
Flags: W
LayerCount: 2
Fore
SplineSet
0 838 m 25
 77 838 l 25
 77 -184 l 25
 0 -184 l 25
 0 838 l 25
EndSplineSet
EndChar

StartChar: upblock
Encoding: 9600 9600 778
Width: 613
VWidth: 1046
Flags: W
LayerCount: 2
Fore
SplineSet
0 838 m 29
 613 838 l 29
 613 327 l 29
 0 327 l 29
 0 838 l 29
EndSplineSet
EndChar

StartChar: rtblock
Encoding: 9616 9616 779
Width: 613
VWidth: 1046
Flags: W
LayerCount: 2
Fore
SplineSet
306 838 m 25
 613 838 l 25
 613 -184 l 25
 306 -184 l 25
 306 838 l 25
EndSplineSet
EndChar

StartChar: ltshade
Encoding: 9617 9617 780
Width: 613
VWidth: 1046
Flags: W
LayerCount: 2
Fore
SplineSet
613 -82 m 1
 613 -133 l 1
 552 -133 l 1
 552 -82 l 1
 613 -82 l 1
613 123 m 1
 613 72 l 1
 552 72 l 1
 552 123 l 1
 613 123 l 1
613 327 m 1
 613 276 l 1
 552 276 l 1
 552 327 l 1
 613 327 l 1
613 531 m 1
 613 480 l 1
 552 480 l 1
 552 531 l 1
 613 531 l 1
613 736 m 1
 613 685 l 1
 552 685 l 1
 552 736 l 1
 613 736 l 1
61 20 m 1
 61 -31 l 1
 0 -31 l 1
 0 20 l 1
 61 20 l 1
61 225 m 1
 61 174 l 1
 0 174 l 1
 0 225 l 1
 61 225 l 1
61 429 m 1
 61 378 l 1
 0 378 l 1
 0 429 l 1
 61 429 l 1
61 633 m 1
 61 582 l 1
 0 582 l 1
 0 633 l 1
 61 633 l 1
0 838 m 1
 61 838 l 1
 61 787 l 1
 0 787 l 1
 0 838 l 1
552 838 m 1
 552 787 l 1
 490 787 l 1
 490 838 l 1
 552 838 l 1
429 838 m 1
 429 787 l 1
 368 787 l 1
 368 838 l 1
 429 838 l 1
306 838 m 1
 306 787 l 1
 245 787 l 1
 245 838 l 1
 306 838 l 1
184 838 m 1
 184 787 l 1
 123 787 l 1
 123 838 l 1
 184 838 l 1
490 736 m 1
 490 685 l 1
 429 685 l 1
 429 736 l 1
 490 736 l 1
368 736 m 1
 368 685 l 1
 306 685 l 1
 306 736 l 1
 368 736 l 1
245 736 m 1
 245 685 l 1
 184 685 l 1
 184 736 l 1
 245 736 l 1
123 736 m 1
 123 685 l 1
 61 685 l 1
 61 736 l 1
 123 736 l 1
552 633 m 1
 552 582 l 1
 490 582 l 1
 490 633 l 1
 552 633 l 1
429 633 m 1
 429 582 l 1
 368 582 l 1
 368 633 l 1
 429 633 l 1
306 633 m 1
 306 582 l 1
 245 582 l 1
 245 633 l 1
 306 633 l 1
184 633 m 1
 184 582 l 1
 123 582 l 1
 123 633 l 1
 184 633 l 1
490 531 m 1
 490 480 l 1
 429 480 l 1
 429 531 l 1
 490 531 l 1
368 531 m 1
 368 480 l 1
 306 480 l 1
 306 531 l 1
 368 531 l 1
245 531 m 1
 245 480 l 1
 184 480 l 1
 184 531 l 1
 245 531 l 1
123 531 m 1
 123 480 l 1
 61 480 l 1
 61 531 l 1
 123 531 l 1
552 429 m 1
 552 378 l 1
 490 378 l 1
 490 429 l 1
 552 429 l 1
429 429 m 1
 429 378 l 1
 368 378 l 1
 368 429 l 1
 429 429 l 1
306 429 m 1
 306 378 l 1
 245 378 l 1
 245 429 l 1
 306 429 l 1
184 429 m 1
 184 378 l 1
 123 378 l 1
 123 429 l 1
 184 429 l 1
490 327 m 1
 490 276 l 1
 429 276 l 1
 429 327 l 1
 490 327 l 1
368 327 m 1
 368 276 l 1
 306 276 l 1
 306 327 l 1
 368 327 l 1
245 327 m 1
 245 276 l 1
 184 276 l 1
 184 327 l 1
 245 327 l 1
123 327 m 1
 123 276 l 1
 61 276 l 1
 61 327 l 1
 123 327 l 1
552 225 m 1
 552 174 l 1
 490 174 l 1
 490 225 l 1
 552 225 l 1
429 225 m 1
 429 174 l 1
 368 174 l 1
 368 225 l 1
 429 225 l 1
306 225 m 1
 306 174 l 1
 245 174 l 1
 245 225 l 1
 306 225 l 1
184 225 m 1
 184 174 l 1
 123 174 l 1
 123 225 l 1
 184 225 l 1
490 123 m 1
 490 72 l 1
 429 72 l 1
 429 123 l 1
 490 123 l 1
368 123 m 1
 368 72 l 1
 306 72 l 1
 306 123 l 1
 368 123 l 1
245 123 m 1
 245 72 l 1
 184 72 l 1
 184 123 l 1
 245 123 l 1
123 123 m 1
 123 72 l 1
 61 72 l 1
 61 123 l 1
 123 123 l 1
552 20 m 1
 552 -31 l 1
 490 -31 l 1
 490 20 l 1
 552 20 l 1
429 20 m 1
 429 -31 l 1
 368 -31 l 1
 368 20 l 1
 429 20 l 1
306 20 m 1
 306 -31 l 1
 245 -31 l 1
 245 20 l 1
 306 20 l 1
184 20 m 1
 184 -31 l 1
 123 -31 l 1
 123 20 l 1
 184 20 l 1
490 -82 m 1
 490 -133 l 1
 429 -133 l 1
 429 -82 l 1
 490 -82 l 1
368 -82 m 1
 368 -133 l 1
 306 -133 l 1
 306 -82 l 1
 368 -82 l 1
245 -82 m 1
 245 -133 l 1
 184 -133 l 1
 184 -82 l 1
 245 -82 l 1
123 -82 m 1
 123 -133 l 1
 61 -133 l 1
 61 -82 l 1
 123 -82 l 1
EndSplineSet
EndChar

StartChar: upeighthblock
Encoding: 9620 9620 781
Width: 613
VWidth: 1046
Flags: W
LayerCount: 2
Fore
SplineSet
0 838 m 25
 613 838 l 25
 613 710 l 25
 0 710 l 25
 0 838 l 25
EndSplineSet
EndChar

StartChar: rteighthblock
Encoding: 9621 9621 782
Width: 613
VWidth: 1046
Flags: W
LayerCount: 2
Fore
SplineSet
536 838 m 25
 613 838 l 25
 613 -184 l 25
 536 -184 l 25
 536 838 l 25
EndSplineSet
EndChar

StartChar: uni2596
Encoding: 9622 9622 783
Width: 613
VWidth: 1046
Flags: W
LayerCount: 2
Fore
SplineSet
0 327 m 25
 306 327 l 25
 306 -184 l 25
 0 -184 l 25
 0 327 l 25
EndSplineSet
EndChar

StartChar: uni2597
Encoding: 9623 9623 784
Width: 613
VWidth: 1046
Flags: W
LayerCount: 2
Fore
SplineSet
306 327 m 25
 613 327 l 25
 613 -184 l 25
 306 -184 l 25
 306 327 l 25
EndSplineSet
EndChar

StartChar: uni2598
Encoding: 9624 9624 785
Width: 613
VWidth: 1046
Flags: W
LayerCount: 2
Fore
SplineSet
0 838 m 25
 306 838 l 25
 306 327 l 25
 0 327 l 25
 0 838 l 25
EndSplineSet
EndChar

StartChar: uni259D
Encoding: 9629 9629 786
Width: 613
VWidth: 1046
Flags: W
LayerCount: 2
Fore
SplineSet
306 838 m 25
 613 838 l 25
 613 327 l 25
 306 327 l 25
 306 838 l 25
EndSplineSet
EndChar

StartChar: uni2599
Encoding: 9625 9625 787
Width: 613
VWidth: 1046
Flags: W
LayerCount: 2
Fore
SplineSet
0 838 m 1
 306 838 l 1
 306 327 l 1
 613 327 l 1
 613 -184 l 1
 409 -184 204 -184 0 -184 c 1
 0 157 0 497 0 838 c 1
EndSplineSet
EndChar

StartChar: uni259A
Encoding: 9626 9626 788
Width: 613
VWidth: 1046
Flags: W
LayerCount: 2
Fore
SplineSet
0 838 m 1
 306 838 l 1
 306 327 l 1
 613 327 l 1
 613 -184 l 1
 306 -184 l 1
 306 327 l 1
 0 327 l 1
 0 838 l 1
EndSplineSet
EndChar

StartChar: uni259B
Encoding: 9627 9627 789
Width: 613
VWidth: 1046
LayerCount: 2
Fore
SplineSet
0 -184 m 1
 0 157 0 497 0 838 c 1
 204 838 409 838 613 838 c 1
 613 327 l 1
 306 327 l 1
 306 -184 l 1
 0 -184 l 1
EndSplineSet
EndChar

StartChar: uni259C
Encoding: 9628 9628 790
Width: 613
VWidth: 1046
LayerCount: 2
Fore
SplineSet
613 838 m 1
 613 497 613 157 613 -184 c 1
 306 -184 l 1
 306 327 l 1
 0 327 l 1
 0 838 l 1
 204 838 409 838 613 838 c 1
EndSplineSet
EndChar

StartChar: uni259E
Encoding: 9630 9630 791
Width: 613
VWidth: 1046
LayerCount: 2
Fore
SplineSet
306 838 m 5
 613 838 l 1
 613 327 l 1
 306 327 l 1
 306 -184 l 1
 0 -184 l 1
 0 327 l 1
 306 327 l 1
 306 838 l 5
EndSplineSet
EndChar

StartChar: uni259F
Encoding: 9631 9631 792
Width: 613
VWidth: 1046
LayerCount: 2
Fore
SplineSet
306 838 m 1
 613 838 l 1
 613 497 613 157 613 -184 c 1
 409 -184 204 -184 0 -184 c 1
 0 327 l 1
 306 327 l 1
 306 838 l 1
EndSplineSet
EndChar

StartChar: triangle
Encoding: 9651 9651 793
Width: 613
VWidth: 1046
Flags: W
LayerCount: 2
Fore
SplineSet
306 398 m 1
 194 174 l 1
 419 174 l 1
 306 398 l 1
306 552 m 1
 531 102 l 1
 82 102 l 1
 306 552 l 1
EndSplineSet
EndChar

StartChar: triangleinv
Encoding: 9661 9661 794
Width: 613
VWidth: 1046
Flags: W
LayerCount: 2
Fore
SplineSet
194 480 m 1
 306 255 l 1
 419 480 l 1
 194 480 l 1
82 552 m 1
 531 552 l 1
 306 102 l 1
 82 552 l 1
EndSplineSet
EndChar

StartChar: trianglerightsld1
Encoding: 9654 9654 795
Width: 613
VWidth: 1046
Flags: W
LayerCount: 2
Fore
SplineSet
531 327 m 1
 82 102 l 1
 82 552 l 1
 531 327 l 1
EndSplineSet
EndChar

StartChar: triangleright1
Encoding: 9655 9655 796
Width: 613
VWidth: 1046
Flags: W
LayerCount: 2
Fore
SplineSet
378 327 m 1
 153 439 l 1
 153 215 l 1
 378 327 l 1
531 327 m 1
 82 102 l 1
 82 552 l 1
 531 327 l 1
EndSplineSet
EndChar

StartChar: triangleleftsld1
Encoding: 9664 9664 797
Width: 613
VWidth: 1046
Flags: W
LayerCount: 2
Fore
SplineSet
531 552 m 1
 531 102 l 1
 82 327 l 1
 531 552 l 1
EndSplineSet
EndChar

StartChar: triangleleft1
Encoding: 9665 9665 798
Width: 613
VWidth: 1046
Flags: W
LayerCount: 2
Fore
SplineSet
460 439 m 1
 235 327 l 1
 460 215 l 1
 460 439 l 1
531 552 m 1
 531 102 l 1
 82 327 l 1
 531 552 l 1
EndSplineSet
EndChar

StartChar: blackdiamond
Encoding: 9670 9670 799
Width: 613
VWidth: 1046
Flags: W
LayerCount: 2
Fore
SplineSet
306 552 m 25
 531 327 l 25
 306 102 l 25
 82 327 l 25
 306 552 l 25
EndSplineSet
EndChar

